Poppins-Thin.ufo
<glyph name="exclam" format="2">
  <advance width="226"/>
  <unicode hex="0021"/>
  <outline>
    <contour>
      <point x="99" y="704" type="line"/>
      <point x="102" y="157" type="line"/>
      <point x="120" y="157" type="line"/>
      <point x="123" y="704" type="line"/>
    </contour>
    <component base="period" xOffset="55"/>
  </outline>
</glyph>
<glyph name="quotedbl" format="2">
  <advance width="196"/>
  <unicode hex="0022"/>
  <outline>
    <contour>
      <point x="40" y="793" type="line"/>
      <point x="48" y="614" type="line"/>
      <point x="64" y="614" type="line"/>
      <point x="71" y="793" type="line"/>
    </contour>
    <contour>
      <point x="125" y="793" type="line"/>
      <point x="133" y="614" type="line"/>
      <point x="149" y="614" type="line"/>
      <point x="156" y="793" type="line"/>
    </contour>
  </outline>
</glyph>
<glyph name="numbersign" format="2">
  <advance width="743"/>
  <unicode hex="0023"/>
  <outline>
    <contour>
      <point x="308" y="740" type="line"/>
      <point x="150" y="0" type="line"/>
      <point x="170" y="0" type="line"/>
      <point x="328" y="740" type="line"/>
    </contour>
    <contour>
      <point x="579" y="740" type="line"/>
      <point x="421" y="0" type="line"/>
      <point x="441" y="0" type="line"/>
      <point x="599" y="740" type="line"/>
    </contour>
    <contour>
      <point x="40" y="266" type="line"/>
      <point x="40" y="248" type="line"/>
      <point x="653" y="248" type="line"/>
      <point x="653" y="266" type="line"/>
    </contour>
    <contour>
      <point x="90" y="483" type="line"/>
      <point x="90" y="465" type="line"/>
      <point x="703" y="465" type="line"/>
      <point x="703" y="483" type="line"/>
    </contour>
  </outline>
</glyph>
<glyph name="dollar" format="2">
  <advance width="536"/>
  <unicode hex="0024"/>
  <outline>
    <contour>
      <point x="258" y="800" type="line"/>
      <point x="258" y="-87" type="line"/>
      <point x="278" y="-87" type="line"/>
      <point x="278" y="800" type="line"/>
    </contour>
    <contour>
      <point x="80" y="300"/>
      <point x="80" y="543" type="curve" smooth="yes"/>
      <point x="80" y="640"/>
      <point x="149" y="693"/>
      <point x="250" y="693" type="curve"/>
      <point x="375" y="693"/>
      <point x="427" y="609"/>
      <point x="439" y="559" type="curve"/>
      <point x="459" y="559" type="line"/>
      <point x="444" y="627"/>
      <point x="382" y="711"/>
      <point x="250" y="711" type="curve"/>
      <point x="123" y="711"/>
      <point x="60" y="635"/>
      <point x="60" y="543" type="curve" smooth="yes"/>
      <point x="60" y="282"/>
      <point x="456" y="421"/>
      <point x="456" y="169" type="curve" smooth="yes"/>
      <point x="456" y="84"/>
      <point x="401" y="11"/>
      <point x="285" y="11" type="curve" smooth="yes"/>
      <point x="147" y="11"/>
      <point x="91" y="111"/>
      <point x="83" y="169" type="curve"/>
      <point x="63" y="169" type="line"/>
      <point x="73" y="80"/>
      <point x="154" y="-7"/>
      <point x="285" y="-7" type="curve" smooth="yes"/>
      <point x="425" y="-7"/>
      <point x="476" y="88"/>
      <point x="476" y="169" type="curve" smooth="yes"/>
      <point x="476" y="441"/>
    </contour>
  </outline>
</glyph>
<glyph name="percent" format="2">
  <advance width="649"/>
  <unicode hex="0025"/>
  <outline>
    <contour>
      <point x="44" y="656"/>
      <point x="44" y="582" type="curve"/>
      <point x="44" y="508"/>
      <point x="98" y="453"/>
      <point x="171" y="453" type="curve"/>
      <point x="244" y="453"/>
      <point x="298" y="508"/>
      <point x="298" y="582" type="curve"/>
      <point x="298" y="656"/>
      <point x="244" y="711"/>
      <point x="171" y="711" type="curve"/>
      <point x="98" y="711"/>
    </contour>
    <contour>
      <point x="108" y="693"/>
      <point x="171" y="693" type="curve"/>
      <point x="234" y="693"/>
      <point x="278" y="646"/>
      <point x="278" y="582" type="curve"/>
      <point x="278" y="518"/>
      <point x="234" y="471"/>
      <point x="171" y="471" type="curve"/>
      <point x="108" y="471"/>
      <point x="64" y="518"/>
      <point x="64" y="582" type="curve"/>
      <point x="64" y="646"/>
    </contour>
    <contour>
      <point x="524" y="704" type="line"/>
      <point x="101" y="0" type="line"/>
      <point x="124" y="0" type="line"/>
      <point x="547" y="704" type="line"/>
    </contour>
    <contour>
      <point x="351" y="195"/>
      <point x="351" y="121" type="curve"/>
      <point x="351" y="47"/>
      <point x="405" y="-8"/>
      <point x="478" y="-8" type="curve"/>
      <point x="551" y="-8"/>
      <point x="605" y="47"/>
      <point x="605" y="121" type="curve"/>
      <point x="605" y="195"/>
      <point x="551" y="250"/>
      <point x="478" y="250" type="curve"/>
      <point x="405" y="250"/>
    </contour>
    <contour>
      <point x="415" y="232"/>
      <point x="478" y="232" type="curve"/>
      <point x="541" y="232"/>
      <point x="585" y="185"/>
      <point x="585" y="121" type="curve"/>
      <point x="585" y="57"/>
      <point x="541" y="10"/>
      <point x="478" y="10" type="curve"/>
      <point x="415" y="10"/>
      <point x="371" y="57"/>
      <point x="371" y="121" type="curve"/>
      <point x="371" y="185"/>
    </contour>
  </outline>
</glyph>
<glyph name="ampersand" format="2">
  <advance width="672"/>
  <unicode hex="0026"/>
  <outline>
    <contour>
      <point x="416" y="573" type="curve"/>
      <point x="436" y="573" type="line"/>
      <point x="436" y="661"/>
      <point x="360" y="709"/>
      <point x="284" y="709" type="curve" smooth="yes"/>
      <point x="192" y="709"/>
      <point x="128" y="654"/>
      <point x="128" y="571" type="curve" smooth="yes"/>
      <point x="128" y="515"/>
      <point x="158" y="467"/>
      <point x="211" y="413" type="curve" smooth="yes"/>
      <point x="613" y="0" type="line"/>
      <point x="637" y="0" type="line"/>
      <point x="225" y="427" type="line" smooth="yes"/>
      <point x="177" y="476"/>
      <point x="148" y="520"/>
      <point x="148" y="572" type="curve" smooth="yes"/>
      <point x="148" y="644"/>
      <point x="203" y="691"/>
      <point x="284" y="691" type="curve" smooth="yes"/>
      <point x="350" y="691"/>
      <point x="416" y="649"/>
    </contour>
    <contour>
      <point x="238" y="403" type="line"/>
      <point x="225" y="418" type="line"/>
      <point x="209" y="412" type="line" smooth="yes"/>
      <point x="106" y="372"/>
      <point x="43" y="302"/>
      <point x="43" y="199" type="curve" smooth="yes"/>
      <point x="43" y="75"/>
      <point x="138" y="-10"/>
      <point x="268" y="-10" type="curve" smooth="yes"/>
      <point x="413" y="-10"/>
      <point x="498" y="70"/>
      <point x="604" y="255" type="curve" smooth="yes"/>
      <point x="664" y="360" type="line"/>
      <point x="643" y="360" type="line"/>
      <point x="593" y="273" type="line" smooth="yes"/>
      <point x="487" y="89"/>
      <point x="408" y="9"/>
      <point x="268" y="9" type="curve" smooth="yes"/>
      <point x="150" y="9"/>
      <point x="63" y="88"/>
      <point x="63" y="199" type="curve" smooth="yes"/>
      <point x="63" y="290"/>
      <point x="114" y="356"/>
      <point x="214" y="394" type="curve" smooth="yes"/>
    </contour>
  </outline>
</glyph>
<glyph name="quotesingle" format="2">
  <advance width="119"/>
  <unicode hex="0027"/>
  <outline>
    <contour>
      <point x="40" y="793" type="line"/>
      <point x="52" y="614" type="line"/>
      <point x="68" y="614" type="line"/>
      <point x="79" y="793" type="line"/>
    </contour>
  </outline>
</glyph>
<glyph name="parenleft" format="2">
  <advance width="338"/>
  <unicode hex="0028"/>
  <guideline x="84" y="352" angle="0"/>
  <outline>
    <contour>
      <point x="261" y="-186" type="curve"/>
      <point x="284" y="-186" type="line"/>
      <point x="284" y="-183" type="line"/>
      <point x="151" y="-44"/>
      <point x="80" y="154"/>
      <point x="80" y="374" type="curve" smooth="yes"/>
      <point x="80" y="594"/>
      <point x="151" y="792"/>
      <point x="284" y="931" type="curve"/>
      <point x="284" y="934" type="line"/>
      <point x="261" y="934" type="line"/>
      <point x="149" y="817"/>
      <point x="60" y="622"/>
      <point x="60" y="374" type="curve" smooth="yes"/>
      <point x="60" y="126"/>
      <point x="149" y="-69"/>
    </contour>
  </outline>
</glyph>
<glyph name="parenright" format="2">
  <advance width="338"/>
  <unicode hex="0029"/>
  <outline>
    <contour>
      <point x="77" y="-186" type="line"/>
      <point x="189" y="-69"/>
      <point x="278" y="126"/>
      <point x="278" y="374" type="curve" smooth="yes"/>
      <point x="278" y="622"/>
      <point x="189" y="817"/>
      <point x="77" y="934" type="curve"/>
      <point x="54" y="934" type="line"/>
      <point x="54" y="931" type="line"/>
      <point x="187" y="792"/>
      <point x="258" y="594"/>
      <point x="258" y="374" type="curve" smooth="yes"/>
      <point x="258" y="154"/>
      <point x="187" y="-44"/>
      <point x="54" y="-183" type="curve"/>
      <point x="54" y="-186" type="line"/>
    </contour>
  </outline>
</glyph>
<glyph name="asterisk" format="2">
  <advance width="429"/>
  <unicode hex="002A"/>
  <outline>
    <contour>
      <point x="226" y="559" type="line"/>
      <point x="228" y="728" type="line"/>
      <point x="208" y="728" type="line"/>
      <point x="210" y="559" type="line"/>
      <point x="66" y="642" type="line"/>
      <point x="56" y="624" type="line"/>
      <point x="203" y="545" type="line"/>
      <point x="54" y="467" type="line"/>
      <point x="64" y="449" type="line"/>
      <point x="210" y="531" type="line"/>
      <point x="208" y="360" type="line"/>
      <point x="228" y="360" type="line"/>
      <point x="226" y="531" type="line"/>
      <point x="372" y="449" type="line"/>
      <point x="382" y="467" type="line"/>
      <point x="233" y="545" type="line"/>
      <point x="380" y="624" type="line"/>
      <point x="370" y="642" type="line"/>
    </contour>
  </outline>
</glyph>
<glyph name="plus" format="2">
  <advance width="589"/>
  <unicode hex="002B"/>
  <outline>
    <contour>
      <point x="304" y="635" type="line"/>
      <point x="284" y="635" type="line"/>
      <point x="284" y="125" type="line"/>
      <point x="304" y="125" type="line"/>
    </contour>
    <contour>
      <point x="40" y="389" type="line"/>
      <point x="40" y="371" type="line"/>
      <point x="549" y="371" type="line"/>
      <point x="549" y="389" type="line"/>
    </contour>
  </outline>
</glyph>
<glyph name="comma" format="2">
  <advance width="113"/>
  <unicode hex="002C"/>
  <outline>
    <contour>
      <point x="54" y="93" type="line"/>
      <point x="-23" y="-155" type="line"/>
      <point x="-4" y="-155" type="line"/>
      <point x="80" y="93" type="line"/>
    </contour>
  </outline>
</glyph>
<glyph name="period" format="2">
  <advance width="116"/>
  <unicode hex="002E"/>
  <outline>
    <contour>
      <point x="58" y="-2" type="curve" smooth="yes"/>
      <point x="73" y="-2"/>
      <point x="84" y="9"/>
      <point x="84" y="25" type="curve" smooth="yes"/>
      <point x="84" y="41"/>
      <point x="73" y="52"/>
      <point x="58" y="52" type="curve" smooth="yes"/>
      <point x="43" y="52"/>
      <point x="32" y="41"/>
      <point x="32" y="25" type="curve" smooth="yes"/>
      <point x="32" y="9"/>
      <point x="43" y="-2"/>
    </contour>
  </outline>
</glyph>
<glyph name="slash" format="2">
  <advance width="359"/>
  <unicode hex="002F"/>
  <outline>
    <contour>
      <point x="307" y="935" type="line"/>
      <point x="30" y="-156" type="line"/>
      <point x="50" y="-156" type="line"/>
      <point x="329" y="935" type="line"/>
    </contour>
  </outline>
</glyph>
<glyph name="zero" format="2">
  <advance width="588"/>
  <unicode hex="0030"/>
  <outline>
    <contour>
      <point x="106" y="711"/>
      <point x="70" y="557"/>
      <point x="70" y="354" type="curve"/>
      <point x="70" y="149"/>
      <point x="106" y="-7"/>
      <point x="294" y="-7" type="curve" smooth="yes"/>
      <point x="481" y="-7"/>
      <point x="518" y="149"/>
      <point x="518" y="354" type="curve"/>
      <point x="518" y="557"/>
      <point x="481" y="711"/>
      <point x="294" y="711" type="curve" smooth="yes"/>
    </contour>
    <contour>
      <point x="467" y="693"/>
      <point x="498" y="547"/>
      <point x="498" y="354" type="curve"/>
      <point x="498" y="159"/>
      <point x="467" y="11"/>
      <point x="294" y="11" type="curve" smooth="yes"/>
      <point x="121" y="11"/>
      <point x="90" y="159"/>
      <point x="90" y="354" type="curve"/>
      <point x="90" y="547"/>
      <point x="121" y="693"/>
      <point x="294" y="693" type="curve" smooth="yes"/>
    </contour>
  </outline>
</glyph>
<glyph name="one" format="2">
  <advance width="226"/>
  <unicode hex="0031"/>
  <outline>
    <contour>
      <point x="121" y="686" type="line"/>
      <point x="121" y="0" type="line"/>
      <point x="141" y="0" type="line"/>
      <point x="141" y="704" type="line"/>
      <point x="15" y="704" type="line"/>
      <point x="15" y="686" type="line"/>
    </contour>
  </outline>
</glyph>
<glyph name="three" format="2">
  <advance width="575"/>
  <unicode hex="0033"/>
  <outline>
    <contour>
      <point x="79" y="635"/>
      <point x="66" y="516" type="curve"/>
      <point x="86" y="516" type="line"/>
      <point x="102" y="645"/>
      <point x="198" y="693"/>
      <point x="297" y="693" type="curve" smooth="yes"/>
      <point x="412" y="693"/>
      <point x="475" y="628"/>
      <point x="475" y="537" type="curve" smooth="yes"/>
      <point x="475" y="437.529"/>
      <point x="403" y="376"/>
      <point x="227" y="376" type="curve" smooth="yes"/>
      <point x="209" y="376" type="line"/>
      <point x="209" y="357" type="line"/>
      <point x="226" y="357" type="line" smooth="yes"/>
      <point x="388" y="357"/>
      <point x="488" y="296.607"/>
      <point x="488" y="179" type="curve" smooth="yes"/>
      <point x="488" y="86.568"/>
      <point x="427" y="13"/>
      <point x="296" y="13" type="curve" smooth="yes"/>
      <point x="168" y="13"/>
      <point x="92.305" y="92.349"/>
      <point x="73" y="197" type="curve"/>
      <point x="53" y="197" type="line"/>
      <point x="75.319" y="68.159"/>
      <point x="164" y="-7"/>
      <point x="296" y="-7" type="curve" smooth="yes"/>
      <point x="445" y="-7"/>
      <point x="508" y="78.408"/>
      <point x="508" y="179" type="curve" smooth="yes"/>
      <point x="508" y="291.057"/>
      <point x="427" y="352"/>
      <point x="320" y="364" type="curve"/>
      <point x="320" y="370" type="line"/>
      <point x="455.057" y="381.005"/>
      <point x="495" y="463.233"/>
      <point x="495" y="537" type="curve" smooth="yes"/>
      <point x="495" y="635"/>
      <point x="426" y="711"/>
      <point x="297" y="711" type="curve" smooth="yes"/>
      <point x="161" y="711"/>
    </contour>
  </outline>
</glyph>
<glyph name="four" format="2">
  <advance width="574"/>
  <unicode hex="0034"/>
  <outline>
    <contour>
      <point x="417" y="190" type="line"/>
      <point x="417" y="0" type="line"/>
      <point x="437" y="0" type="line"/>
      <point x="437" y="190" type="line"/>
      <point x="559" y="190" type="line"/>
      <point x="559" y="208" type="line"/>
      <point x="437" y="208" type="line"/>
      <point x="437" y="704" type="line"/>
      <point x="417" y="704" type="line"/>
      <point x="20" y="206" type="line"/>
      <point x="20" y="190" type="line"/>
    </contour>
    <contour>
      <point x="417" y="208" type="line"/>
      <point x="45" y="208" type="line"/>
      <point x="417" y="672" type="line"/>
    </contour>
  </outline>
</glyph>
<glyph name="five" format="2">
  <advance width="592"/>
  <unicode hex="0035"/>
  <outline>
    <contour>
      <point x="503" y="704" type="line"/>
      <point x="81" y="704" type="line"/>
      <point x="81" y="333" type="line"/>
      <point x="99" y="333" type="line"/>
      <point x="139" y="401"/>
      <point x="215" y="443"/>
      <point x="308" y="443" type="curve" smooth="yes"/>
      <point x="444" y="443"/>
      <point x="517" y="362"/>
      <point x="517" y="236" type="curve" smooth="yes"/>
      <point x="517" y="109"/>
      <point x="450" y="13"/>
      <point x="303" y="13" type="curve" smooth="yes"/>
      <point x="196" y="13"/>
      <point x="113" y="73"/>
      <point x="90" y="192" type="curve"/>
      <point x="70" y="192" type="line"/>
      <point x="89" y="68"/>
      <point x="179" y="-7"/>
      <point x="304" y="-7" type="curve" smooth="yes"/>
      <point x="473" y="-7"/>
      <point x="537" y="112"/>
      <point x="537" y="236" type="curve" smooth="yes"/>
      <point x="537" y="352"/>
      <point x="474" y="461"/>
      <point x="308" y="461" type="curve" smooth="yes"/>
      <point x="219" y="461"/>
      <point x="139" y="422"/>
      <point x="101" y="366" type="curve"/>
      <point x="101" y="686" type="line"/>
      <point x="503" y="686" type="line"/>
    </contour>
  </outline>
</glyph>
<glyph name="six" format="2">
  <advance width="614"/>
  <unicode hex="0036"/>
  <outline>
    <contour>
      <point x="505" y="522" type="curve"/>
      <point x="525" y="522" type="line"/>
      <point x="511" y="635"/>
      <point x="444" y="712"/>
      <point x="320" y="712" type="curve" smooth="yes"/>
      <point x="134" y="712"/>
      <point x="70" y="564"/>
      <point x="70" y="339" type="curve" smooth="yes"/>
      <point x="70" y="161"/>
      <point x="109" y="-7"/>
      <point x="327" y="-7" type="curve" smooth="yes"/>
      <point x="494" y="-7"/>
      <point x="554" y="109"/>
      <point x="554" y="224" type="curve" smooth="yes"/>
      <point x="554" y="374"/>
      <point x="471" y="468"/>
      <point x="322" y="468" type="curve" smooth="yes"/>
      <point x="205" y="468"/>
      <point x="107" y="403"/>
      <point x="90" y="297" type="curve"/>
      <point x="77" y="588"/>
      <point x="168" y="694"/>
      <point x="320" y="694" type="curve" smooth="yes"/>
      <point x="430" y="694"/>
      <point x="491" y="628"/>
    </contour>
    <contour>
      <point x="217" y="450"/>
      <point x="322" y="450" type="curve" smooth="yes"/>
      <point x="451" y="450"/>
      <point x="534" y="373"/>
      <point x="534" y="224" type="curve" smooth="yes"/>
      <point x="534" y="90"/>
      <point x="450" y="11"/>
      <point x="327" y="11" type="curve" smooth="yes"/>
      <point x="160" y="11"/>
      <point x="96" y="132"/>
      <point x="96" y="245" type="curve" smooth="yes"/>
      <point x="96" y="386"/>
    </contour>
  </outline>
</glyph>
<glyph name="seven" format="2">
  <advance width="502"/>
  <unicode hex="0037"/>
  <outline>
    <contour>
      <point x="462" y="704" type="line"/>
      <point x="10" y="704" type="line"/>
      <point x="10" y="686" type="line"/>
      <point x="445" y="686" type="line"/>
      <point x="161" y="0" type="line"/>
      <point x="182" y="0" type="line"/>
      <point x="462" y="686" type="line"/>
    </contour>
  </outline>
</glyph>
<glyph name="eight" format="2">
  <advance width="608"/>
  <unicode hex="0038"/>
  <outline>
    <contour>
      <point x="118" y="385"/>
      <point x="228" y="362" type="curve"/>
      <point x="121" y="344"/>
      <point x="55" y="277"/>
      <point x="55" y="177" type="curve" smooth="yes"/>
      <point x="55" y="53"/>
      <point x="146" y="-25"/>
      <point x="304" y="-25" type="curve"/>
      <point x="462" y="-25"/>
      <point x="553" y="53"/>
      <point x="553" y="177" type="curve" smooth="yes"/>
      <point x="553" y="277"/>
      <point x="487" y="344"/>
      <point x="380" y="362" type="curve"/>
      <point x="490" y="385"/>
      <point x="533" y="453"/>
      <point x="533" y="532" type="curve" smooth="yes"/>
      <point x="533" y="639"/>
      <point x="448" y="711"/>
      <point x="304" y="711" type="curve"/>
      <point x="160" y="711"/>
      <point x="75" y="639"/>
      <point x="75" y="532" type="curve" smooth="yes"/>
      <point x="75" y="453"/>
    </contour>
    <contour>
      <point x="513" y="532" type="curve" smooth="yes"/>
      <point x="513" y="429"/>
      <point x="432" y="371"/>
      <point x="304" y="371" type="curve"/>
      <point x="176" y="371"/>
      <point x="95" y="429"/>
      <point x="95" y="532" type="curve" smooth="yes"/>
      <point x="95" y="638"/>
      <point x="180" y="693"/>
      <point x="304" y="693" type="curve"/>
      <point x="428" y="693"/>
      <point x="513" y="638"/>
    </contour>
    <contour>
      <point x="182" y="353"/>
      <point x="304" y="353" type="curve"/>
      <point x="426" y="353"/>
      <point x="533" y="305"/>
      <point x="533" y="177" type="curve" smooth="yes"/>
      <point x="533" y="57"/>
      <point x="441" y="-7"/>
      <point x="304" y="-7" type="curve"/>
      <point x="167" y="-7"/>
      <point x="75" y="57"/>
      <point x="75" y="177" type="curve" smooth="yes"/>
      <point x="75" y="305"/>
    </contour>
  </outline>
</glyph>
<glyph name="nine" format="2">
  <advance width="614"/>
  <unicode hex="0039"/>
  <outline>
    <contour>
      <point x="109" y="182" type="curve"/>
      <point x="89" y="182" type="line"/>
      <point x="103" y="69"/>
      <point x="170" y="-8"/>
      <point x="294" y="-8" type="curve" smooth="yes"/>
      <point x="480" y="-8"/>
      <point x="544" y="140"/>
      <point x="544" y="365" type="curve" smooth="yes"/>
      <point x="544" y="543"/>
      <point x="505" y="711"/>
      <point x="287" y="711" type="curve" smooth="yes"/>
      <point x="120" y="711"/>
      <point x="60" y="595"/>
      <point x="60" y="480" type="curve" smooth="yes"/>
      <point x="60" y="330"/>
      <point x="143" y="236"/>
      <point x="292" y="236" type="curve" smooth="yes"/>
      <point x="409" y="236"/>
      <point x="507" y="301"/>
      <point x="524" y="407" type="curve"/>
      <point x="537" y="116"/>
      <point x="446" y="10"/>
      <point x="294" y="10" type="curve" smooth="yes"/>
      <point x="184" y="10"/>
      <point x="123" y="76"/>
    </contour>
    <contour>
      <point x="397" y="254"/>
      <point x="292" y="254" type="curve" smooth="yes"/>
      <point x="163" y="254"/>
      <point x="80" y="331"/>
      <point x="80" y="480" type="curve" smooth="yes"/>
      <point x="80" y="614"/>
      <point x="164" y="693"/>
      <point x="287" y="693" type="curve" smooth="yes"/>
      <point x="454" y="693"/>
      <point x="518" y="572"/>
      <point x="518" y="459" type="curve" smooth="yes"/>
      <point x="518" y="318"/>
    </contour>
  </outline>
</glyph>
<glyph name="less" format="2">
  <advance width="381"/>
  <unicode hex="003C"/>
  <outline>
    <contour>
      <point x="341" y="143" type="line"/>
      <point x="65" y="380" type="line"/>
      <point x="341" y="618" type="line"/>
      <point x="316" y="618" type="line"/>
      <point x="40" y="380" type="line"/>
      <point x="316" y="143" type="line"/>
    </contour>
  </outline>
</glyph>
<glyph name="equal" format="2">
  <advance width="564"/>
  <unicode hex="003D"/>
  <outline>
    <contour>
      <point x="40" y="301" type="line"/>
      <point x="40" y="283" type="line"/>
      <point x="524" y="283" type="line"/>
      <point x="524" y="301" type="line"/>
    </contour>
    <contour>
      <point x="40" y="478" type="line"/>
      <point x="40" y="460" type="line"/>
      <point x="524" y="460" type="line"/>
      <point x="524" y="478" type="line"/>
    </contour>
  </outline>
</glyph>
<glyph name="greater" format="2">
  <advance width="381"/>
  <unicode hex="003E"/>
  <outline>
    <contour>
      <point x="316" y="380" type="line"/>
      <point x="40" y="143" type="line"/>
      <point x="65" y="143" type="line"/>
      <point x="341" y="380" type="line"/>
      <point x="65" y="618" type="line"/>
      <point x="40" y="618" type="line"/>
    </contour>
  </outline>
</glyph>
<glyph name="at" format="2">
  <advance width="975"/>
  <unicode hex="0040"/>
  <outline>
    <contour>
      <point x="630" y="126" type="line" smooth="yes"/>
      <point x="618" y="53"/>
      <point x="644" y="-5"/>
      <point x="712" y="-5" type="curve" smooth="yes"/>
      <point x="829" y="-5"/>
      <point x="895" y="145"/>
      <point x="895" y="294" type="curve" smooth="yes"/>
      <point x="895" y="488"/>
      <point x="750" y="624"/>
      <point x="543" y="624" type="curve" smooth="yes"/>
      <point x="276" y="624"/>
      <point x="80" y="414"/>
      <point x="80" y="142" type="curve" smooth="yes"/>
      <point x="80" y="-60"/>
      <point x="221" y="-186"/>
      <point x="423" y="-186" type="curve" smooth="yes"/>
      <point x="483" y="-186"/>
      <point x="545" y="-174"/>
      <point x="598" y="-154" type="curve"/>
      <point x="593" y="-136" type="line"/>
      <point x="543" y="-156"/>
      <point x="487" y="-168"/>
      <point x="429" y="-168" type="curve" smooth="yes"/>
      <point x="233" y="-168"/>
      <point x="99" y="-49"/>
      <point x="100" y="147" type="curve" smooth="yes"/>
      <point x="101" y="398"/>
      <point x="290" y="606"/>
      <point x="540" y="606" type="curve" smooth="yes"/>
      <point x="740" y="606"/>
      <point x="875" y="480"/>
      <point x="875" y="290" type="curve" smooth="yes"/>
      <point x="875" y="158"/>
      <point x="814" y="13"/>
      <point x="715" y="13" type="curve" smooth="yes"/>
      <point x="661" y="13"/>
      <point x="636" y="61"/>
      <point x="648" y="126" type="curve" smooth="yes"/>
      <point x="700" y="422" type="line"/>
      <point x="682" y="422" type="line"/>
      <point x="655" y="268" type="line"/>
      <point x="665" y="277" type="line"/>
      <point x="667" y="380"/>
      <point x="606" y="437"/>
      <point x="517" y="437" type="curve" smooth="yes"/>
      <point x="376" y="437"/>
      <point x="281" y="306"/>
      <point x="281" y="163" type="curve" smooth="yes"/>
      <point x="281" y="61"/>
      <point x="339" y="-5"/>
      <point x="439" y="-5" type="curve" smooth="yes"/>
      <point x="528" y="-5"/>
      <point x="612" y="52"/>
      <point x="646" y="155" type="curve"/>
      <point x="637" y="164" type="line"/>
    </contour>
    <contour>
      <point x="515" y="419" type="curve" smooth="yes"/>
      <point x="626" y="419"/>
      <point x="668" y="327"/>
      <point x="646" y="216" type="curve"/>
      <point x="622" y="81"/>
      <point x="536" y="13"/>
      <point x="443" y="13" type="curve" smooth="yes"/>
      <point x="354" y="13"/>
      <point x="301" y="71"/>
      <point x="301" y="165" type="curve" smooth="yes"/>
      <point x="301" y="294"/>
      <point x="384" y="419"/>
    </contour>
  </outline>
</glyph>
<glyph name="A" format="2">
  <advance width="601"/>
  <unicode hex="0041"/>
  <anchor x="571" y="0" name="ogonek"/>
  <anchor x="301" y="683" name="top"/>
  <outline>
    <contour>
      <point x="311" y="683" type="line"/>
      <point x="291" y="683" type="line"/>
      <point x="30" y="0" type="line"/>
      <point x="53" y="0" type="line"/>
      <point x="308" y="668" type="line"/>
      <point x="295" y="668" type="line"/>
      <point x="548" y="0" type="line"/>
      <point x="571" y="0" type="line"/>
    </contour>
    <contour>
      <point x="123" y="212" type="line"/>
      <point x="117" y="194" type="line"/>
      <point x="484" y="194" type="line"/>
      <point x="477" y="212" type="line"/>
    </contour>
  </outline>
</glyph>
<glyph name="C" format="2">
  <advance width="769"/>
  <unicode hex="0043"/>
  <anchor x="411" y="0" name="bottom"/>
  <anchor x="411" y="683" name="top"/>
  <outline>
    <contour>
      <point x="60" y="563"/>
      <point x="60" y="351" type="curve"/>
      <point x="60" y="141"/>
      <point x="197" y="-7"/>
      <point x="388" y="-7" type="curve"/>
      <point x="557" y="-7"/>
      <point x="661" y="78"/>
      <point x="709" y="207" type="curve"/>
      <point x="689" y="207" type="line"/>
      <point x="648" y="95"/>
      <point x="548" y="11"/>
      <point x="388" y="11" type="curve"/>
      <point x="218" y="11"/>
      <point x="81" y="140"/>
      <point x="81" y="351" type="curve"/>
      <point x="81" y="564"/>
      <point x="218" y="693"/>
      <point x="388" y="693" type="curve"/>
      <point x="548" y="693"/>
      <point x="648" y="609"/>
      <point x="689" y="496" type="curve"/>
      <point x="709" y="496" type="line"/>
      <point x="661" y="626"/>
      <point x="557" y="711"/>
      <point x="388" y="711" type="curve"/>
      <point x="197" y="711"/>
    </contour>
  </outline>
</glyph>
<glyph name="D" format="2">
  <advance width="702"/>
  <unicode hex="0044"/>
  <anchor x="340" y="683" name="top"/>
  <outline>
    <contour>
      <point x="515" y="704"/>
      <point x="270" y="704" type="curve"/>
      <point x="85" y="704" type="line"/>
      <point x="85" y="0" type="line"/>
      <point x="270" y="0" type="line"/>
      <point x="515" y="0"/>
      <point x="642" y="130"/>
      <point x="642" y="352" type="curve"/>
      <point x="642" y="574"/>
    </contour>
    <contour>
      <point x="270" y="18" type="curve"/>
      <point x="105" y="18" type="line"/>
      <point x="105" y="686" type="line"/>
      <point x="270" y="686" type="line"/>
      <point x="506" y="686"/>
      <point x="622" y="558"/>
      <point x="622" y="352" type="curve"/>
      <point x="622" y="146"/>
      <point x="506" y="18"/>
    </contour>
  </outline>
</glyph>
<glyph name="E" format="2">
  <advance width="479"/>
  <unicode hex="0045"/>
  <anchor x="233" y="0" name="bottom"/>
  <anchor x="429" y="0" name="ogonek"/>
  <anchor x="233" y="683" name="top"/>
  <outline>
    <contour>
      <point x="429" y="686" type="line"/>
      <point x="429" y="704" type="line"/>
      <point x="85" y="704" type="line"/>
      <point x="85" y="0" type="line"/>
      <point x="429" y="0" type="line"/>
      <point x="429" y="18" type="line"/>
      <point x="105" y="18" type="line"/>
      <point x="105" y="343" type="line"/>
      <point x="399" y="343" type="line"/>
      <point x="399" y="361" type="line"/>
      <point x="105" y="361" type="line"/>
      <point x="105" y="686" type="line"/>
    </contour>
  </outline>
</glyph>
<glyph name="F" format="2">
  <advance width="469"/>
  <unicode hex="0046"/>
  <outline>
    <contour>
      <point x="85" y="704" type="line"/>
      <point x="85" y="0" type="line"/>
      <point x="105" y="0" type="line"/>
      <point x="105" y="343" type="line"/>
      <point x="399" y="343" type="line"/>
      <point x="399" y="361" type="line"/>
      <point x="105" y="361" type="line"/>
      <point x="105" y="686" type="line"/>
      <point x="429" y="686" type="line"/>
      <point x="429" y="704" type="line"/>
    </contour>
  </outline>
</glyph>
<glyph name="G" format="2">
  <advance width="792"/>
  <unicode hex="0047"/>
  <anchor x="411" y="0" name="bottom"/>
  <anchor x="411" y="683" name="top"/>
  <outline>
    <contour>
      <point x="709" y="495" type="line"/>
      <point x="661" y="624"/>
      <point x="551" y="710"/>
      <point x="396" y="710" type="curve"/>
      <point x="200" y="710"/>
      <point x="60" y="562"/>
      <point x="60" y="351" type="curve"/>
      <point x="60" y="140"/>
      <point x="200" y="-8"/>
      <point x="396" y="-8" type="curve"/>
      <point x="592" y="-8"/>
      <point x="732" y="140"/>
      <point x="732" y="351" type="curve"/>
      <point x="732" y="359" type="line"/>
      <point x="381" y="359" type="line"/>
      <point x="381" y="341" type="line"/>
      <point x="713" y="341" type="line"/>
      <point x="708" y="135"/>
      <point x="568" y="10"/>
      <point x="396" y="10" type="curve"/>
      <point x="221" y="10"/>
      <point x="81" y="139"/>
      <point x="81" y="351" type="curve"/>
      <point x="81" y="563"/>
      <point x="221" y="692"/>
      <point x="396" y="692" type="curve"/>
      <point x="542" y="692"/>
      <point x="648" y="608"/>
      <point x="689" y="495" type="curve"/>
    </contour>
  </outline>
</glyph>
<glyph name="H" format="2">
  <advance width="650"/>
  <unicode hex="0048"/>
  <outline>
    <contour>
      <point x="85" y="704" type="line"/>
      <point x="85" y="0" type="line"/>
      <point x="105" y="0" type="line"/>
      <point x="105" y="704" type="line"/>
    </contour>
    <contour>
      <point x="544" y="704" type="line"/>
      <point x="544" y="0" type="line"/>
      <point x="564" y="0" type="line"/>
      <point x="564" y="704" type="line"/>
    </contour>
    <contour>
      <point x="95" y="371" type="line"/>
      <point x="95" y="353" type="line"/>
      <point x="556" y="353" type="line"/>
      <point x="556" y="371" type="line"/>
    </contour>
  </outline>
</glyph>
<glyph name="I" format="2">
  <advance width="190"/>
  <unicode hex="0049"/>
  <anchor x="105" y="0" name="ogonek"/>
  <anchor x="95" y="683" name="top"/>
  <outline>
    <contour>
      <point x="85" y="704" type="line"/>
      <point x="85" y="0" type="line"/>
      <point x="105" y="0" type="line"/>
      <point x="105" y="704" type="line"/>
    </contour>
  </outline>
</glyph>
<glyph name="J" format="2">
  <advance width="426"/>
  <unicode hex="004A"/>
  <outline>
    <contour>
      <point x="326" y="704" type="line"/>
      <point x="326" y="143" type="line" smooth="yes"/>
      <point x="326" y="85"/>
      <point x="298" y="11"/>
      <point x="193" y="11" type="curve" smooth="yes"/>
      <point x="86" y="11"/>
      <point x="50" y="89"/>
      <point x="50" y="173" type="curve"/>
      <point x="30" y="173" type="line"/>
      <point x="30" y="63"/>
      <point x="88" y="-7"/>
      <point x="193" y="-7" type="curve" smooth="yes"/>
      <point x="292" y="-7"/>
      <point x="346" y="60"/>
      <point x="346" y="143" type="curve" smooth="yes"/>
      <point x="346" y="704" type="line"/>
    </contour>
  </outline>
</glyph>
<glyph name="K" format="2">
  <advance width="494"/>
  <unicode hex="004B"/>
  <anchor x="255" y="0" name="bottom"/>
  <anchor x="255" y="683" name="top"/>
  <outline>
    <contour>
      <point x="85" y="704" type="line"/>
      <point x="85" y="0" type="line"/>
      <point x="105" y="0" type="line"/>
      <point x="105" y="704" type="line"/>
    </contour>
    <contour>
      <point x="447" y="704" type="line"/>
      <point x="90" y="351" type="line"/>
      <point x="447" y="0" type="line"/>
      <point x="474" y="0" type="line"/>
      <point x="110" y="359" type="line"/>
      <point x="113" y="348" type="line"/>
      <point x="474" y="704" type="line"/>
    </contour>
  </outline>
</glyph>
<glyph name="L" format="2">
  <advance width="395"/>
  <unicode hex="004C"/>
  <anchor x="220" y="0" name="bottom"/>
  <anchor x="220" y="10" name="commaaccent"/>
  <anchor x="202" y="683" name="top"/>
  <anchor x="375" y="683" name="topright"/>
  <outline>
    <contour>
      <point x="105" y="704" type="line"/>
      <point x="85" y="704" type="line"/>
      <point x="85" y="0" type="line"/>
      <point x="375" y="0" type="line"/>
      <point x="375" y="18" type="line"/>
      <point x="105" y="18" type="line"/>
    </contour>
  </outline>
</glyph>
<glyph name="M" format="2">
  <advance width="797"/>
  <unicode hex="004D"/>
  <guideline x="563" y="350" angle="245.9899"/>
  <outline>
    <contour>
      <point x="85" y="684" type="line"/>
      <point x="85" y="0" type="line"/>
      <point x="105" y="0" type="line"/>
      <point x="105" y="639" type="line"/>
      <point x="101" y="644" type="line"/>
      <point x="389" y="0" type="line"/>
      <point x="409" y="0" type="line"/>
      <point x="696" y="644" type="line"/>
      <point x="692" y="639" type="line"/>
      <point x="692" y="0" type="line"/>
      <point x="712" y="0" type="line"/>
      <point x="712" y="684" type="line"/>
      <point x="692" y="684" type="line"/>
      <point x="394" y="15" type="line"/>
      <point x="404" y="15" type="line"/>
      <point x="105" y="684" type="line"/>
    </contour>
  </outline>
</glyph>
<glyph name="N" format="2">
  <advance width="647"/>
  <unicode hex="004E"/>
  <anchor x="324" y="0" name="bottom"/>
  <anchor x="324" y="683" name="top"/>
  <outline>
    <contour>
      <point x="562" y="703" type="line"/>
      <point x="542" y="703" type="line"/>
      <point x="542" y="37" type="line"/>
      <point x="105" y="703" type="line"/>
      <point x="85" y="703" type="line"/>
      <point x="85" y="0" type="line"/>
      <point x="105" y="0" type="line"/>
      <point x="105" y="667" type="line"/>
      <point x="542" y="0" type="line"/>
      <point x="562" y="0" type="line"/>
    </contour>
  </outline>
</glyph>
<glyph name="O" format="2">
  <advance width="792"/>
  <unicode hex="004F"/>
  <anchor x="407" y="683" name="top"/>
  <outline>
    <contour>
      <point x="396" y="-8" type="curve"/>
      <point x="592" y="-8"/>
      <point x="732" y="140"/>
      <point x="732" y="351" type="curve"/>
      <point x="732" y="562"/>
      <point x="592" y="710"/>
      <point x="396" y="710" type="curve"/>
      <point x="200" y="710"/>
      <point x="60" y="562"/>
      <point x="60" y="351" type="curve"/>
      <point x="60" y="140"/>
      <point x="200" y="-8"/>
    </contour>
    <contour>
      <point x="396" y="10" type="curve"/>
      <point x="221" y="10"/>
      <point x="81" y="139"/>
      <point x="81" y="351" type="curve"/>
      <point x="81" y="563"/>
      <point x="221" y="692"/>
      <point x="396" y="692" type="curve"/>
      <point x="571" y="692"/>
      <point x="711" y="563"/>
      <point x="711" y="351" type="curve"/>
      <point x="711" y="139"/>
      <point x="571" y="10"/>
    </contour>
  </outline>
</glyph>
<glyph name="P" format="2">
  <advance width="528"/>
  <unicode hex="0050"/>
  <outline>
    <contour>
      <point x="263" y="338" type="curve" smooth="yes"/>
      <point x="105" y="338" type="line"/>
      <point x="105" y="684" type="line"/>
      <point x="263" y="684" type="line" smooth="yes"/>
      <point x="414" y="684"/>
      <point x="468" y="619"/>
      <point x="468" y="510" type="curve" smooth="yes"/>
      <point x="468" y="406"/>
      <point x="414" y="338"/>
    </contour>
    <contour>
      <point x="488" y="380"/>
      <point x="488" y="510" type="curve" smooth="yes"/>
      <point x="488" y="627"/>
      <point x="423" y="704"/>
      <point x="263" y="704" type="curve" smooth="yes"/>
      <point x="85" y="704" type="line"/>
      <point x="85" y="0" type="line"/>
      <point x="105" y="0" type="line"/>
      <point x="105" y="317" type="line"/>
      <point x="263" y="317" type="line" smooth="yes"/>
      <point x="409" y="317"/>
    </contour>
  </outline>
</glyph>
<glyph name="Q" format="2">
  <advance width="792"/>
  <unicode hex="0051"/>
  <outline>
    <contour>
      <point x="515" y="30" type="line"/>
      <point x="500" y="14" type="line"/>
      <point x="708" y="-149" type="line"/>
      <point x="743" y="-149" type="line"/>
    </contour>
    <component base="O"/>
  </outline>
</glyph>
<glyph name="R" format="2">
  <advance width="535"/>
  <unicode hex="0052"/>
  <anchor x="296" y="0" name="bottom"/>
  <anchor x="296" y="683" name="top"/>
  <outline>
    <contour>
      <point x="469" y="615"/>
      <point x="469" y="506" type="curve" smooth="yes"/>
      <point x="469" y="403"/>
      <point x="407" y="326"/>
      <point x="263" y="326" type="curve" smooth="yes"/>
      <point x="105" y="326" type="line"/>
      <point x="105" y="684" type="line"/>
      <point x="261" y="684" type="line" smooth="yes"/>
      <point x="412" y="684"/>
    </contour>
    <contour>
      <point x="261" y="704" type="curve" smooth="yes"/>
      <point x="85" y="704" type="line"/>
      <point x="85" y="0" type="line"/>
      <point x="105" y="0" type="line"/>
      <point x="105" y="307" type="line"/>
      <point x="263" y="307" type="line" smooth="yes"/>
      <point x="409" y="307"/>
      <point x="490" y="379"/>
      <point x="490" y="506" type="curve" smooth="yes"/>
      <point x="490" y="623"/>
      <point x="421" y="704"/>
    </contour>
    <contour>
      <point x="301" y="315" type="line"/>
      <point x="277" y="315" type="line"/>
      <point x="470" y="0" type="line"/>
      <point x="495" y="0" type="line"/>
    </contour>
  </outline>
</glyph>
<glyph name="S" format="2">
  <advance width="536"/>
  <unicode hex="0053"/>
  <anchor x="267" y="0" name="bottom"/>
  <anchor x="267" y="683" name="top"/>
  <outline>
    <contour>
      <point x="278" y="-7" type="curve" smooth="yes"/>
      <point x="418" y="-7"/>
      <point x="486" y="85"/>
      <point x="486" y="170" type="curve" smooth="yes"/>
      <point x="486" y="437"/>
      <point x="85" y="283"/>
      <point x="85" y="536" type="curve" smooth="yes"/>
      <point x="85" y="633"/>
      <point x="171" y="693"/>
      <point x="272" y="693" type="curve"/>
      <point x="397" y="693"/>
      <point x="451" y="613"/>
      <point x="463" y="563" type="curve"/>
      <point x="483" y="563" type="line"/>
      <point x="468" y="631"/>
      <point x="404" y="711"/>
      <point x="272" y="711" type="curve"/>
      <point x="145" y="711"/>
      <point x="65" y="628"/>
      <point x="65" y="536" type="curve" smooth="yes"/>
      <point x="65" y="265"/>
      <point x="466" y="419"/>
      <point x="466" y="170" type="curve" smooth="yes"/>
      <point x="466" y="83"/>
      <point x="394" y="11"/>
      <point x="278" y="11" type="curve" smooth="yes"/>
      <point x="127" y="11"/>
      <point x="81" y="108"/>
      <point x="73" y="166" type="curve"/>
      <point x="53" y="166" type="line"/>
      <point x="63" y="77"/>
      <point x="137" y="-7"/>
    </contour>
  </outline>
</glyph>
<glyph name="T" format="2">
  <advance width="470"/>
  <unicode hex="0054"/>
  <anchor x="233" y="0" name="bottom"/>
  <anchor x="236" y="683" name="top"/>
  <outline>
    <contour>
      <point x="20" y="704" type="line"/>
      <point x="20" y="686" type="line"/>
      <point x="225" y="686" type="line"/>
      <point x="225" y="0" type="line"/>
      <point x="245" y="0" type="line"/>
      <point x="245" y="686" type="line"/>
      <point x="450" y="686" type="line"/>
      <point x="450" y="704" type="line"/>
    </contour>
  </outline>
</glyph>
<glyph name="U" format="2">
  <advance width="629"/>
  <unicode hex="0055"/>
  <anchor x="378" y="0" name="ogonek"/>
  <anchor x="314" y="683" name="top"/>
  <outline>
    <contour>
      <point x="80" y="704" type="line"/>
      <point x="80" y="267" type="line" smooth="yes"/>
      <point x="80" y="73"/>
      <point x="179" y="-7"/>
      <point x="317" y="-7" type="curve" smooth="yes"/>
      <point x="455" y="-7"/>
      <point x="549" y="73"/>
      <point x="549" y="267" type="curve" smooth="yes"/>
      <point x="549" y="704" type="line"/>
      <point x="529" y="704" type="line"/>
      <point x="529" y="267" type="line" smooth="yes"/>
      <point x="529" y="79"/>
      <point x="439" y="11"/>
      <point x="317" y="11" type="curve" smooth="yes"/>
      <point x="193" y="11"/>
      <point x="100" y="79"/>
      <point x="100" y="267" type="curve" smooth="yes"/>
      <point x="100" y="704" type="line"/>
    </contour>
  </outline>
</glyph>
<glyph name="V" format="2">
  <advance width="619"/>
  <unicode hex="0056"/>
  <outline>
    <contour>
      <point x="567" y="704" type="line"/>
      <point x="309" y="30" type="line"/>
      <point x="53" y="704" type="line"/>
      <point x="30" y="704" type="line"/>
      <point x="299" y="0" type="line"/>
      <point x="319" y="0" type="line"/>
      <point x="589" y="704" type="line"/>
    </contour>
  </outline>
</glyph>
<glyph name="W" format="2">
  <advance width="904"/>
  <unicode hex="0057"/>
  <outline>
    <contour>
      <point x="35" y="704" type="line"/>
      <point x="224" y="0" type="line"/>
      <point x="242" y="0" type="line"/>
      <point x="459" y="697" type="line"/>
      <point x="443" y="697" type="line"/>
      <point x="660" y="0" type="line"/>
      <point x="680" y="0" type="line"/>
      <point x="869" y="704" type="line"/>
      <point x="847" y="704" type="line"/>
      <point x="664" y="15" type="line"/>
      <point x="676" y="15" type="line"/>
      <point x="462" y="704" type="line"/>
      <point x="440" y="704" type="line"/>
      <point x="226" y="15" type="line"/>
      <point x="240" y="15" type="line"/>
      <point x="57" y="704" type="line"/>
    </contour>
  </outline>
</glyph>
<glyph name="X" format="2">
  <advance width="500"/>
  <unicode hex="0058"/>
  <outline>
    <contour>
      <point x="30" y="704" type="line"/>
      <point x="447" y="0" type="line"/>
      <point x="470" y="0" type="line"/>
      <point x="53" y="704" type="line"/>
    </contour>
    <contour>
      <point x="260" y="361" type="line"/>
      <point x="244" y="371" type="line"/>
      <point x="30" y="0" type="line"/>
      <point x="53" y="0" type="line"/>
    </contour>
    <contour>
      <point x="242" y="357" type="line"/>
      <point x="258" y="347" type="line"/>
      <point x="470" y="704" type="line"/>
      <point x="447" y="704" type="line"/>
    </contour>
  </outline>
</glyph>
<glyph name="Y" format="2">
  <advance width="518"/>
  <unicode hex="0059"/>
  <anchor x="260" y="683" name="top"/>
  <outline>
    <contour>
      <point x="30" y="704" type="line"/>
      <point x="250" y="295" type="line"/>
      <point x="250" y="0" type="line"/>
      <point x="270" y="0" type="line"/>
      <point x="270" y="295" type="line"/>
      <point x="488" y="704" type="line"/>
      <point x="464" y="704" type="line"/>
      <point x="255" y="309" type="line"/>
      <point x="264" y="309" type="line"/>
      <point x="54" y="704" type="line"/>
    </contour>
  </outline>
</glyph>
<glyph name="Z" format="2">
  <advance width="487"/>
  <unicode hex="005A"/>
  <anchor x="245" y="683" name="top"/>
  <outline>
    <contour>
      <point x="442" y="684" type="line"/>
      <point x="442" y="704" type="line"/>
      <point x="48" y="704" type="line"/>
      <point x="48" y="684" type="line"/>
      <point x="421" y="684" type="line"/>
      <point x="35" y="19" type="line"/>
      <point x="35" y="0" type="line"/>
      <point x="452" y="0" type="line"/>
      <point x="452" y="19" type="line"/>
      <point x="57" y="19" type="line"/>
    </contour>
  </outline>
</glyph>
<glyph name="bracketleft" format="2">
  <advance width="233"/>
  <unicode hex="005B"/>
  <outline>
    <contour>
      <point x="85" y="934" type="line"/>
      <point x="85" y="-185" type="line"/>
      <point x="179" y="-185" type="line"/>
      <point x="179" y="-167" type="line"/>
      <point x="105" y="-167" type="line"/>
      <point x="105" y="916" type="line"/>
      <point x="179" y="916" type="line"/>
      <point x="179" y="934" type="line"/>
    </contour>
  </outline>
</glyph>
<glyph name="backslash" format="2">
  <advance width="474"/>
  <unicode hex="005C"/>
  <outline>
    <contour>
      <point x="405" y="-156" type="line"/>
      <point x="53" y="935" type="line"/>
      <point x="30" y="935" type="line"/>
      <point x="384" y="-156" type="line"/>
    </contour>
  </outline>
</glyph>
<glyph name="bracketright" format="2">
  <advance width="233"/>
  <unicode hex="005D"/>
  <outline>
    <contour>
      <point x="148" y="934" type="line"/>
      <point x="54" y="934" type="line"/>
      <point x="54" y="916" type="line"/>
      <point x="128" y="916" type="line"/>
      <point x="128" y="-167" type="line"/>
      <point x="54" y="-167" type="line"/>
      <point x="54" y="-185" type="line"/>
      <point x="148" y="-185" type="line"/>
    </contour>
  </outline>
</glyph>
<glyph name="asciicircum" format="2">
  <advance width="552"/>
  <unicode hex="005E"/>
  <outline>
    <contour>
      <point x="277" y="653" type="line"/>
      <point x="492" y="174" type="line"/>
      <point x="512" y="174" type="line"/>
      <point x="282" y="683" type="line"/>
      <point x="270" y="683" type="line"/>
      <point x="40" y="174" type="line"/>
      <point x="60" y="174" type="line"/>
    </contour>
  </outline>
</glyph>
<glyph name="underscore" format="2">
  <advance width="533"/>
  <unicode hex="005F"/>
  <outline>
    <contour>
      <point x="40" y="-30" type="line"/>
      <point x="40" y="-48" type="line"/>
      <point x="493" y="-48" type="line"/>
      <point x="493" y="-30" type="line"/>
    </contour>
  </outline>
</glyph>
<glyph name="grave" format="2">
  <advance width="267"/>
  <unicode hex="0060"/>
  <anchor x="147" y="540" name="_top"/>
  <outline>
    <contour>
      <point x="40" y="740" type="line"/>
      <point x="40" y="716" type="line"/>
      <point x="227" y="586" type="line"/>
      <point x="227" y="606" type="line"/>
    </contour>
  </outline>
</glyph>
<glyph name="a" format="2">
  <advance width="671"/>
  <unicode hex="0061"/>
  <anchor x="586" y="0" name="ogonek"/>
  <anchor x="339" y="540" name="top"/>
  <outline>
    <contour>
      <point x="60" y="442"/>
      <point x="60" y="270" type="curve"/>
      <point x="60" y="98"/>
      <point x="168" y="-7"/>
      <point x="323" y="-7" type="curve"/>
      <point x="452" y="-7"/>
      <point x="539" y="69"/>
      <point x="567" y="165" type="curve"/>
      <point x="567" y="0" type="line"/>
      <point x="586" y="0" type="line"/>
      <point x="586" y="540" type="line"/>
      <point x="567" y="540" type="line"/>
      <point x="567" y="375" type="line"/>
      <point x="539" y="471"/>
      <point x="452" y="547"/>
      <point x="323" y="547" type="curve"/>
      <point x="168" y="547"/>
    </contour>
    <contour>
      <point x="567" y="426"/>
      <point x="567" y="270" type="curve"/>
      <point x="567" y="114"/>
      <point x="464" y="11"/>
      <point x="323" y="11" type="curve"/>
      <point x="175" y="11"/>
      <point x="80" y="109"/>
      <point x="80" y="270" type="curve"/>
      <point x="80" y="431"/>
      <point x="175" y="529"/>
      <point x="323" y="529" type="curve"/>
      <point x="464" y="529"/>
    </contour>
  </outline>
</glyph>
<glyph name="b" format="2">
  <advance width="671"/>
  <unicode hex="0062"/>
  <outline>
    <contour>
      <point x="135" y="471"/>
      <point x="104" y="375" type="curve"/>
      <point x="104" y="740" type="line"/>
      <point x="85" y="740" type="line"/>
      <point x="85" y="0" type="line"/>
      <point x="104" y="0" type="line"/>
      <point x="104" y="165" type="line"/>
      <point x="133" y="69"/>
      <point x="219" y="-7"/>
      <point x="348" y="-7" type="curve"/>
      <point x="503" y="-7"/>
      <point x="611" y="98"/>
      <point x="611" y="270" type="curve"/>
      <point x="611" y="442"/>
      <point x="503" y="547"/>
      <point x="348" y="547" type="curve"/>
      <point x="219" y="547"/>
    </contour>
    <contour>
      <point x="591" y="431"/>
      <point x="591" y="270" type="curve"/>
      <point x="591" y="109"/>
      <point x="496" y="11"/>
      <point x="348" y="11" type="curve"/>
      <point x="207" y="11"/>
      <point x="104" y="114"/>
      <point x="104" y="270" type="curve"/>
      <point x="104" y="426"/>
      <point x="207" y="529"/>
      <point x="348" y="529" type="curve"/>
      <point x="496" y="529"/>
    </contour>
  </outline>
</glyph>
<glyph name="c" format="2">
  <advance width="628"/>
  <unicode hex="0063"/>
  <anchor x="317" y="0" name="bottom"/>
  <anchor x="317" y="540" name="top"/>
  <outline>
    <contour>
      <point x="60" y="444"/>
      <point x="60" y="270" type="curve"/>
      <point x="60" y="96"/>
      <point x="170" y="-7"/>
      <point x="320" y="-7" type="curve" smooth="yes"/>
      <point x="460" y="-7"/>
      <point x="550" y="72"/>
      <point x="568" y="183" type="curve"/>
      <point x="548" y="183" type="line"/>
      <point x="531" y="76"/>
      <point x="440" y="11"/>
      <point x="320" y="11" type="curve" smooth="yes"/>
      <point x="196" y="11"/>
      <point x="80" y="91"/>
      <point x="80" y="270" type="curve"/>
      <point x="80" y="449"/>
      <point x="196" y="529"/>
      <point x="320" y="529" type="curve" smooth="yes"/>
      <point x="440" y="529"/>
      <point x="531" y="464"/>
      <point x="548" y="357" type="curve"/>
      <point x="568" y="357" type="line"/>
      <point x="550" y="468"/>
      <point x="460" y="547"/>
      <point x="320" y="547" type="curve" smooth="yes"/>
      <point x="170" y="547"/>
    </contour>
  </outline>
</glyph>
<glyph name="e" format="2">
  <advance width="628"/>
  <unicode hex="0065"/>
  <anchor x="314" y="0" name="bottom"/>
  <anchor x="428" y="12" name="ogonek"/>
  <anchor x="314" y="540" name="top"/>
  <outline>
    <contour>
      <point x="70" y="279" type="line"/>
      <point x="70" y="261" type="line"/>
      <point x="567" y="261" type="line"/>
      <point x="568" y="279"/>
      <point x="568" y="289"/>
      <point x="568" y="315" type="curve" smooth="yes"/>
      <point x="568" y="428"/>
      <point x="485" y="547"/>
      <point x="320" y="547" type="curve" smooth="yes"/>
      <point x="170" y="547"/>
      <point x="60" y="444"/>
      <point x="60" y="270" type="curve"/>
      <point x="60" y="96"/>
      <point x="170" y="-7"/>
      <point x="320" y="-7" type="curve" smooth="yes"/>
      <point x="460" y="-7"/>
      <point x="550" y="72"/>
      <point x="568" y="183" type="curve"/>
      <point x="548" y="183" type="line"/>
      <point x="531" y="76"/>
      <point x="440" y="11"/>
      <point x="320" y="11" type="curve" smooth="yes"/>
      <point x="197" y="11"/>
      <point x="80" y="90"/>
      <point x="80" y="267" type="curve" smooth="yes"/>
      <point x="80" y="275" type="line" smooth="yes"/>
      <point x="80" y="451"/>
      <point x="197" y="529"/>
      <point x="320" y="529" type="curve" smooth="yes"/>
      <point x="440" y="529"/>
      <point x="560" y="453"/>
      <point x="550" y="279" type="curve"/>
    </contour>
  </outline>
</glyph>
<glyph name="f" format="2">
  <advance width="318"/>
  <unicode hex="0066"/>
  <outline>
    <contour>
      <point x="108" y="578" type="curve" smooth="yes"/>
      <point x="108" y="0" type="line"/>
      <point x="128" y="0" type="line"/>
      <point x="128" y="578" type="line" smooth="yes"/>
      <point x="128" y="675"/>
      <point x="164" y="720"/>
      <point x="283" y="720" type="curve"/>
      <point x="283" y="740" type="line"/>
      <point x="152" y="740"/>
      <point x="108" y="683"/>
    </contour>
    <contour>
      <point x="20" y="540" type="line"/>
      <point x="20" y="519" type="line"/>
      <point x="283" y="519" type="line"/>
      <point x="283" y="540" type="line"/>
    </contour>
  </outline>
</glyph>
<glyph name="g" format="2">
  <advance width="671"/>
  <unicode hex="0067"/>
  <anchor x="339" y="540" name="top"/>
  <outline>
    <contour>
      <point x="323" y="547" type="curve"/>
      <point x="168" y="547"/>
      <point x="60" y="442"/>
      <point x="60" y="270" type="curve"/>
      <point x="60" y="98"/>
      <point x="168" y="-7"/>
      <point x="323" y="-7" type="curve"/>
      <point x="452" y="-7"/>
      <point x="539" y="69"/>
      <point x="567" y="164" type="curve"/>
      <point x="567" y="-20" type="line"/>
      <point x="567" y="-159"/>
      <point x="470" y="-246"/>
      <point x="347" y="-246" type="curve" smooth="yes"/>
      <point x="222" y="-246"/>
      <point x="145" y="-181"/>
      <point x="116" y="-88" type="curve"/>
      <point x="96" y="-88" type="line"/>
      <point x="127" y="-192"/>
      <point x="213" y="-264"/>
      <point x="347" y="-264" type="curve" smooth="yes"/>
      <point x="472" y="-264"/>
      <point x="586" y="-176"/>
      <point x="586" y="-20" type="curve"/>
      <point x="586" y="540" type="line"/>
      <point x="567" y="540" type="line"/>
      <point x="567" y="377" type="line"/>
      <point x="539" y="471"/>
      <point x="452" y="547"/>
    </contour>
    <contour>
      <point x="567" y="426"/>
      <point x="567" y="270" type="curve"/>
      <point x="567" y="114"/>
      <point x="464" y="11"/>
      <point x="323" y="11" type="curve"/>
      <point x="175" y="11"/>
      <point x="80" y="109"/>
      <point x="80" y="270" type="curve"/>
      <point x="80" y="431"/>
      <point x="175" y="529"/>
      <point x="323" y="529" type="curve"/>
      <point x="464" y="529"/>
    </contour>
  </outline>
</glyph>
<glyph name="i" format="2">
  <advance width="190"/>
  <unicode hex="0069"/>
  <anchor x="105" y="0" name="ogonek"/>
  <outline>
    <contour>
      <point x="85" y="540" type="line"/>
      <point x="85" y="0" type="line"/>
      <point x="105" y="0" type="line"/>
      <point x="105" y="540" type="line"/>
    </contour>
    <contour>
      <point x="81" y="678"/>
      <point x="95" y="678" type="curve"/>
      <point x="109" y="678"/>
      <point x="121" y="688"/>
      <point x="121" y="705" type="curve" smooth="yes"/>
      <point x="121" y="722"/>
      <point x="109" y="732"/>
      <point x="95" y="732" type="curve"/>
      <point x="81" y="732"/>
      <point x="69" y="722"/>
      <point x="69" y="705" type="curve" smooth="yes"/>
      <point x="69" y="688"/>
    </contour>
  </outline>
</glyph>
<glyph name="j" format="2">
  <advance width="200"/>
  <unicode hex="006A"/>
  <outline>
    <contour>
      <point x="91" y="678"/>
      <point x="105" y="678" type="curve"/>
      <point x="119" y="678"/>
      <point x="131" y="688"/>
      <point x="131" y="705" type="curve" smooth="yes"/>
      <point x="131" y="722"/>
      <point x="119" y="732"/>
      <point x="105" y="732" type="curve"/>
      <point x="91" y="732"/>
      <point x="79" y="722"/>
      <point x="79" y="705" type="curve" smooth="yes"/>
      <point x="79" y="688"/>
    </contour>
    <contour>
      <point x="115" y="540" type="line"/>
      <point x="95" y="540" type="line"/>
      <point x="95" y="-146" type="line" smooth="yes"/>
      <point x="95" y="-214"/>
      <point x="67" y="-234"/>
      <point x="11" y="-234" type="curve" smooth="yes"/>
      <point x="-25" y="-234" type="line"/>
      <point x="-25" y="-254" type="line"/>
      <point x="11" y="-254" type="line" smooth="yes"/>
      <point x="89" y="-254"/>
      <point x="115" y="-213"/>
      <point x="115" y="-152" type="curve" smooth="yes"/>
    </contour>
  </outline>
</glyph>
<glyph name="k" format="2">
  <advance width="395"/>
  <unicode hex="006B"/>
  <anchor x="204" y="0" name="bottom"/>
  <outline>
    <contour>
      <point x="85" y="740" type="line"/>
      <point x="85" y="0" type="line"/>
      <point x="105" y="0" type="line"/>
      <point x="105" y="740" type="line"/>
    </contour>
    <contour>
      <point x="349" y="540" type="line"/>
      <point x="85" y="273" type="line"/>
      <point x="354" y="0" type="line"/>
      <point x="382" y="0" type="line"/>
      <point x="90" y="295" type="line"/>
      <point x="96" y="256" type="line"/>
      <point x="378" y="540" type="line"/>
    </contour>
  </outline>
</glyph>
<glyph name="l" format="2">
  <advance width="190"/>
  <unicode hex="006C"/>
  <anchor x="95" y="0" name="bottom"/>
  <anchor x="95" y="10" name="commaaccent"/>
  <anchor x="95" y="740" name="top"/>
  <anchor x="160" y="540" name="topright"/>
  <outline>
    <contour>
      <point x="85" y="740" type="line"/>
      <point x="85" y="0" type="line"/>
      <point x="105" y="0" type="line"/>
      <point x="105" y="740" type="line"/>
    </contour>
  </outline>
</glyph>
<glyph name="o" format="2">
  <advance width="647"/>
  <unicode hex="006F"/>
  <anchor x="327" y="540" name="top"/>
  <outline>
    <contour>
      <point x="324" y="-7" type="curve"/>
      <point x="474" y="-7"/>
      <point x="587" y="96"/>
      <point x="587" y="270" type="curve"/>
      <point x="587" y="444"/>
      <point x="474" y="547"/>
      <point x="324" y="547" type="curve"/>
      <point x="174" y="547"/>
      <point x="60" y="444"/>
      <point x="60" y="270" type="curve"/>
      <point x="60" y="96"/>
      <point x="174" y="-7"/>
    </contour>
    <contour>
      <point x="324" y="11" type="curve"/>
      <point x="200" y="11"/>
      <point x="80" y="91"/>
      <point x="80" y="270" type="curve"/>
      <point x="80" y="449"/>
      <point x="200" y="529"/>
      <point x="324" y="529" type="curve"/>
      <point x="448" y="529"/>
      <point x="567" y="449"/>
      <point x="567" y="270" type="curve"/>
      <point x="567" y="91"/>
      <point x="448" y="11"/>
    </contour>
  </outline>
</glyph>
<glyph name="r" format="2">
  <advance width="338"/>
  <unicode hex="0072"/>
  <anchor x="100" y="0" name="bottom"/>
  <anchor x="200" y="540" name="top"/>
  <outline>
    <contour>
      <point x="98" y="341" type="curve"/>
      <point x="105" y="321" type="line"/>
      <point x="105" y="481"/>
      <point x="212" y="530"/>
      <point x="309" y="530" type="curve" smooth="yes"/>
      <point x="318" y="530" type="line"/>
      <point x="318" y="552" type="line"/>
      <point x="171" y="552"/>
      <point x="98" y="479"/>
    </contour>
    <contour>
      <point x="85" y="540" type="line"/>
      <point x="85" y="0" type="line"/>
      <point x="105" y="0" type="line"/>
      <point x="105" y="540" type="line"/>
    </contour>
  </outline>
</glyph>
<glyph name="s" format="2">
  <advance width="483"/>
  <unicode hex="0073"/>
  <anchor x="244" y="0" name="bottom"/>
  <anchor x="244" y="540" name="top"/>
  <outline>
    <contour>
      <point x="259" y="-7" type="curve" smooth="yes"/>
      <point x="353" y="-7"/>
      <point x="426" y="53"/>
      <point x="426" y="135" type="curve"/>
      <point x="426" y="322"/>
      <point x="89" y="223"/>
      <point x="89" y="412" type="curve"/>
      <point x="89" y="474"/>
      <point x="152" y="529"/>
      <point x="238" y="529" type="curve" smooth="yes"/>
      <point x="346" y="529"/>
      <point x="400" y="468"/>
      <point x="404" y="392" type="curve"/>
      <point x="424" y="392" type="line"/>
      <point x="418" y="490"/>
      <point x="346" y="547"/>
      <point x="238" y="547" type="curve" smooth="yes"/>
      <point x="140" y="547"/>
      <point x="69" y="484"/>
      <point x="69" y="412" type="curve"/>
      <point x="69" y="204"/>
      <point x="407" y="301"/>
      <point x="407" y="135" type="curve"/>
      <point x="407" y="69"/>
      <point x="351" y="11"/>
      <point x="260" y="11" type="curve" smooth="yes"/>
      <point x="142" y="11"/>
      <point x="80" y="60"/>
      <point x="72" y="138" type="curve"/>
      <point x="52" y="138" type="line"/>
      <point x="64" y="37"/>
      <point x="145" y="-7"/>
    </contour>
  </outline>
</glyph>
<glyph name="t" format="2">
  <advance width="338"/>
  <unicode hex="0074"/>
  <anchor x="158" y="0" name="bottom"/>
  <anchor x="140" y="726" name="topright"/>
  <outline>
    <contour>
      <point x="108" y="678" type="line"/>
      <point x="108" y="142" type="line" smooth="yes"/>
      <point x="108" y="37"/>
      <point x="147" y="0"/>
      <point x="239" y="0" type="curve" smooth="yes"/>
      <point x="298" y="0" type="line"/>
      <point x="298" y="20" type="line"/>
      <point x="241" y="20" type="line" smooth="yes"/>
      <point x="159" y="20"/>
      <point x="128" y="45"/>
      <point x="128" y="142" type="curve" smooth="yes"/>
      <point x="128" y="678" type="line"/>
    </contour>
    <contour>
      <point x="20" y="520" type="line"/>
      <point x="298" y="520" type="line"/>
      <point x="298" y="540" type="line"/>
      <point x="20" y="540" type="line"/>
    </contour>
  </outline>
</glyph>
<glyph name="u" format="2">
  <advance width="614"/>
  <unicode hex="0075"/>
  <anchor x="529" y="0" name="ogonek"/>
  <anchor x="308" y="540" name="top"/>
  <outline>
    <contour>
      <point x="529" y="0" type="line"/>
      <point x="529" y="540" type="line"/>
      <point x="509" y="540" type="line"/>
      <point x="509" y="0" type="line"/>
    </contour>
    <contour>
      <point x="99" y="225" type="curve" smooth="yes"/>
      <point x="99" y="540" type="line"/>
      <point x="80" y="540" type="line"/>
      <point x="80" y="227" type="line" smooth="yes"/>
      <point x="80" y="60"/>
      <point x="179" y="-10"/>
      <point x="297" y="-10" type="curve"/>
      <point x="414" y="-10"/>
      <point x="511" y="58"/>
      <point x="516" y="202" type="curve"/>
      <point x="509" y="255" type="line"/>
      <point x="509" y="86"/>
      <point x="420" y="8"/>
      <point x="297" y="8" type="curve"/>
      <point x="178" y="8"/>
      <point x="99" y="81"/>
    </contour>
  </outline>
</glyph>
<glyph name="v" format="2">
  <advance width="515"/>
  <unicode hex="0076"/>
  <outline>
    <contour>
      <point x="42" y="540" type="line"/>
      <point x="20" y="540" type="line"/>
      <point x="250" y="0" type="line"/>
      <point x="265" y="0" type="line"/>
      <point x="495" y="540" type="line"/>
      <point x="474" y="540" type="line"/>
      <point x="258" y="30" type="line"/>
    </contour>
  </outline>
</glyph>
<glyph name="w" format="2">
  <advance width="803"/>
  <unicode hex="0077"/>
  <outline>
    <contour>
      <point x="20" y="540" type="line"/>
      <point x="190" y="0" type="line"/>
      <point x="205" y="0" type="line"/>
      <point x="411" y="528" type="line"/>
      <point x="391" y="530" type="line"/>
      <point x="598" y="0" type="line"/>
      <point x="613" y="0" type="line"/>
      <point x="783" y="540" type="line"/>
      <point x="762" y="540" type="line"/>
      <point x="597" y="13" type="line"/>
      <point x="613" y="13" type="line"/>
      <point x="409" y="540" type="line"/>
      <point x="394" y="540" type="line"/>
      <point x="190" y="13" type="line"/>
      <point x="206" y="13" type="line"/>
      <point x="41" y="540" type="line"/>
    </contour>
  </outline>
</glyph>
<glyph name="x" format="2">
  <advance width="416"/>
  <unicode hex="0078"/>
  <outline>
    <contour>
      <point x="24" y="540" type="line"/>
      <point x="372" y="0" type="line"/>
      <point x="395" y="0" type="line"/>
      <point x="47" y="540" type="line"/>
    </contour>
    <contour>
      <point x="210" y="262" type="line"/>
      <point x="201" y="284" type="line"/>
      <point x="21" y="0" type="line"/>
      <point x="43" y="0" type="line"/>
    </contour>
    <contour>
      <point x="202" y="279" type="line"/>
      <point x="211" y="257" type="line"/>
      <point x="391" y="540" type="line"/>
      <point x="370" y="540" type="line"/>
    </contour>
  </outline>
</glyph>
<glyph name="y" format="2">
  <advance width="503"/>
  <unicode hex="0079"/>
  <guideline x="202" y="-129" angle="68.6724"/>
  <anchor x="253" y="540" name="top"/>
  <outline>
    <contour>
      <point x="463" y="540" type="line"/>
      <point x="262" y="21" type="line"/>
      <point x="40" y="540" type="line"/>
      <point x="20" y="540" type="line"/>
      <point x="252" y="-3" type="line"/>
      <point x="154" y="-254" type="line"/>
      <point x="175" y="-254" type="line"/>
      <point x="483" y="540" type="line"/>
    </contour>
  </outline>
</glyph>
<glyph name="z" format="2">
  <advance width="407"/>
  <unicode hex="007A"/>
  <anchor x="205" y="540" name="top"/>
  <outline>
    <contour>
      <point x="367" y="522" type="line"/>
      <point x="367" y="540" type="line"/>
      <point x="40" y="540" type="line"/>
      <point x="40" y="522" type="line"/>
      <point x="345" y="522" type="line"/>
      <point x="30" y="18" type="line"/>
      <point x="30" y="0" type="line"/>
      <point x="377" y="0" type="line"/>
      <point x="377" y="18" type="line"/>
      <point x="51" y="18" type="line"/>
    </contour>
  </outline>
</glyph>
<glyph name="braceleft" format="2">
  <advance width="295"/>
  <unicode hex="007B"/>
  <outline>
    <contour>
      <point x="40" y="360" type="line"/>
      <point x="148" y="326"/>
      <point x="153" y="259"/>
      <point x="153" y="214" type="curve" smooth="yes"/>
      <point x="153" y="130"/>
      <point x="124" y="46"/>
      <point x="124" y="-47" type="curve" smooth="yes"/>
      <point x="124" y="-147"/>
      <point x="177" y="-185"/>
      <point x="263" y="-185" type="curve" smooth="yes"/>
      <point x="294" y="-185" type="line"/>
      <point x="294" y="-167" type="line"/>
      <point x="263" y="-167" type="line" smooth="yes"/>
      <point x="189" y="-167"/>
      <point x="144" y="-135"/>
      <point x="144" y="-47" type="curve" smooth="yes"/>
      <point x="144" y="50"/>
      <point x="173" y="139"/>
      <point x="173" y="214" type="curve" smooth="yes"/>
      <point x="173" y="288"/>
      <point x="138" y="350"/>
      <point x="52" y="371" type="curve"/>
      <point x="52" y="373" type="line"/>
      <point x="138" y="394"/>
      <point x="173" y="456"/>
      <point x="173" y="530" type="curve" smooth="yes"/>
      <point x="173" y="605"/>
      <point x="144" y="694"/>
      <point x="144" y="791" type="curve" smooth="yes"/>
      <point x="144" y="879"/>
      <point x="189" y="911"/>
      <point x="263" y="911" type="curve" smooth="yes"/>
      <point x="294" y="911" type="line"/>
      <point x="294" y="929" type="line"/>
      <point x="263" y="929" type="line" smooth="yes"/>
      <point x="177" y="929"/>
      <point x="124" y="891"/>
      <point x="124" y="791" type="curve" smooth="yes"/>
      <point x="124" y="698"/>
      <point x="153" y="614"/>
      <point x="153" y="530" type="curve" smooth="yes"/>
      <point x="153" y="485"/>
      <point x="148" y="418"/>
      <point x="40" y="384" type="curve"/>
    </contour>
  </outline>
</glyph>
<glyph name="braceright" format="2">
  <advance width="295"/>
  <unicode hex="007D"/>
  <outline>
    <contour>
      <point x="255" y="360" type="curve"/>
      <point x="255" y="384" type="line"/>
      <point x="147" y="418"/>
      <point x="142" y="485"/>
      <point x="142" y="530" type="curve" smooth="yes"/>
      <point x="142" y="614"/>
      <point x="171" y="698"/>
      <point x="171" y="791" type="curve" smooth="yes"/>
      <point x="171" y="891"/>
      <point x="118" y="929"/>
      <point x="32" y="929" type="curve" smooth="yes"/>
      <point x="1" y="929" type="line"/>
      <point x="1" y="911" type="line"/>
      <point x="32" y="911" type="line" smooth="yes"/>
      <point x="106" y="911"/>
      <point x="151" y="879"/>
      <point x="151" y="791" type="curve" smooth="yes"/>
      <point x="151" y="694"/>
      <point x="122" y="605"/>
      <point x="122" y="530" type="curve" smooth="yes"/>
      <point x="122" y="456"/>
      <point x="157" y="394"/>
      <point x="243" y="373" type="curve"/>
      <point x="243" y="371" type="line"/>
      <point x="157" y="350"/>
      <point x="122" y="288"/>
      <point x="122" y="214" type="curve" smooth="yes"/>
      <point x="122" y="139"/>
      <point x="151" y="50"/>
      <point x="151" y="-47" type="curve" smooth="yes"/>
      <point x="151" y="-135"/>
      <point x="106" y="-167"/>
      <point x="32" y="-167" type="curve" smooth="yes"/>
      <point x="1" y="-167" type="line"/>
      <point x="1" y="-185" type="line"/>
      <point x="32" y="-185" type="line" smooth="yes"/>
      <point x="118" y="-185"/>
      <point x="171" y="-147"/>
      <point x="171" y="-47" type="curve" smooth="yes"/>
      <point x="171" y="46"/>
      <point x="142" y="130"/>
      <point x="142" y="214" type="curve" smooth="yes"/>
      <point x="142" y="259"/>
      <point x="147" y="326"/>
    </contour>
  </outline>
</glyph>
<glyph name="asciitilde" format="2">
  <advance width="412"/>
  <unicode hex="007E"/>
  <outline>
    <contour>
      <point x="50" y="331"/>
      <point x="40" y="279" type="curve"/>
      <point x="60" y="279" type="line"/>
      <point x="66" y="314"/>
      <point x="86" y="349"/>
      <point x="124" y="349" type="curve" smooth="yes"/>
      <point x="183" y="349"/>
      <point x="223" y="279"/>
      <point x="289" y="279" type="curve" smooth="yes"/>
      <point x="342" y="279"/>
      <point x="365" y="315"/>
      <point x="372" y="367" type="curve"/>
      <point x="352" y="367" type="line"/>
      <point x="348" y="332"/>
      <point x="330" y="298"/>
      <point x="289" y="298" type="curve" smooth="yes"/>
      <point x="235" y="298"/>
      <point x="192" y="367"/>
      <point x="125" y="367" type="curve" smooth="yes"/>
      <point x="75" y="367"/>
    </contour>
  </outline>
</glyph>
<glyph name="cent" format="2">
  <advance width="588"/>
  <unicode hex="00A2"/>
  <outline>
    <contour>
      <point x="186" y="499"/>
      <point x="300" y="499" type="curve" smooth="yes"/>
      <point x="409" y="499"/>
      <point x="491" y="434"/>
      <point x="508" y="327" type="curve"/>
      <point x="528" y="327" type="line"/>
      <point x="510" y="438"/>
      <point x="429" y="517"/>
      <point x="300" y="517" type="curve" smooth="yes"/>
      <point x="162" y="517"/>
      <point x="60" y="425"/>
      <point x="60" y="270" type="curve"/>
      <point x="60" y="115"/>
      <point x="162" y="23"/>
      <point x="300" y="23" type="curve" smooth="yes"/>
      <point x="429" y="23"/>
      <point x="510" y="102"/>
      <point x="528" y="213" type="curve"/>
      <point x="508" y="213" type="line"/>
      <point x="491" y="106"/>
      <point x="409" y="41"/>
      <point x="300" y="41" type="curve" smooth="yes"/>
      <point x="186" y="41"/>
      <point x="80" y="112"/>
      <point x="80" y="270" type="curve"/>
      <point x="80" y="428"/>
    </contour>
    <contour>
      <point x="282" y="623" type="line"/>
      <point x="282" y="504" type="line"/>
      <point x="302" y="504" type="line"/>
      <point x="302" y="623" type="line"/>
    </contour>
    <contour>
      <point x="282" y="26" type="line"/>
      <point x="282" y="-93" type="line"/>
      <point x="302" y="-93" type="line"/>
      <point x="302" y="26" type="line"/>
    </contour>
  </outline>
</glyph>
<glyph name="sterling" format="2">
  <advance width="540"/>
  <unicode hex="00A3"/>
  <outline>
    <contour>
      <point x="304" y="711" type="curve" smooth="yes"/>
      <point x="189" y="711"/>
      <point x="116" y="630"/>
      <point x="116" y="524" type="curve" smooth="yes"/>
      <point x="116" y="396"/>
      <point x="194" y="315"/>
      <point x="194" y="202" type="curve" smooth="yes"/>
      <point x="194" y="123"/>
      <point x="153" y="76"/>
      <point x="107" y="19" type="curve"/>
      <point x="111" y="0" type="line"/>
      <point x="504" y="0" type="line"/>
      <point x="504" y="20" type="line"/>
      <point x="128" y="20" type="line"/>
      <point x="183" y="80"/>
      <point x="212" y="132"/>
      <point x="212" y="207" type="curve"/>
      <point x="212" y="318"/>
      <point x="136" y="404"/>
      <point x="136" y="524" type="curve" smooth="yes"/>
      <point x="136" y="642"/>
      <point x="219" y="693"/>
      <point x="304" y="693" type="curve" smooth="yes"/>
      <point x="408" y="693"/>
      <point x="480" y="619"/>
      <point x="490" y="521" type="curve"/>
      <point x="510" y="521" type="line"/>
      <point x="497" y="625"/>
      <point x="426" y="711"/>
    </contour>
    <contour>
      <point x="373" y="345" type="line"/>
      <point x="50" y="345" type="line"/>
      <point x="50" y="328" type="line"/>
      <point x="373" y="328" type="line"/>
    </contour>
  </outline>
</glyph>
<glyph name="currency" format="2">
  <advance width="501"/>
  <unicode hex="00A4"/>
  <outline>
    <contour>
      <point x="250" y="549" type="curve" smooth="yes"/>
      <point x="166" y="549"/>
      <point x="100" y="480"/>
      <point x="100" y="377" type="curve" smooth="yes"/>
      <point x="100" y="273"/>
      <point x="164.138" y="205"/>
      <point x="250" y="205" type="curve" smooth="yes"/>
      <point x="330.34" y="205"/>
      <point x="401" y="273"/>
      <point x="401" y="377" type="curve" smooth="yes"/>
      <point x="401" y="480"/>
      <point x="329.372" y="549"/>
    </contour>
    <contour>
      <point x="250" y="531" type="curve" smooth="yes"/>
      <point x="319" y="531"/>
      <point x="381" y="472"/>
      <point x="381" y="377" type="curve" smooth="yes"/>
      <point x="381" y="280"/>
      <point x="318.39" y="223"/>
      <point x="250" y="223" type="curve" smooth="yes"/>
      <point x="176.16" y="223"/>
      <point x="120" y="280"/>
      <point x="120" y="377" type="curve" smooth="yes"/>
      <point x="120" y="472"/>
      <point x="176.16" y="531"/>
    </contour>
    <contour>
      <point x="145" y="482" type="line"/>
      <point x="150" y="502" type="line"/>
      <point x="86" y="566" type="line"/>
      <point x="72" y="553" type="line"/>
    </contour>
    <contour>
      <point x="349" y="502" type="line"/>
      <point x="354" y="482" type="line"/>
      <point x="427" y="553" type="line"/>
      <point x="413" y="566" type="line"/>
    </contour>
    <contour>
      <point x="354" y="274" type="line"/>
      <point x="349" y="254" type="line"/>
      <point x="413" y="190" type="line"/>
      <point x="427" y="203" type="line"/>
    </contour>
    <contour>
      <point x="150" y="254" type="line"/>
      <point x="145" y="274" type="line"/>
      <point x="72" y="203" type="line"/>
      <point x="86" y="190" type="line"/>
    </contour>
  </outline>
</glyph>
<glyph name="yen" format="2">
  <advance width="563"/>
  <unicode hex="00A5"/>
  <outline>
    <contour>
      <point x="308" y="346" type="line"/>
      <point x="300" y="328" type="line"/>
      <point x="495" y="328" type="line"/>
      <point x="495" y="346" type="line"/>
    </contour>
    <contour>
      <point x="75" y="229" type="line"/>
      <point x="75" y="209" type="line"/>
      <point x="495" y="209" type="line"/>
      <point x="495" y="229" type="line"/>
    </contour>
    <contour>
      <point x="55" y="704" type="line"/>
      <point x="275" y="295" type="line"/>
      <point x="275" y="0" type="line"/>
      <point x="295" y="0" type="line"/>
      <point x="295" y="295" type="line"/>
      <point x="513" y="704" type="line"/>
      <point x="489" y="704" type="line"/>
      <point x="280" y="309" type="line"/>
      <point x="289" y="309" type="line"/>
      <point x="79" y="704" type="line"/>
    </contour>
    <contour>
      <point x="75" y="346" type="line"/>
      <point x="75" y="328" type="line"/>
      <point x="269" y="328" type="line"/>
      <point x="261" y="346" type="line"/>
    </contour>
  </outline>
</glyph>
<glyph name="brokenbar" format="2">
  <advance width="190"/>
  <unicode hex="00A6"/>
  <outline>
    <contour>
      <point x="105" y="265" type="line"/>
      <point x="85" y="265" type="line"/>
      <point x="85" y="-86" type="line"/>
      <point x="105" y="-86" type="line"/>
    </contour>
    <contour>
      <point x="85" y="428" type="line"/>
      <point x="105" y="428" type="line"/>
      <point x="105" y="778" type="line"/>
      <point x="85" y="778" type="line"/>
    </contour>
  </outline>
</glyph>
<glyph name="section" format="2">
  <advance width="566"/>
  <unicode hex="00A7"/>
  <outline>
    <contour>
      <point x="83" y="693"/>
      <point x="83" y="620" type="curve" smooth="yes"/>
      <point x="83" y="517"/>
      <point x="202" y="483"/>
      <point x="292" y="465" type="curve"/>
      <point x="292" y="461" type="line"/>
      <point x="143" y="475"/>
      <point x="60" y="388"/>
      <point x="60" y="300" type="curve"/>
      <point x="60" y="180"/>
      <point x="167" y="143"/>
      <point x="292" y="114" type="curve" smooth="yes"/>
      <point x="416" y="85"/>
      <point x="463" y="48"/>
      <point x="463" y="-17" type="curve" smooth="yes"/>
      <point x="463" y="-94"/>
      <point x="400" y="-129"/>
      <point x="312" y="-129" type="curve"/>
      <point x="176" y="-129"/>
      <point x="125" y="-52"/>
      <point x="115" y="19" type="curve"/>
      <point x="95" y="19" type="line"/>
      <point x="110" y="-87"/>
      <point x="194" y="-147"/>
      <point x="312" y="-147" type="curve"/>
      <point x="421" y="-147"/>
      <point x="483" y="-91"/>
      <point x="483" y="-17" type="curve" smooth="yes"/>
      <point x="483" y="84"/>
      <point x="369" y="117"/>
      <point x="274" y="135" type="curve"/>
      <point x="274" y="139" type="line"/>
      <point x="423" y="125"/>
      <point x="506" y="212"/>
      <point x="506" y="300" type="curve"/>
      <point x="506" y="420"/>
      <point x="399" y="457"/>
      <point x="274" y="486" type="curve" smooth="yes"/>
      <point x="150" y="515"/>
      <point x="103" y="554"/>
      <point x="103" y="620" type="curve" smooth="yes"/>
      <point x="103" y="695"/>
      <point x="168" y="729"/>
      <point x="259" y="729" type="curve"/>
      <point x="392" y="729"/>
      <point x="445" y="645"/>
      <point x="451" y="581" type="curve"/>
      <point x="471" y="581" type="line"/>
      <point x="456" y="687"/>
      <point x="375" y="747"/>
      <point x="259" y="747" type="curve"/>
      <point x="147" y="747"/>
    </contour>
    <contour>
      <point x="486" y="387"/>
      <point x="486" y="300" type="curve"/>
      <point x="486" y="223"/>
      <point x="418" y="153"/>
      <point x="286" y="153" type="curve" smooth="yes"/>
      <point x="155" y="153"/>
      <point x="80" y="213"/>
      <point x="80" y="300" type="curve"/>
      <point x="80" y="377"/>
      <point x="148" y="447"/>
      <point x="280" y="447" type="curve" smooth="yes"/>
      <point x="411" y="447"/>
    </contour>
  </outline>
</glyph>
<glyph name="dieresis" format="2">
  <advance width="319"/>
  <unicode hex="00A8"/>
  <anchor x="159" y="540" name="_top"/>
  <outline>
    <contour>
      <point x="76" y="627"/>
      <point x="93" y="627" type="curve" smooth="yes"/>
      <point x="109" y="627"/>
      <point x="123" y="641"/>
      <point x="123" y="657" type="curve" smooth="yes"/>
      <point x="123" y="673"/>
      <point x="109" y="687"/>
      <point x="93" y="687" type="curve" smooth="yes"/>
      <point x="76" y="687"/>
      <point x="63" y="673"/>
      <point x="63" y="657" type="curve" smooth="yes"/>
      <point x="63" y="641"/>
    </contour>
    <contour>
      <point x="210" y="627"/>
      <point x="227" y="627" type="curve" smooth="yes"/>
      <point x="243" y="627"/>
      <point x="256" y="641"/>
      <point x="256" y="657" type="curve" smooth="yes"/>
      <point x="256" y="673"/>
      <point x="243" y="687"/>
      <point x="227" y="687" type="curve" smooth="yes"/>
      <point x="210" y="687"/>
      <point x="197" y="673"/>
      <point x="197" y="657" type="curve" smooth="yes"/>
      <point x="197" y="641"/>
    </contour>
  </outline>
</glyph>
<glyph name="copyright" format="2">
  <advance width="803"/>
  <unicode hex="00A9"/>
  <outline>
    <contour>
      <point x="402" y="702" type="curve" smooth="yes"/>
      <point x="199" y="702"/>
      <point x="60" y="557"/>
      <point x="60" y="352" type="curve"/>
      <point x="60" y="147"/>
      <point x="199" y="2"/>
      <point x="402" y="2" type="curve" smooth="yes"/>
      <point x="605" y="2"/>
      <point x="743" y="147"/>
      <point x="743" y="352" type="curve"/>
      <point x="743" y="557"/>
      <point x="605" y="702"/>
    </contour>
    <contour>
      <point x="402" y="683" type="curve" smooth="yes"/>
      <point x="599" y="683"/>
      <point x="723" y="542"/>
      <point x="723" y="352" type="curve"/>
      <point x="723" y="162"/>
      <point x="599" y="21"/>
      <point x="402" y="21" type="curve" smooth="yes"/>
      <point x="204" y="21"/>
      <point x="80" y="162"/>
      <point x="80" y="352" type="curve"/>
      <point x="80" y="542"/>
      <point x="204" y="683"/>
    </contour>
    <contour>
      <point x="405" y="590" type="curve"/>
      <point x="496" y="590"/>
      <point x="580" y="537"/>
      <point x="608" y="435" type="curve"/>
      <point x="587" y="435" type="line"/>
      <point x="559" y="525"/>
      <point x="484" y="571"/>
      <point x="405" y="571" type="curve"/>
      <point x="305" y="571"/>
      <point x="211" y="497"/>
      <point x="211" y="351" type="curve"/>
      <point x="211" y="207"/>
      <point x="305" y="133"/>
      <point x="405" y="133" type="curve"/>
      <point x="484" y="133"/>
      <point x="559" y="179"/>
      <point x="587" y="269" type="curve"/>
      <point x="608" y="269" type="line"/>
      <point x="580" y="167"/>
      <point x="496" y="114"/>
      <point x="405" y="114" type="curve"/>
      <point x="292" y="114"/>
      <point x="191" y="195"/>
      <point x="191" y="353" type="curve"/>
      <point x="191" y="509"/>
      <point x="292" y="590"/>
    </contour>
  </outline>
</glyph>
<glyph name="ordfeminine" format="2">
  <advance width="433"/>
  <unicode hex="00AA"/>
  <outline>
    <contour>
      <point x="40" y="528" type="curve"/>
      <point x="40" y="421.045"/>
      <point x="104" y="347"/>
      <point x="202" y="347" type="curve" smooth="yes"/>
      <point x="281" y="347"/>
      <point x="333" y="390"/>
      <point x="351" y="456" type="curve"/>
      <point x="351" y="354" type="line"/>
      <point x="371" y="354" type="line"/>
      <point x="371" y="703" type="line"/>
      <point x="351" y="703" type="line"/>
      <point x="351" y="600" type="line"/>
      <point x="333" y="666"/>
      <point x="281" y="709"/>
      <point x="202" y="709" type="curve" smooth="yes"/>
      <point x="104" y="709"/>
      <point x="40" y="634.955"/>
    </contour>
    <contour>
      <point x="60" y="528" type="curve"/>
      <point x="60" y="628.07"/>
      <point x="120" y="691"/>
      <point x="202" y="691" type="curve" smooth="yes"/>
      <point x="290" y="691"/>
      <point x="351" y="627"/>
      <point x="351" y="528" type="curve"/>
      <point x="351" y="429"/>
      <point x="290" y="365"/>
      <point x="202" y="365" type="curve" smooth="yes"/>
      <point x="120" y="365"/>
      <point x="60" y="427.93"/>
    </contour>
  </outline>
</glyph>
<glyph name="guillemotleft" format="2">
  <advance width="374"/>
  <unicode hex="00AB"/>
  <outline>
    <contour>
      <point x="179" y="120" type="line"/>
      <point x="70" y="295" type="line"/>
      <point x="179" y="470" type="line"/>
      <point x="152" y="470" type="line"/>
      <point x="45" y="295" type="line"/>
      <point x="152" y="120" type="line"/>
    </contour>
    <contour>
      <point x="324" y="120" type="line"/>
      <point x="215" y="295" type="line"/>
      <point x="324" y="470" type="line"/>
      <point x="297" y="470" type="line"/>
      <point x="190" y="295" type="line"/>
      <point x="297" y="120" type="line"/>
    </contour>
  </outline>
</glyph>
<glyph name="logicalnot" format="2">
  <advance width="654"/>
  <unicode hex="00AC"/>
  <outline>
    <contour>
      <point x="55" y="424" type="line"/>
      <point x="55" y="404" type="line"/>
      <point x="591" y="404" type="line"/>
      <point x="591" y="255" type="line"/>
      <point x="609" y="255" type="line"/>
      <point x="609" y="424" type="line"/>
    </contour>
  </outline>
</glyph>
<glyph name="registered" format="2">
  <advance width="486"/>
  <unicode hex="00AE"/>
  <guideline x="457" y="344" angle="0"/>
  <outline>
    <contour>
      <point x="58" y="520" type="curve" smooth="yes"/>
      <point x="58" y="413"/>
      <point x="134" y="329"/>
      <point x="243" y="329" type="curve" smooth="yes"/>
      <point x="352" y="329"/>
      <point x="428" y="413"/>
      <point x="428" y="520" type="curve" smooth="yes"/>
      <point x="428" y="627"/>
      <point x="352" y="711"/>
      <point x="243" y="711" type="curve" smooth="yes"/>
      <point x="134" y="711"/>
      <point x="58" y="627"/>
    </contour>
    <contour>
      <point x="78" y="520" type="curve" smooth="yes"/>
      <point x="78" y="617"/>
      <point x="145" y="692"/>
      <point x="243" y="692" type="curve" smooth="yes"/>
      <point x="341" y="692"/>
      <point x="408" y="617"/>
      <point x="408" y="520" type="curve" smooth="yes"/>
      <point x="408" y="423"/>
      <point x="341" y="348"/>
      <point x="243" y="348" type="curve" smooth="yes"/>
      <point x="145" y="348"/>
      <point x="78" y="423"/>
    </contour>
    <contour>
      <point x="259" y="627" type="line" smooth="yes"/>
      <point x="300" y="627"/>
      <point x="325" y="606"/>
      <point x="325" y="568" type="curve" smooth="yes"/>
      <point x="325" y="531"/>
      <point x="300" y="508"/>
      <point x="259" y="508" type="curve" smooth="yes"/>
      <point x="196" y="508" type="line"/>
      <point x="196" y="413" type="line"/>
      <point x="176" y="413" type="line"/>
      <point x="176" y="627" type="line"/>
    </contour>
    <contour>
      <point x="305" y="413" type="line"/>
      <point x="233" y="512" type="line"/>
      <point x="255" y="512" type="line"/>
      <point x="327" y="414" type="line"/>
    </contour>
    <contour>
      <point x="257" y="608" type="curve" smooth="yes"/>
      <point x="196" y="608" type="line"/>
      <point x="196" y="527" type="line"/>
      <point x="257" y="527" type="line" smooth="yes"/>
      <point x="285" y="527"/>
      <point x="305" y="539"/>
      <point x="305" y="568" type="curve" smooth="yes"/>
      <point x="305" y="597"/>
      <point x="285" y="608"/>
    </contour>
  </outline>
</glyph>
<glyph name="degree" format="2">
  <advance width="356"/>
  <unicode hex="00B0"/>
  <outline>
    <contour>
      <point x="30" y="622"/>
      <point x="30" y="519" type="curve"/>
      <point x="30" y="416"/>
      <point x="89" y="347"/>
      <point x="178" y="347" type="curve"/>
      <point x="267" y="347"/>
      <point x="326" y="416"/>
      <point x="326" y="519" type="curve"/>
      <point x="326" y="622"/>
      <point x="267" y="691"/>
      <point x="178" y="691" type="curve"/>
      <point x="89" y="691"/>
    </contour>
    <contour>
      <point x="306" y="616"/>
      <point x="306" y="519" type="curve"/>
      <point x="306" y="422"/>
      <point x="256" y="365"/>
      <point x="178" y="365" type="curve"/>
      <point x="100" y="365"/>
      <point x="50" y="422"/>
      <point x="50" y="519" type="curve"/>
      <point x="50" y="616"/>
      <point x="100" y="673"/>
      <point x="178" y="673" type="curve"/>
      <point x="256" y="673"/>
    </contour>
  </outline>
</glyph>
<glyph name="plusminus" format="2">
  <advance width="589"/>
  <unicode hex="00B1"/>
  <outline>
    <contour>
      <point x="304" y="635" type="line"/>
      <point x="284" y="635" type="line"/>
      <point x="284" y="165" type="line"/>
      <point x="304" y="165" type="line"/>
    </contour>
    <contour>
      <point x="40" y="409" type="line"/>
      <point x="40" y="391" type="line"/>
      <point x="549" y="391" type="line"/>
      <point x="549" y="409" type="line"/>
    </contour>
    <contour>
      <point x="40" y="109" type="line"/>
      <point x="40" y="91" type="line"/>
      <point x="549" y="91" type="line"/>
      <point x="549" y="109" type="line"/>
    </contour>
  </outline>
</glyph>
<glyph name="twosuperior" format="2">
  <advance width="301"/>
  <unicode hex="00B2"/>
  <outline>
    <contour>
      <point x="44" y="655"/>
      <point x="40" y="598" type="curve"/>
      <point x="60" y="598" type="line"/>
      <point x="66" y="657"/>
      <point x="98" y="689"/>
      <point x="151" y="689" type="curve" smooth="yes"/>
      <point x="193" y="689"/>
      <point x="229" y="666"/>
      <point x="229" y="610" type="curve" smooth="yes"/>
      <point x="229" y="550"/>
      <point x="190" y="511"/>
      <point x="154" y="475" type="curve" smooth="yes"/>
      <point x="40" y="362" type="line"/>
      <point x="40" y="352" type="line"/>
      <point x="261" y="352" type="line"/>
      <point x="261" y="370" type="line"/>
      <point x="59" y="370" type="line"/>
      <point x="64" y="362" type="line"/>
      <point x="160" y="454" type="line" smooth="yes"/>
      <point x="212" y="504"/>
      <point x="249" y="547"/>
      <point x="249" y="610" type="curve" smooth="yes"/>
      <point x="249" y="671"/>
      <point x="208" y="707"/>
      <point x="151" y="707" type="curve" smooth="yes"/>
      <point x="77" y="707"/>
    </contour>
  </outline>
</glyph>
<glyph name="threesuperior" format="2">
  <advance width="302"/>
  <unicode hex="00B3"/>
  <outline>
    <contour>
      <point x="50" y="668"/>
      <point x="41" y="619" type="curve"/>
      <point x="61" y="619" type="line"/>
      <point x="70" y="660"/>
      <point x="100" y="687"/>
      <point x="155" y="687" type="curve" smooth="yes"/>
      <point x="207" y="687"/>
      <point x="241" y="656"/>
      <point x="241" y="611" type="curve" smooth="yes"/>
      <point x="241" y="562"/>
      <point x="204" y="534"/>
      <point x="152" y="534" type="curve" smooth="yes"/>
      <point x="88" y="534" type="line"/>
      <point x="88" y="516" type="line"/>
      <point x="149" y="516" type="line" smooth="yes"/>
      <point x="202" y="516"/>
      <point x="242" y="489"/>
      <point x="242" y="439" type="curve" smooth="yes"/>
      <point x="242" y="394"/>
      <point x="210" y="365"/>
      <point x="152" y="365" type="curve" smooth="yes"/>
      <point x="105" y="365"/>
      <point x="67" y="382"/>
      <point x="60" y="444" type="curve"/>
      <point x="40" y="444" type="line"/>
      <point x="48" y="378"/>
      <point x="87" y="347"/>
      <point x="152" y="347" type="curve" smooth="yes"/>
      <point x="227" y="347"/>
      <point x="262" y="394"/>
      <point x="262" y="439" type="curve" smooth="yes"/>
      <point x="262" y="485"/>
      <point x="234" y="514"/>
      <point x="194" y="525" type="curve"/>
      <point x="194" y="527" type="line"/>
      <point x="239" y="539"/>
      <point x="261" y="571"/>
      <point x="261" y="611" type="curve" smooth="yes"/>
      <point x="261" y="669"/>
      <point x="215" y="707"/>
      <point x="155" y="707" type="curve" smooth="yes"/>
      <point x="87" y="707"/>
    </contour>
  </outline>
</glyph>
<glyph name="acute" format="2">
  <advance width="267"/>
  <unicode hex="00B4"/>
  <anchor x="147" y="540" name="_top"/>
  <outline>
    <contour>
      <point x="227" y="740" type="line"/>
      <point x="40" y="606" type="line"/>
      <point x="40" y="586" type="line"/>
      <point x="227" y="716" type="line"/>
    </contour>
  </outline>
</glyph>
<glyph name="micro" format="2">
  <advance width="619"/>
  <unicode hex="00B5"/>
  <outline>
    <contour>
      <point x="534" y="0" type="line"/>
      <point x="534" y="540" type="line"/>
      <point x="514" y="540" type="line"/>
      <point x="514" y="0" type="line"/>
    </contour>
    <contour>
      <point x="522" y="215" type="curve"/>
      <point x="514" y="253" type="line"/>
      <point x="514" y="84"/>
      <point x="430" y="6"/>
      <point x="314" y="6" type="curve"/>
      <point x="192" y="6"/>
      <point x="104" y="87"/>
      <point x="104" y="263" type="curve"/>
      <point x="104" y="540" type="line"/>
      <point x="85" y="540" type="line"/>
      <point x="85" y="-254" type="line"/>
      <point x="104" y="-254" type="line"/>
      <point x="104" y="182" type="line"/>
      <point x="97" y="181" type="line"/>
      <point x="121" y="31"/>
      <point x="221" y="-12"/>
      <point x="314" y="-12" type="curve"/>
      <point x="418" y="-12"/>
      <point x="517" y="55"/>
    </contour>
  </outline>
</glyph>
<glyph name="paragraph" format="2">
  <advance width="489"/>
  <unicode hex="00B6"/>
  <outline>
    <contour>
      <point x="404" y="684" type="line"/>
      <point x="255" y="684" type="line" smooth="yes"/>
      <point x="100" y="684"/>
      <point x="20" y="607"/>
      <point x="20" y="490" type="curve" smooth="yes"/>
      <point x="20" y="375"/>
      <point x="97" y="297"/>
      <point x="255" y="297" type="curve" smooth="yes"/>
      <point x="256" y="297" type="line"/>
      <point x="256" y="0" type="line"/>
      <point x="276" y="0" type="line"/>
      <point x="276" y="666" type="line"/>
      <point x="384" y="666" type="line"/>
      <point x="384" y="0" type="line"/>
      <point x="404" y="0" type="line"/>
    </contour>
  </outline>
</glyph>
<glyph name="cedilla" format="2">
  <advance width="249"/>
  <unicode hex="00B8"/>
  <anchor x="71" y="0" name="_bottom"/>
  <outline>
    <contour>
      <point x="83" y="-89" type="curve"/>
      <point x="83" y="7" type="line"/>
      <point x="63" y="7" type="line"/>
      <point x="63" y="-107" type="line"/>
      <point x="100" y="-107" type="line" smooth="yes"/>
      <point x="167" y="-107"/>
      <point x="189" y="-135"/>
      <point x="189" y="-168" type="curve" smooth="yes"/>
      <point x="189" y="-207"/>
      <point x="167" y="-235"/>
      <point x="100" y="-235" type="curve" smooth="yes"/>
      <point x="40" y="-235" type="line"/>
      <point x="40" y="-254" type="line"/>
      <point x="103" y="-254" type="line" smooth="yes"/>
      <point x="173" y="-254"/>
      <point x="209" y="-218"/>
      <point x="209" y="-168" type="curve" smooth="yes"/>
      <point x="209" y="-114"/>
      <point x="166" y="-84"/>
    </contour>
  </outline>
</glyph>
<glyph name="onesuperior" format="2">
  <advance width="154"/>
  <unicode hex="00B9"/>
  <outline>
    <contour>
      <point x="94" y="686" type="line"/>
      <point x="94" y="352" type="line"/>
      <point x="114" y="352" type="line"/>
      <point x="114" y="704" type="line"/>
      <point x="40" y="704" type="line"/>
      <point x="40" y="686" type="line"/>
    </contour>
  </outline>
</glyph>
<glyph name="ordmasculine" format="2">
  <advance width="412"/>
  <unicode hex="00BA"/>
  <outline>
    <contour>
      <point x="40" y="635"/>
      <point x="40" y="526" type="curve"/>
      <point x="40" y="417"/>
      <point x="111" y="343"/>
      <point x="207" y="343" type="curve"/>
      <point x="303" y="343"/>
      <point x="374" y="417"/>
      <point x="374" y="526" type="curve"/>
      <point x="374" y="635"/>
      <point x="303" y="709"/>
      <point x="207" y="709" type="curve"/>
      <point x="111" y="709"/>
    </contour>
    <contour>
      <point x="354" y="631"/>
      <point x="354" y="526" type="curve"/>
      <point x="354" y="421"/>
      <point x="289" y="363"/>
      <point x="207" y="363" type="curve"/>
      <point x="125" y="363"/>
      <point x="60" y="421"/>
      <point x="60" y="526" type="curve"/>
      <point x="60" y="631"/>
      <point x="125" y="689"/>
      <point x="207" y="689" type="curve"/>
      <point x="289" y="689"/>
    </contour>
  </outline>
</glyph>
<glyph name="guillemotright" format="2">
  <advance width="374"/>
  <unicode hex="00BB"/>
  <outline>
    <contour>
      <point x="195" y="120" type="line"/>
      <point x="223" y="120" type="line"/>
      <point x="329" y="295" type="line"/>
      <point x="223" y="470" type="line"/>
      <point x="195" y="470" type="line"/>
      <point x="305" y="295" type="line"/>
    </contour>
    <contour>
      <point x="50" y="120" type="line"/>
      <point x="78" y="120" type="line"/>
      <point x="184" y="295" type="line"/>
      <point x="78" y="470" type="line"/>
      <point x="50" y="470" type="line"/>
      <point x="160" y="295" type="line"/>
    </contour>
  </outline>
</glyph>
<glyph name="onehalf" format="2">
  <advance width="593"/>
  <unicode hex="00BD"/>
  <outline>
    <contour>
      <point x="388" y="704" type="line"/>
      <point x="40" y="0" type="line"/>
      <point x="60" y="0" type="line"/>
      <point x="408" y="704" type="line"/>
    </contour>
    <component base="onesuperior" xOffset="3"/>
    <component base="twosuperior" xOffset="272" yOffset="-353"/>
  </outline>
</glyph>
<glyph name="threequarters" format="2">
  <advance width="609"/>
  <unicode hex="00BE"/>
  <outline>
    <contour>
      <point x="502" y="704" type="line"/>
      <point x="154" y="0" type="line"/>
      <point x="174" y="0" type="line"/>
      <point x="522" y="704" type="line"/>
    </contour>
    <contour>
      <point x="579" y="96" type="line"/>
      <point x="524" y="96" type="line"/>
      <point x="524" y="355" type="line"/>
      <point x="509" y="355" type="line"/>
      <point x="332" y="94" type="line"/>
      <point x="332" y="76" type="line"/>
      <point x="504" y="76" type="line"/>
      <point x="504" y="0" type="line"/>
      <point x="524" y="0" type="line"/>
      <point x="524" y="76" type="line"/>
      <point x="579" y="76" type="line"/>
    </contour>
    <contour>
      <point x="504" y="96" type="line"/>
      <point x="356" y="96" type="line"/>
      <point x="504" y="309" type="line"/>
    </contour>
    <component base="threesuperior" xOffset="4"/>
  </outline>
</glyph>
<glyph name="AE" format="2">
  <advance width="837"/>
  <unicode hex="00C6"/>
  <outline>
    <contour>
      <point x="143" y="212" type="line"/>
      <point x="137" y="194" type="line"/>
      <point x="450" y="194" type="line"/>
      <point x="450" y="212" type="line"/>
    </contour>
    <contour>
      <point x="463" y="686" type="line"/>
      <point x="787" y="686" type="line"/>
      <point x="787" y="704" type="line"/>
      <point x="443" y="704" type="line"/>
      <point x="10" y="0" type="line"/>
      <point x="33" y="0" type="line"/>
      <point x="443" y="667" type="line"/>
      <point x="443" y="0" type="line"/>
      <point x="787" y="0" type="line"/>
      <point x="787" y="18" type="line"/>
      <point x="463" y="18" type="line"/>
      <point x="463" y="343" type="line"/>
      <point x="757" y="343" type="line"/>
      <point x="757" y="361" type="line"/>
      <point x="463" y="361" type="line"/>
    </contour>
  </outline>
</glyph>
<glyph name="Eth" format="2">
  <advance width="742"/>
  <unicode hex="00D0"/>
  <outline>
    <contour>
      <point x="10" y="361" type="line"/>
      <point x="10" y="343" type="line"/>
      <point x="378" y="343" type="line"/>
      <point x="378" y="361" type="line"/>
    </contour>
    <contour>
      <point x="555" y="704"/>
      <point x="310" y="704" type="curve"/>
      <point x="125" y="704" type="line"/>
      <point x="125" y="0" type="line"/>
      <point x="310" y="0" type="line"/>
      <point x="555" y="0"/>
      <point x="682" y="130"/>
      <point x="682" y="352" type="curve"/>
      <point x="682" y="574"/>
    </contour>
    <contour>
      <point x="310" y="18" type="curve"/>
      <point x="145" y="18" type="line"/>
      <point x="145" y="686" type="line"/>
      <point x="310" y="686" type="line"/>
      <point x="546" y="686"/>
      <point x="662" y="558"/>
      <point x="662" y="352" type="curve"/>
      <point x="662" y="146"/>
      <point x="546" y="18"/>
    </contour>
  </outline>
</glyph>
<glyph name="multiply" format="2">
  <advance width="469"/>
  <unicode hex="00D7"/>
  <outline>
    <contour>
      <point x="54" y="574" type="line"/>
      <point x="40" y="560" type="line"/>
      <point x="415" y="185" type="line"/>
      <point x="429" y="199" type="line"/>
    </contour>
    <contour>
      <point x="41" y="199" type="line"/>
      <point x="54" y="186" type="line"/>
      <point x="428" y="560" type="line"/>
      <point x="415" y="573" type="line"/>
    </contour>
  </outline>
</glyph>
<glyph name="Oslash" format="2">
  <advance width="792"/>
  <unicode hex="00D8"/>
  <outline>
    <contour>
      <point x="707" y="704" type="line"/>
      <point x="61" y="0" type="line"/>
      <point x="86" y="0" type="line"/>
      <point x="731" y="704" type="line"/>
    </contour>
    <component base="O"/>
  </outline>
</glyph>
<glyph name="Thorn" format="2">
  <advance width="528"/>
  <unicode hex="00DE"/>
  <outline>
    <contour>
      <point x="263" y="180" type="curve" smooth="yes"/>
      <point x="105" y="180" type="line"/>
      <point x="105" y="526" type="line"/>
      <point x="263" y="526" type="line" smooth="yes"/>
      <point x="414" y="526"/>
      <point x="468" y="461"/>
      <point x="468" y="352" type="curve" smooth="yes"/>
      <point x="468" y="248"/>
      <point x="414" y="180"/>
    </contour>
    <contour>
      <point x="488" y="222"/>
      <point x="488" y="352" type="curve" smooth="yes"/>
      <point x="488" y="469"/>
      <point x="423" y="546"/>
      <point x="263" y="546" type="curve" smooth="yes"/>
      <point x="105" y="546" type="line"/>
      <point x="105" y="704" type="line"/>
      <point x="85" y="704" type="line"/>
      <point x="85" y="0" type="line"/>
      <point x="105" y="0" type="line"/>
      <point x="105" y="159" type="line"/>
      <point x="263" y="159" type="line" smooth="yes"/>
      <point x="409" y="159"/>
    </contour>
  </outline>
</glyph>
<glyph name="germandbls" format="2">
  <advance width="627"/>
  <unicode hex="00DF"/>
  <guideline x="384" y="314" angle="155.3231"/>
  <guideline x="305" y="469" angle="40.9144"/>
  <outline>
    <contour>
      <point x="80" y="558" type="curve" smooth="yes"/>
      <point x="80" y="0" type="line"/>
      <point x="100" y="0" type="line"/>
      <point x="100" y="558" type="line" smooth="yes"/>
      <point x="100" y="670"/>
      <point x="165" y="745"/>
      <point x="274" y="745" type="curve" smooth="yes"/>
      <point x="377" y="745"/>
      <point x="438" y="691"/>
      <point x="438" y="618" type="curve" smooth="yes"/>
      <point x="438" y="507"/>
      <point x="278" y="483"/>
      <point x="278" y="379" type="curve" smooth="yes"/>
      <point x="278" y="326"/>
      <point x="309" y="299"/>
      <point x="414" y="265" type="curve" smooth="yes"/>
      <point x="498" y="238"/>
      <point x="537" y="202"/>
      <point x="537" y="138" type="curve" smooth="yes"/>
      <point x="537" y="61"/>
      <point x="486" y="9"/>
      <point x="403" y="9" type="curve" smooth="yes"/>
      <point x="312" y="9"/>
      <point x="249" y="70"/>
      <point x="239" y="161" type="curve"/>
      <point x="219" y="161" type="line"/>
      <point x="231" y="59"/>
      <point x="302" y="-9"/>
      <point x="403" y="-9" type="curve" smooth="yes"/>
      <point x="499" y="-9"/>
      <point x="557" y="50"/>
      <point x="557" y="138" type="curve" smooth="yes"/>
      <point x="557" y="208"/>
      <point x="519" y="251"/>
      <point x="430" y="279" type="curve" smooth="yes"/>
      <point x="329" y="311"/>
      <point x="298" y="335"/>
      <point x="298" y="379" type="curve" smooth="yes"/>
      <point x="298" y="468"/>
      <point x="458" y="499"/>
      <point x="458" y="618" type="curve" smooth="yes"/>
      <point x="458" y="704"/>
      <point x="389" y="763"/>
      <point x="274" y="763" type="curve" smooth="yes"/>
      <point x="154" y="763"/>
      <point x="80" y="683"/>
    </contour>
  </outline>
</glyph>
<glyph name="ae" format="2">
  <advance width="1135"/>
  <unicode hex="00E6"/>
  <outline>
    <contour>
      <point x="577" y="279" type="line"/>
      <point x="577" y="261" type="line"/>
      <point x="1071" y="261" type="line"/>
      <point x="1074" y="279"/>
      <point x="1075" y="289"/>
      <point x="1075" y="315" type="curve" smooth="yes"/>
      <point x="1075" y="428"/>
      <point x="992" y="547"/>
      <point x="827" y="547" type="curve" smooth="yes"/>
      <point x="714" y="547"/>
      <point x="614" y="485"/>
      <point x="586" y="365" type="curve"/>
      <point x="586" y="540" type="line"/>
      <point x="567" y="540" type="line"/>
      <point x="567" y="366" type="line"/>
      <point x="539" y="471"/>
      <point x="451" y="547"/>
      <point x="323" y="547" type="curve"/>
      <point x="168" y="547"/>
      <point x="60" y="442"/>
      <point x="60" y="270" type="curve"/>
      <point x="60" y="98"/>
      <point x="168" y="-7"/>
      <point x="323" y="-7" type="curve"/>
      <point x="451" y="-7"/>
      <point x="539" y="69"/>
      <point x="567" y="174" type="curve"/>
      <point x="567" y="0" type="line"/>
      <point x="586" y="0" type="line"/>
      <point x="586" y="175" type="line"/>
      <point x="614" y="53"/>
      <point x="714" y="-7"/>
      <point x="827" y="-7" type="curve" smooth="yes"/>
      <point x="967" y="-7"/>
      <point x="1057" y="72"/>
      <point x="1075" y="183" type="curve"/>
      <point x="1055" y="183" type="line"/>
      <point x="1038" y="76"/>
      <point x="947" y="11"/>
      <point x="827" y="11" type="curve" smooth="yes"/>
      <point x="704" y="11"/>
      <point x="587" y="90"/>
      <point x="587" y="266" type="curve" smooth="yes"/>
      <point x="587" y="275" type="line" smooth="yes"/>
      <point x="587" y="451"/>
      <point x="704" y="529"/>
      <point x="827" y="529" type="curve" smooth="yes"/>
      <point x="947" y="529"/>
      <point x="1067" y="453"/>
      <point x="1057" y="279" type="curve"/>
    </contour>
    <contour>
      <point x="80" y="109"/>
      <point x="80" y="270" type="curve"/>
      <point x="80" y="431"/>
      <point x="175" y="529"/>
      <point x="323" y="529" type="curve"/>
      <point x="464" y="529"/>
      <point x="567" y="426"/>
      <point x="567" y="270" type="curve"/>
      <point x="567" y="114"/>
      <point x="464" y="11"/>
      <point x="323" y="11" type="curve"/>
      <point x="175" y="11"/>
    </contour>
  </outline>
</glyph>
<glyph name="eth" format="2">
  <advance width="645"/>
  <unicode hex="00F0"/>
  <outline>
    <contour>
      <point x="557" y="741" type="line"/>
      <point x="252" y="630" type="line"/>
      <point x="252" y="612" type="line"/>
      <point x="557" y="723" type="line"/>
    </contour>
    <contour>
      <point x="323" y="552" type="curve" smooth="yes"/>
      <point x="162" y="552"/>
      <point x="60" y="445"/>
      <point x="60" y="286" type="curve" smooth="yes"/>
      <point x="60" y="113"/>
      <point x="158" y="-7"/>
      <point x="323" y="-7" type="curve" smooth="yes"/>
      <point x="478" y="-7"/>
      <point x="585" y="95"/>
      <point x="585" y="307" type="curve" smooth="yes"/>
      <point x="585" y="480"/>
      <point x="514" y="611"/>
      <point x="344" y="740" type="curve"/>
      <point x="322" y="740" type="line"/>
      <point x="492" y="606"/>
      <point x="550" y="503"/>
      <point x="571" y="351" type="curve"/>
      <point x="536" y="491"/>
      <point x="434" y="552"/>
    </contour>
    <contour>
      <point x="323" y="11" type="curve" smooth="yes"/>
      <point x="181" y="11"/>
      <point x="80" y="112"/>
      <point x="80" y="286" type="curve" smooth="yes"/>
      <point x="80" y="445"/>
      <point x="184" y="534"/>
      <point x="323" y="534" type="curve" smooth="yes"/>
      <point x="455" y="534"/>
      <point x="565" y="440"/>
      <point x="565" y="270" type="curve" smooth="yes"/>
      <point x="565" y="106"/>
      <point x="459" y="11"/>
    </contour>
  </outline>
</glyph>
<glyph name="divide" format="2">
  <advance width="589"/>
  <unicode hex="00F7"/>
  <outline>
    <contour>
      <point x="40" y="389" type="line"/>
      <point x="40" y="371" type="line"/>
      <point x="549" y="371" type="line"/>
      <point x="549" y="389" type="line"/>
    </contour>
    <component base="period" xOffset="238" yOffset="142"/>
    <component base="period" xOffset="238" yOffset="570"/>
  </outline>
</glyph>
<glyph name="oslash" format="2">
  <advance width="647"/>
  <unicode hex="00F8"/>
  <outline>
    <contour>
      <point x="559" y="540" type="line"/>
      <point x="69" y="0" type="line"/>
      <point x="91" y="0" type="line"/>
      <point x="581" y="540" type="line"/>
    </contour>
    <component base="o"/>
  </outline>
</glyph>
<glyph name="Aogonek" format="2">
  <advance width="601"/>
  <unicode hex="0104"/>
  <outline>
    <contour>
      <point x="564" y="15" type="line"/>
      <point x="495" y="-16" type="line" smooth="yes"/>
      <point x="433" y="-44"/>
      <point x="409" y="-78"/>
      <point x="409" y="-116" type="curve" smooth="yes"/>
      <point x="409" y="-167"/>
      <point x="448" y="-190"/>
      <point x="499" y="-190" type="curve" smooth="yes"/>
      <point x="518" y="-190"/>
      <point x="540" y="-186"/>
      <point x="561" y="-178" type="curve"/>
      <point x="561" y="-158" type="line"/>
      <point x="540" y="-166"/>
      <point x="518" y="-171"/>
      <point x="498" y="-171" type="curve" smooth="yes"/>
      <point x="459" y="-171"/>
      <point x="429" y="-154"/>
      <point x="429" y="-115" type="curve" smooth="yes"/>
      <point x="429" y="-86"/>
      <point x="447" y="-57"/>
      <point x="499" y="-33" type="curve" smooth="yes"/>
      <point x="571" y="0" type="line"/>
    </contour>
    <component base="A"/>
  </outline>
</glyph>
<glyph name="dcaron" format="2">
  <advance width="671"/>
  <unicode hex="010F"/>
  <outline>
    <contour>
      <point x="698" y="740" type="curve"/>
      <point x="642" y="740" type="line"/>
      <point x="642" y="687" type="line"/>
      <point x="680" y="687" type="line"/>
      <point x="680" y="658" type="line" smooth="yes"/>
      <point x="680" y="629"/>
      <point x="670" y="613"/>
      <point x="635" y="613" type="curve"/>
      <point x="635" y="593" type="line"/>
      <point x="675" y="593"/>
      <point x="702" y="608"/>
      <point x="702" y="671" type="curve" smooth="yes"/>
      <point x="702" y="689"/>
      <point x="701" y="711"/>
    </contour>
    <component base="d"/>
  </outline>
</glyph>
<glyph name="dcroat" format="2">
  <advance width="664"/>
  <unicode hex="0111"/>
  <outline>
    <contour>
      <point x="362" y="668" type="line"/>
      <point x="362" y="650" type="line"/>
      <point x="654" y="650" type="line"/>
      <point x="654" y="668" type="line"/>
    </contour>
    <component base="d"/>
  </outline>
</glyph>
<glyph name="Gcommaaccent" format="2">
  <advance width="792"/>
  <unicode hex="0122"/>
  <outline>
    <contour>
      <point x="428" y="-59" type="curve"/>
      <point x="377" y="-59" type="line"/>
      <point x="377" y="-97" type="line"/>
      <point x="408" y="-97" type="line"/>
      <point x="408" y="-104" type="line" smooth="yes"/>
      <point x="408" y="-137"/>
      <point x="397" y="-158"/>
      <point x="365" y="-158" type="curve"/>
      <point x="365" y="-176" type="line"/>
      <point x="401" y="-176"/>
      <point x="430" y="-161"/>
      <point x="430" y="-90" type="curve" smooth="yes"/>
      <point x="430" y="-81"/>
      <point x="429" y="-68"/>
    </contour>
    <component base="G"/>
  </outline>
</glyph>
<glyph name="gcommaaccent" format="2">
  <advance width="671"/>
  <unicode hex="0123"/>
  <outline>
    <contour>
      <point x="294" y="593" type="curve"/>
      <point x="350" y="593" type="line"/>
      <point x="350" y="646" type="line"/>
      <point x="312" y="646" type="line"/>
      <point x="312" y="675" type="line" smooth="yes"/>
      <point x="312" y="704"/>
      <point x="322" y="720"/>
      <point x="357" y="720" type="curve"/>
      <point x="357" y="740" type="line"/>
      <point x="317" y="740"/>
      <point x="290" y="725"/>
      <point x="290" y="662" type="curve" smooth="yes"/>
      <point x="290" y="644"/>
      <point x="291" y="622"/>
    </contour>
    <component base="g"/>
  </outline>
</glyph>
<glyph name="Kcommaaccent" format="2">
  <advance width="494"/>
  <unicode hex="0136"/>
  <anchor x="241" y="0" name="_bottom"/>
  <outline>
    <contour>
      <point x="268" y="-59" type="curve"/>
      <point x="217" y="-59" type="line"/>
      <point x="217" y="-97" type="line"/>
      <point x="248" y="-97" type="line"/>
      <point x="248" y="-104" type="line" smooth="yes"/>
      <point x="248" y="-137"/>
      <point x="237" y="-158"/>
      <point x="205" y="-158" type="curve"/>
      <point x="205" y="-176" type="line"/>
      <point x="241" y="-176"/>
      <point x="270" y="-161"/>
      <point x="270" y="-90" type="curve" smooth="yes"/>
      <point x="270" y="-81"/>
      <point x="269" y="-68"/>
    </contour>
    <component base="K"/>
  </outline>
</glyph>
<glyph name="kcommaaccent" format="2">
  <advance width="395"/>
  <unicode hex="0137"/>
  <outline>
    <contour>
      <point x="228" y="-59" type="curve"/>
      <point x="177" y="-59" type="line"/>
      <point x="177" y="-97" type="line"/>
      <point x="208" y="-97" type="line"/>
      <point x="208" y="-104" type="line" smooth="yes"/>
      <point x="208" y="-137"/>
      <point x="197" y="-158"/>
      <point x="165" y="-158" type="curve"/>
      <point x="165" y="-176" type="line"/>
      <point x="201" y="-176"/>
      <point x="230" y="-161"/>
      <point x="230" y="-90" type="curve" smooth="yes"/>
      <point x="230" y="-81"/>
      <point x="229" y="-68"/>
    </contour>
    <component base="k"/>
  </outline>
</glyph>
<glyph name="Lcommaaccent" format="2">
  <advance width="395"/>
  <unicode hex="013B"/>
  <outline>
    <contour>
      <point x="258" y="-59" type="curve"/>
      <point x="207" y="-59" type="line"/>
      <point x="207" y="-97" type="line"/>
      <point x="238" y="-97" type="line"/>
      <point x="238" y="-104" type="line" smooth="yes"/>
      <point x="238" y="-137"/>
      <point x="227" y="-158"/>
      <point x="195" y="-158" type="curve"/>
      <point x="195" y="-176" type="line"/>
      <point x="231" y="-176"/>
      <point x="260" y="-161"/>
      <point x="260" y="-90" type="curve" smooth="yes"/>
      <point x="260" y="-81"/>
      <point x="259" y="-68"/>
    </contour>
    <component base="L"/>
  </outline>
</glyph>
<glyph name="Lcaron" format="2">
  <advance width="395"/>
  <unicode hex="013D"/>
  <outline>
    <contour>
      <point x="288" y="704" type="curve"/>
      <point x="232" y="704" type="line"/>
      <point x="232" y="651" type="line"/>
      <point x="270" y="651" type="line"/>
      <point x="270" y="622" type="line" smooth="yes"/>
      <point x="270" y="593"/>
      <point x="260" y="577"/>
      <point x="225" y="577" type="curve"/>
      <point x="225" y="557" type="line"/>
      <point x="265" y="557"/>
      <point x="292" y="572"/>
      <point x="292" y="635" type="curve" smooth="yes"/>
      <point x="292" y="653"/>
      <point x="291" y="675"/>
    </contour>
    <component base="L"/>
  </outline>
</glyph>
<glyph name="lcaron" format="2">
  <advance width="190"/>
  <unicode hex="013E"/>
  <outline>
    <contour>
      <point x="218" y="740" type="curve"/>
      <point x="162" y="740" type="line"/>
      <point x="162" y="687" type="line"/>
      <point x="200" y="687" type="line"/>
      <point x="200" y="658" type="line" smooth="yes"/>
      <point x="200" y="629"/>
      <point x="190" y="613"/>
      <point x="155" y="613" type="curve"/>
      <point x="155" y="593" type="line"/>
      <point x="195" y="593"/>
      <point x="222" y="608"/>
      <point x="222" y="671" type="curve" smooth="yes"/>
      <point x="222" y="689"/>
      <point x="221" y="711"/>
    </contour>
    <component base="l"/>
  </outline>
</glyph>
<glyph name="Ldot" format="2">
  <advance width="395"/>
  <unicode hex="013F"/>
  <outline>
    <contour>
      <point x="85" y="0" type="line"/>
      <point x="375" y="0" type="line"/>
      <point x="375" y="18" type="line"/>
      <point x="105" y="18" type="line"/>
      <point x="105" y="704" type="line"/>
      <point x="85" y="704" type="line"/>
    </contour>
    <contour>
      <point x="322" y="348" type="curve" smooth="yes"/>
      <point x="338" y="348"/>
      <point x="352" y="362"/>
      <point x="352" y="378" type="curve" smooth="yes"/>
      <point x="352" y="394"/>
      <point x="338" y="408"/>
      <point x="322" y="408" type="curve" smooth="yes"/>
      <point x="306" y="408"/>
      <point x="292" y="394"/>
      <point x="292" y="378" type="curve" smooth="yes"/>
      <point x="292" y="362"/>
      <point x="306" y="348"/>
    </contour>
  </outline>
</glyph>
<glyph name="ldot" format="2">
  <advance width="238"/>
  <unicode hex="0140"/>
  <outline>
    <contour>
      <point x="85" y="0" type="line"/>
      <point x="105" y="0" type="line"/>
      <point x="105" y="740" type="line"/>
      <point x="85" y="740" type="line"/>
    </contour>
    <contour>
      <point x="217" y="342" type="curve" smooth="yes"/>
      <point x="233" y="342"/>
      <point x="247" y="356"/>
      <point x="247" y="372" type="curve" smooth="yes"/>
      <point x="247" y="388"/>
      <point x="233" y="402"/>
      <point x="217" y="402" type="curve" smooth="yes"/>
      <point x="201" y="402"/>
      <point x="187" y="388"/>
      <point x="187" y="372" type="curve" smooth="yes"/>
      <point x="187" y="356"/>
      <point x="201" y="342"/>
    </contour>
  </outline>
</glyph>
<glyph name="Lslash" format="2">
  <advance width="415"/>
  <unicode hex="0141"/>
  <outline>
    <contour>
      <point x="10" y="334" type="line"/>
      <point x="10" y="314" type="line"/>
      <point x="286" y="444" type="line"/>
      <point x="286" y="464" type="line"/>
    </contour>
    <contour>
      <point x="125" y="704" type="line"/>
      <point x="105" y="704" type="line"/>
      <point x="105" y="0" type="line"/>
      <point x="395" y="0" type="line"/>
      <point x="395" y="18" type="line"/>
      <point x="125" y="18" type="line"/>
    </contour>
  </outline>
</glyph>
<glyph name="lslash" format="2">
  <advance width="210"/>
  <unicode hex="0142"/>
  <outline>
    <contour>
      <point x="10" y="441" type="line"/>
      <point x="10" y="422" type="line"/>
      <point x="200" y="531" type="line"/>
      <point x="200" y="550" type="line"/>
    </contour>
    <contour>
      <point x="95" y="740" type="line"/>
      <point x="95" y="0" type="line"/>
      <point x="115" y="0" type="line"/>
      <point x="115" y="740" type="line"/>
    </contour>
  </outline>
</glyph>
<glyph name="Ncommaaccent" format="2">
  <advance width="647"/>
  <unicode hex="0145"/>
  <outline>
    <contour>
      <point x="348" y="-59" type="curve"/>
      <point x="297" y="-59" type="line"/>
      <point x="297" y="-97" type="line"/>
      <point x="328" y="-97" type="line"/>
      <point x="328" y="-104" type="line" smooth="yes"/>
      <point x="328" y="-137"/>
      <point x="317" y="-158"/>
      <point x="285" y="-158" type="curve"/>
      <point x="285" y="-176" type="line"/>
      <point x="321" y="-176"/>
      <point x="350" y="-161"/>
      <point x="350" y="-90" type="curve" smooth="yes"/>
      <point x="350" y="-81"/>
      <point x="349" y="-68"/>
    </contour>
    <component base="N"/>
  </outline>
</glyph>
<glyph name="ncommaaccent" format="2">
  <advance width="614"/>
  <unicode hex="0146"/>
  <outline>
    <contour>
      <point x="338" y="-59" type="curve"/>
      <point x="287" y="-59" type="line"/>
      <point x="287" y="-97" type="line"/>
      <point x="318" y="-97" type="line"/>
      <point x="318" y="-104" type="line" smooth="yes"/>
      <point x="318" y="-137"/>
      <point x="307" y="-158"/>
      <point x="275" y="-158" type="curve"/>
      <point x="275" y="-176" type="line"/>
      <point x="311" y="-176"/>
      <point x="340" y="-161"/>
      <point x="340" y="-90" type="curve" smooth="yes"/>
      <point x="340" y="-81"/>
      <point x="339" y="-68"/>
    </contour>
    <component base="n"/>
  </outline>
</glyph>
<glyph name="OE" format="2">
  <advance width="1106"/>
  <unicode hex="0152"/>
  <outline>
    <contour>
      <point x="732" y="686" type="line"/>
      <point x="1056" y="686" type="line"/>
      <point x="1056" y="704" type="line"/>
      <point x="712" y="704" type="line"/>
      <point x="712" y="462" type="line"/>
      <point x="680" y="612"/>
      <point x="551" y="710"/>
      <point x="396" y="710" type="curve"/>
      <point x="200" y="710"/>
      <point x="60" y="562"/>
      <point x="60" y="351" type="curve"/>
      <point x="60" y="140"/>
      <point x="200" y="-8"/>
      <point x="396" y="-8" type="curve"/>
      <point x="551" y="-8"/>
      <point x="680" y="90"/>
      <point x="712" y="240" type="curve"/>
      <point x="712" y="0" type="line"/>
      <point x="1056" y="0" type="line"/>
      <point x="1056" y="18" type="line"/>
      <point x="732" y="18" type="line"/>
      <point x="732" y="343" type="line"/>
      <point x="1026" y="343" type="line"/>
      <point x="1026" y="361" type="line"/>
      <point x="732" y="361" type="line"/>
    </contour>
    <contour>
      <point x="81" y="351" type="curve"/>
      <point x="81" y="563"/>
      <point x="221" y="692"/>
      <point x="396" y="692" type="curve"/>
      <point x="571" y="692"/>
      <point x="711" y="563"/>
      <point x="711" y="351" type="curve"/>
      <point x="711" y="139"/>
      <point x="571" y="10"/>
      <point x="396" y="10" type="curve"/>
      <point x="221" y="10"/>
      <point x="81" y="139"/>
    </contour>
  </outline>
</glyph>
<glyph name="oe" format="2">
  <advance width="1135"/>
  <unicode hex="0153"/>
  <outline>
    <contour>
      <point x="567" y="449"/>
      <point x="567" y="270" type="curve"/>
      <point x="567" y="91"/>
      <point x="448" y="11"/>
      <point x="324" y="11" type="curve"/>
      <point x="200" y="11"/>
      <point x="80" y="91"/>
      <point x="80" y="270" type="curve"/>
      <point x="80" y="449"/>
      <point x="200" y="529"/>
      <point x="324" y="529" type="curve"/>
      <point x="448" y="529"/>
    </contour>
    <contour>
      <point x="60" y="444"/>
      <point x="60" y="270" type="curve"/>
      <point x="60" y="96"/>
      <point x="174" y="-7"/>
      <point x="324" y="-7" type="curve"/>
      <point x="448" y="-7"/>
      <point x="546" y="63"/>
      <point x="577" y="185" type="curve"/>
      <point x="607" y="63"/>
      <point x="703" y="-7"/>
      <point x="827" y="-7" type="curve" smooth="yes"/>
      <point x="967" y="-7"/>
      <point x="1057" y="72"/>
      <point x="1075" y="183" type="curve"/>
      <point x="1055" y="183" type="line"/>
      <point x="1038" y="76"/>
      <point x="947" y="11"/>
      <point x="827" y="11" type="curve" smooth="yes"/>
      <point x="704" y="11"/>
      <point x="587" y="90"/>
      <point x="587" y="267" type="curve" smooth="yes"/>
      <point x="587" y="275" type="line" smooth="yes"/>
      <point x="587" y="451"/>
      <point x="704" y="529"/>
      <point x="827" y="529" type="curve" smooth="yes"/>
      <point x="947" y="529"/>
      <point x="1067" y="453"/>
      <point x="1057" y="279" type="curve"/>
      <point x="577" y="279" type="line"/>
      <point x="577" y="261" type="line"/>
      <point x="1071" y="261" type="line"/>
      <point x="1074" y="279"/>
      <point x="1075" y="289"/>
      <point x="1075" y="315" type="curve" smooth="yes"/>
      <point x="1075" y="428"/>
      <point x="992" y="547"/>
      <point x="827" y="547" type="curve" smooth="yes"/>
      <point x="703" y="547"/>
      <point x="607" y="477"/>
      <point x="577" y="355" type="curve"/>
      <point x="546" y="477"/>
      <point x="448" y="547"/>
      <point x="324" y="547" type="curve"/>
      <point x="174" y="547"/>
    </contour>
  </outline>
</glyph>
<glyph name="rcommaaccent" format="2">
  <advance width="338"/>
  <unicode hex="0157"/>
  <outline>
    <contour>
      <point x="118" y="-59" type="curve"/>
      <point x="67" y="-59" type="line"/>
      <point x="67" y="-97" type="line"/>
      <point x="98" y="-97" type="line"/>
      <point x="98" y="-104" type="line" smooth="yes"/>
      <point x="98" y="-137"/>
      <point x="87" y="-158"/>
      <point x="55" y="-158" type="curve"/>
      <point x="55" y="-176" type="line"/>
      <point x="91" y="-176"/>
      <point x="120" y="-161"/>
      <point x="120" y="-90" type="curve" smooth="yes"/>
      <point x="120" y="-81"/>
      <point x="119" y="-68"/>
    </contour>
    <component base="r"/>
  </outline>
</glyph>
<glyph name="tcedilla" format="2">
  <advance width="338"/>
  <unicode hex="0163"/>
  <outline>
    <contour>
      <point x="108" y="678" type="line"/>
      <point x="108" y="142" type="line" smooth="yes"/>
      <point x="108" y="37"/>
      <point x="147" y="0"/>
      <point x="239" y="0" type="curve" smooth="yes"/>
      <point x="298" y="0" type="line"/>
      <point x="298" y="20" type="line"/>
      <point x="241" y="20" type="line" smooth="yes"/>
      <point x="159" y="20"/>
      <point x="128" y="45"/>
      <point x="128" y="142" type="curve" smooth="yes"/>
      <point x="128" y="678" type="line"/>
    </contour>
    <contour>
      <point x="20" y="520" type="line"/>
      <point x="298" y="520" type="line"/>
      <point x="298" y="540" type="line"/>
      <point x="20" y="540" type="line"/>
    </contour>
    <contour>
      <point x="223" y="-89" type="curve"/>
      <point x="223" y="7" type="line"/>
      <point x="203" y="7" type="line"/>
      <point x="203" y="-107" type="line"/>
      <point x="240" y="-107" type="line" smooth="yes"/>
      <point x="307" y="-107"/>
      <point x="329" y="-135"/>
      <point x="329" y="-168" type="curve" smooth="yes"/>
      <point x="329" y="-207"/>
      <point x="307" y="-234"/>
      <point x="240" y="-234" type="curve" smooth="yes"/>
      <point x="180" y="-234" type="line"/>
      <point x="180" y="-254" type="line"/>
      <point x="243" y="-254" type="line" smooth="yes"/>
      <point x="313" y="-254"/>
      <point x="349" y="-218"/>
      <point x="349" y="-168" type="curve" smooth="yes"/>
      <point x="349" y="-114"/>
      <point x="306" y="-84"/>
    </contour>
  </outline>
</glyph>
<glyph name="tcaron" format="2">
  <advance width="338"/>
  <unicode hex="0165"/>
  <outline>
    <contour>
      <point x="258" y="740" type="curve"/>
      <point x="202" y="740" type="line"/>
      <point x="202" y="687" type="line"/>
      <point x="240" y="687" type="line"/>
      <point x="240" y="658" type="line" smooth="yes"/>
      <point x="240" y="629"/>
      <point x="230" y="613"/>
      <point x="195" y="613" type="curve"/>
      <point x="195" y="593" type="line"/>
      <point x="235" y="593"/>
      <point x="262" y="608"/>
      <point x="262" y="671" type="curve" smooth="yes"/>
      <point x="262" y="689"/>
      <point x="261" y="711"/>
    </contour>
    <component base="t"/>
  </outline>
</glyph>
<glyph name="Schwa" format="2">
  <advance width="792"/>
  <unicode hex="018F"/>
  <anchor x="404" y="710" name="top"/>
  <outline>
    <contour>
      <point x="710" y="352" type="curve" smooth="yes"/>
      <point x="710" y="348" type="line" smooth="yes"/>
      <point x="710" y="130"/>
      <point x="573" y="10"/>
      <point x="398" y="10" type="curve" smooth="yes"/>
      <point x="212" y="10"/>
      <point x="95" y="142"/>
      <point x="107" y="341" type="curve"/>
      <point x="717" y="341" type="line"/>
      <point x="717" y="358" type="line"/>
      <point x="87" y="358" type="line"/>
      <point x="86" y="343"/>
      <point x="85" y="328"/>
      <point x="85" y="313" type="curve" smooth="yes"/>
      <point x="85" y="111"/>
      <point x="215" y="-8"/>
      <point x="398" y="-8" type="curve" smooth="yes"/>
      <point x="597" y="-8"/>
      <point x="732" y="135"/>
      <point x="732" y="351" type="curve" smooth="yes"/>
      <point x="732" y="562"/>
      <point x="598" y="710"/>
      <point x="404" y="710" type="curve" smooth="yes"/>
      <point x="245" y="710"/>
      <point x="118" y="613"/>
      <point x="85" y="465" type="curve"/>
      <point x="106" y="465" type="line"/>
      <point x="139" y="608"/>
      <point x="263" y="692"/>
      <point x="404" y="692" type="curve" smooth="yes"/>
      <point x="576" y="692"/>
      <point x="710" y="564"/>
    </contour>
  </outline>
</glyph>
<glyph name="florin" format="2">
  <advance width="331"/>
  <unicode hex="0192"/>
  <outline>
    <contour>
      <point x="64" y="540" type="line"/>
      <point x="64" y="522" type="line"/>
      <point x="326" y="522" type="line"/>
      <point x="327" y="540" type="line"/>
    </contour>
    <contour>
      <point x="170" y="711"/>
      <point x="160" y="609" type="curve" smooth="yes"/>
      <point x="91" y="-34" type="line" smooth="yes"/>
      <point x="83" y="-104"/>
      <point x="57" y="-118"/>
      <point x="3" y="-118" type="curve" smooth="yes"/>
      <point x="-24" y="-118" type="line"/>
      <point x="-25" y="-136" type="line"/>
      <point x="5" y="-136" type="line" smooth="yes"/>
      <point x="84" y="-136"/>
      <point x="104" y="-96"/>
      <point x="111" y="-34" type="curve" smooth="yes"/>
      <point x="179" y="609" type="line" smooth="yes"/>
      <point x="188" y="696"/>
      <point x="242" y="735"/>
      <point x="340" y="735" type="curve"/>
      <point x="341" y="753" type="line"/>
      <point x="235" y="753"/>
    </contour>
  </outline>
</glyph>
<glyph name="Scommaaccent" format="2">
  <advance width="536"/>
  <unicode hex="0218"/>
  <anchor x="291" y="-7" name="_bottom"/>
  <outline>
    <contour>
      <point x="318" y="-59" type="curve"/>
      <point x="267" y="-59" type="line"/>
      <point x="267" y="-97" type="line"/>
      <point x="298" y="-97" type="line"/>
      <point x="298" y="-104" type="line" smooth="yes"/>
      <point x="298" y="-137"/>
      <point x="287" y="-158"/>
      <point x="255" y="-158" type="curve"/>
      <point x="255" y="-176" type="line"/>
      <point x="291" y="-176"/>
      <point x="320" y="-161"/>
      <point x="320" y="-90" type="curve" smooth="yes"/>
      <point x="320" y="-81"/>
      <point x="319" y="-68"/>
    </contour>
    <component base="S"/>
  </outline>
</glyph>
<glyph name="scommaaccent" format="2">
  <advance width="483"/>
  <unicode hex="0219"/>
  <outline>
    <contour>
      <point x="288" y="-59" type="curve"/>
      <point x="237" y="-59" type="line"/>
      <point x="237" y="-97" type="line"/>
      <point x="268" y="-97" type="line"/>
      <point x="268" y="-104" type="line" smooth="yes"/>
      <point x="268" y="-137"/>
      <point x="257" y="-158"/>
      <point x="225" y="-158" type="curve"/>
      <point x="225" y="-176" type="line"/>
      <point x="261" y="-176"/>
      <point x="290" y="-161"/>
      <point x="290" y="-90" type="curve" smooth="yes"/>
      <point x="290" y="-81"/>
      <point x="289" y="-68"/>
    </contour>
    <component base="s"/>
  </outline>
</glyph>
<glyph name="Tcommaaccent" format="2">
  <advance width="470"/>
  <unicode hex="021A"/>
  <outline>
    <contour>
      <point x="258" y="-59" type="curve"/>
      <point x="207" y="-59" type="line"/>
      <point x="207" y="-97" type="line"/>
      <point x="238" y="-97" type="line"/>
      <point x="238" y="-104" type="line" smooth="yes"/>
      <point x="238" y="-137"/>
      <point x="227" y="-158"/>
      <point x="195" y="-158" type="curve"/>
      <point x="195" y="-176" type="line"/>
      <point x="231" y="-176"/>
      <point x="260" y="-161"/>
      <point x="260" y="-90" type="curve" smooth="yes"/>
      <point x="260" y="-81"/>
      <point x="259" y="-68"/>
    </contour>
    <component base="T"/>
  </outline>
</glyph>
<glyph name="ringcomb" format="2">
  <advance width="260"/>
  <unicode hex="02DA"/>
  <anchor x="130" y="540" name="_top"/>
  <outline>
    <contour>
      <point x="220" y="705" type="curve" smooth="yes"/>
      <point x="220" y="761"/>
      <point x="179" y="795"/>
      <point x="130" y="795" type="curve" smooth="yes"/>
      <point x="81" y="795"/>
      <point x="40" y="761"/>
      <point x="40" y="705" type="curve" smooth="yes"/>
      <point x="40" y="649"/>
      <point x="81" y="615"/>
      <point x="130" y="615" type="curve" smooth="yes"/>
      <point x="179" y="615"/>
      <point x="220" y="649"/>
    </contour>
    <contour>
      <point x="200" y="705" type="curve" smooth="yes"/>
      <point x="200" y="660"/>
      <point x="170" y="633"/>
      <point x="130" y="633" type="curve" smooth="yes"/>
      <point x="90" y="633"/>
      <point x="60" y="660"/>
      <point x="60" y="705" type="curve" smooth="yes"/>
      <point x="60" y="750"/>
      <point x="90" y="777"/>
      <point x="130" y="777" type="curve" smooth="yes"/>
      <point x="170" y="777"/>
      <point x="200" y="750"/>
    </contour>
  </outline>
</glyph>
<glyph name="ogonekcomb" format="2">
  <unicode hex="02DB"/>
  <anchor x="213" y="0" name="_ogonek"/>
  <outline>
    <contour>
      <point x="206" y="15" type="line"/>
      <point x="137" y="-16" type="line" smooth="yes"/>
      <point x="75" y="-44"/>
      <point x="51" y="-78"/>
      <point x="51" y="-116" type="curve" smooth="yes"/>
      <point x="51" y="-167"/>
      <point x="90" y="-190"/>
      <point x="140" y="-190" type="curve" smooth="yes"/>
      <point x="160" y="-190"/>
      <point x="182" y="-186"/>
      <point x="203" y="-178" type="curve"/>
      <point x="203" y="-158" type="line"/>
      <point x="182" y="-166"/>
      <point x="160" y="-171"/>
      <point x="140" y="-171" type="curve" smooth="yes"/>
      <point x="101" y="-171"/>
      <point x="71" y="-154"/>
      <point x="71" y="-115" type="curve" smooth="yes"/>
      <point x="71" y="-86"/>
      <point x="89" y="-57"/>
      <point x="141" y="-33" type="curve" smooth="yes"/>
      <point x="213" y="0" type="line"/>
    </contour>
  </outline>
</glyph>
<glyph name="tildecomb" format="2">
  <advance width="310"/>
  <unicode hex="02DC"/>
  <anchor x="136" y="540" name="_top"/>
  <outline>
    <contour>
      <point x="45" y="644"/>
      <point x="40" y="604" type="curve"/>
      <point x="58" y="604" type="line"/>
      <point x="62" y="637"/>
      <point x="77" y="652"/>
      <point x="100" y="652" type="curve" smooth="yes"/>
      <point x="142" y="652"/>
      <point x="156" y="602"/>
      <point x="208" y="602" type="curve" smooth="yes"/>
      <point x="242" y="602"/>
      <point x="268" y="631"/>
      <point x="270" y="667" type="curve"/>
      <point x="252" y="667" type="line"/>
      <point x="248" y="636"/>
      <point x="229" y="620"/>
      <point x="208" y="620" type="curve" smooth="yes"/>
      <point x="161" y="620"/>
      <point x="150" y="670"/>
      <point x="100" y="670" type="curve" smooth="yes"/>
      <point x="66" y="670"/>
    </contour>
  </outline>
</glyph>
<glyph name="gravecomb" format="2">
  <unicode hex="0300"/>
  <anchor x="147" y="540" name="_top"/>
  <outline>
    <contour>
      <point x="40" y="740" type="line"/>
      <point x="40" y="716" type="line"/>
      <point x="227" y="586" type="line"/>
      <point x="227" y="606" type="line"/>
    </contour>
  </outline>
</glyph>
<glyph name="acutecomb" format="2">
  <advance width="267"/>
  <unicode hex="0301"/>
  <anchor x="147" y="540" name="_top"/>
  <outline>
    <contour>
      <point x="227" y="740" type="line"/>
      <point x="40" y="606" type="line"/>
      <point x="40" y="586" type="line"/>
      <point x="227" y="716" type="line"/>
    </contour>
  </outline>
</glyph>
<glyph name="circumflexcomb" format="2">
  <unicode hex="0302"/>
  <anchor x="164" y="540" name="_top"/>
  <outline>
    <contour>
      <point x="287" y="620" type="line"/>
      <point x="287" y="640" type="line"/>
      <point x="164" y="721" type="line"/>
      <point x="40" y="640" type="line"/>
      <point x="40" y="620" type="line"/>
      <point x="164" y="701" type="line"/>
    </contour>
  </outline>
</glyph>
<glyph name="macroncomb" format="2">
  <advance width="389"/>
  <unicode hex="0304"/>
  <anchor x="195" y="540" name="_top"/>
  <outline>
    <contour>
      <point x="40" y="677" type="line"/>
      <point x="40" y="659" type="line"/>
      <point x="349" y="659" type="line"/>
      <point x="349" y="677" type="line"/>
    </contour>
  </outline>
</glyph>
<glyph name="brevecomb" format="2">
  <advance width="316"/>
  <unicode hex="0306"/>
  <anchor x="158" y="540" name="_top"/>
  <outline>
    <contour>
      <point x="276" y="672"/>
      <point x="276" y="720" type="curve" smooth="yes"/>
      <point x="276" y="724" type="line"/>
      <point x="256" y="724" type="line"/>
      <point x="256" y="667"/>
      <point x="220" y="634"/>
      <point x="158" y="634" type="curve"/>
      <point x="96" y="634"/>
      <point x="60" y="667"/>
      <point x="60" y="724" type="curve"/>
      <point x="40" y="724" type="line"/>
      <point x="40" y="720" type="line" smooth="yes"/>
      <point x="40" y="672"/>
      <point x="73" y="616"/>
      <point x="158" y="616" type="curve"/>
      <point x="243" y="616"/>
    </contour>
  </outline>
</glyph>
<glyph name="dotaccentcomb" format="2">
  <advance width="154"/>
  <unicode hex="0307"/>
  <anchor x="77" y="562.23" name="_top"/>
  <outline>
    <contour>
      <point x="61" y="627"/>
      <point x="77" y="627" type="curve" smooth="yes"/>
      <point x="93" y="627"/>
      <point x="107" y="641"/>
      <point x="107" y="657" type="curve" smooth="yes"/>
      <point x="107" y="673"/>
      <point x="93" y="687"/>
      <point x="77" y="687" type="curve" smooth="yes"/>
      <point x="61" y="687"/>
      <point x="47" y="673"/>
      <point x="47" y="657" type="curve" smooth="yes"/>
      <point x="47" y="641"/>
    </contour>
  </outline>
</glyph>
<glyph name="dieresiscomb" format="2">
  <unicode hex="0308"/>
  <anchor x="159" y="540" name="_top"/>
  <outline>
    <contour>
      <point x="76" y="627"/>
      <point x="93" y="627" type="curve" smooth="yes"/>
      <point x="109" y="627"/>
      <point x="123" y="641"/>
      <point x="123" y="657" type="curve" smooth="yes"/>
      <point x="123" y="673"/>
      <point x="109" y="687"/>
      <point x="93" y="687" type="curve" smooth="yes"/>
      <point x="76" y="687"/>
      <point x="63" y="673"/>
      <point x="63" y="657" type="curve" smooth="yes"/>
      <point x="63" y="641"/>
    </contour>
    <contour>
      <point x="210" y="627"/>
      <point x="227" y="627" type="curve" smooth="yes"/>
      <point x="243" y="627"/>
      <point x="256" y="641"/>
      <point x="256" y="657" type="curve" smooth="yes"/>
      <point x="256" y="673"/>
      <point x="243" y="687"/>
      <point x="227" y="687" type="curve" smooth="yes"/>
      <point x="210" y="687"/>
      <point x="197" y="673"/>
      <point x="197" y="657" type="curve" smooth="yes"/>
      <point x="197" y="641"/>
    </contour>
  </outline>
</glyph>
<glyph name="hungarumlautcomb" format="2">
  <unicode hex="030B"/>
  <anchor x="112" y="540" name="_top"/>
  <outline>
    <contour>
      <point x="123" y="705" type="line"/>
      <point x="100" y="705" type="line"/>
      <point x="40" y="601" type="line"/>
      <point x="60" y="601" type="line"/>
    </contour>
    <contour>
      <point x="238" y="705" type="line"/>
      <point x="215" y="705" type="line"/>
      <point x="152" y="601" type="line"/>
      <point x="172" y="601" type="line"/>
    </contour>
  </outline>
</glyph>
<glyph name="caroncomb" format="2">
  <unicode hex="030C"/>
  <anchor x="164" y="540" name="_top"/>
  <outline>
    <contour>
      <point x="287" y="718" type="line"/>
      <point x="164" y="637" type="line"/>
      <point x="40" y="718" type="line"/>
      <point x="40" y="698" type="line"/>
      <point x="164" y="617" type="line"/>
      <point x="287" y="698" type="line"/>
    </contour>
  </outline>
</glyph>
<glyph name="pi" format="2">
  <advance width="721"/>
  <unicode hex="03C0"/>
  <outline>
    <contour>
      <point x="65" y="540" type="line"/>
      <point x="65" y="522" type="line"/>
      <point x="152" y="522" type="line"/>
      <point x="152" y="0" type="line"/>
      <point x="172" y="0" type="line"/>
      <point x="172" y="522" type="line"/>
      <point x="549" y="522" type="line"/>
      <point x="549" y="0" type="line"/>
      <point x="569" y="0" type="line"/>
      <point x="569" y="522" type="line"/>
      <point x="656" y="522" type="line"/>
      <point x="656" y="540" type="line"/>
    </contour>
  </outline>
</glyph>
<glyph name="dvCandrabindu" format="2">
  <unicode hex="0901"/>
  <anchor x="-127" y="740" name="_abvm.e"/>
  <outline>
    <contour>
      <point x="-136" y="824" type="curve" smooth="yes"/>
      <point x="-17" y="824"/>
      <point x="35" y="905"/>
      <point x="35" y="969" type="curve"/>
      <point x="19" y="969" type="line"/>
      <point x="19" y="911"/>
      <point x="-28" y="840"/>
      <point x="-136" y="840" type="curve" smooth="yes"/>
      <point x="-245" y="840"/>
      <point x="-291" y="911"/>
      <point x="-291" y="969" type="curve"/>
      <point x="-307" y="969" type="line"/>
      <point x="-307" y="905"/>
      <point x="-256" y="824"/>
    </contour>
    <contour>
      <point x="-135" y="978" type="curve" smooth="yes"/>
      <point x="-121" y="978"/>
      <point x="-111" y="988"/>
      <point x="-111" y="1002" type="curve" smooth="yes"/>
      <point x="-111" y="1016"/>
      <point x="-121" y="1026"/>
      <point x="-135" y="1026" type="curve" smooth="yes"/>
      <point x="-150" y="1026"/>
      <point x="-160" y="1016"/>
      <point x="-160" y="1002" type="curve" smooth="yes"/>
      <point x="-160" y="988"/>
      <point x="-150" y="978"/>
    </contour>
  </outline>
</glyph>
<glyph name="dvAnusvara" format="2">
  <unicode hex="0902"/>
  <guideline x="-136" y="712" angle="90"/>
  <anchor x="-127" y="740" name="_abvm.e"/>
  <outline>
    <contour>
      <point x="-135" y="855" type="curve" smooth="yes"/>
      <point x="-121" y="855"/>
      <point x="-111" y="865"/>
      <point x="-111" y="879" type="curve" smooth="yes"/>
      <point x="-111" y="893"/>
      <point x="-121" y="903"/>
      <point x="-135" y="903" type="curve" smooth="yes"/>
      <point x="-150" y="903"/>
      <point x="-160" y="893"/>
      <point x="-160" y="879" type="curve" smooth="yes"/>
      <point x="-160" y="865"/>
      <point x="-150" y="855"/>
    </contour>
  </outline>
</glyph>
<glyph name="dvVisarga" format="2">
  <advance width="189"/>
  <unicode hex="0903"/>
  <outline>
    <contour>
      <point x="95" y="489" type="curve" smooth="yes"/>
      <point x="109" y="489"/>
      <point x="119" y="499"/>
      <point x="119" y="513" type="curve" smooth="yes"/>
      <point x="119" y="527"/>
      <point x="109" y="537"/>
      <point x="95" y="537" type="curve" smooth="yes"/>
      <point x="80" y="537"/>
      <point x="70" y="527"/>
      <point x="70" y="513" type="curve" smooth="yes"/>
      <point x="70" y="499"/>
      <point x="80" y="489"/>
    </contour>
    <contour>
      <point x="95" y="173" type="curve" smooth="yes"/>
      <point x="109" y="173"/>
      <point x="119" y="183"/>
      <point x="119" y="197" type="curve" smooth="yes"/>
      <point x="119" y="211"/>
      <point x="109" y="221"/>
      <point x="95" y="221" type="curve" smooth="yes"/>
      <point x="80" y="221"/>
      <point x="70" y="211"/>
      <point x="70" y="197" type="curve" smooth="yes"/>
      <point x="70" y="183"/>
      <point x="80" y="173"/>
    </contour>
  </outline>
</glyph>
<glyph name="dvU" format="2">
  <advance width="584"/>
  <unicode hex="0909"/>
  <anchor x="300" y="740" name="abvm.e"/>
  <outline>
    <contour>
      <point x="290" y="2" type="curve" smooth="yes"/>
      <point x="423" y="2"/>
      <point x="502" y="93"/>
      <point x="502" y="216" type="curve" smooth="yes"/>
      <point x="502" y="317"/>
      <point x="442" y="407"/>
      <point x="339" y="424" type="curve"/>
      <point x="339" y="425" type="line"/>
      <point x="413" y="436"/>
      <point x="467" y="498"/>
      <point x="467" y="582" type="curve" smooth="yes"/>
      <point x="467" y="731" type="line"/>
      <point x="450" y="731" type="line"/>
      <point x="450" y="585" type="line" smooth="yes"/>
      <point x="450" y="506"/>
      <point x="401" y="431"/>
      <point x="284" y="431" type="curve" smooth="yes"/>
      <point x="250" y="431" type="line"/>
      <point x="250" y="415" type="line"/>
      <point x="284" y="415" type="line" smooth="yes"/>
      <point x="431" y="415"/>
      <point x="485" y="306"/>
      <point x="485" y="216" type="curve" smooth="yes"/>
      <point x="485" y="101"/>
      <point x="409" y="18"/>
      <point x="290" y="18" type="curve" smooth="yes"/>
      <point x="171" y="18"/>
      <point x="78" y="105"/>
      <point x="78" y="217" type="curve"/>
      <point x="61" y="217" type="line"/>
      <point x="61" y="97"/>
      <point x="158" y="2"/>
    </contour>
    <contour>
      <point x="-35" y="724" type="line"/>
      <point x="619" y="724" type="line"/>
      <point x="619" y="740" type="line"/>
      <point x="-35" y="740" type="line"/>
    </contour>
  </outline>
</glyph>
<glyph name="dvUU" format="2">
  <advance width="876"/>
  <unicode hex="090A"/>
  <anchor x="465" y="740" name="abvm.e"/>
  <outline>
    <contour>
      <point x="290" y="2" type="curve" smooth="yes"/>
      <point x="423" y="2"/>
      <point x="502" y="93"/>
      <point x="502" y="216" type="curve" smooth="yes"/>
      <point x="502" y="317"/>
      <point x="442" y="407"/>
      <point x="339" y="424" type="curve"/>
      <point x="339" y="425" type="line"/>
      <point x="413" y="436"/>
      <point x="467" y="498"/>
      <point x="467" y="582" type="curve" smooth="yes"/>
      <point x="467" y="731" type="line"/>
      <point x="450" y="731" type="line"/>
      <point x="450" y="585" type="line" smooth="yes"/>
      <point x="450" y="506"/>
      <point x="401" y="431"/>
      <point x="284" y="431" type="curve" smooth="yes"/>
      <point x="250" y="431" type="line"/>
      <point x="250" y="415" type="line"/>
      <point x="284" y="415" type="line" smooth="yes"/>
      <point x="431" y="415"/>
      <point x="485" y="306"/>
      <point x="485" y="216" type="curve" smooth="yes"/>
      <point x="485" y="101"/>
      <point x="409" y="18"/>
      <point x="290" y="18" type="curve" smooth="yes"/>
      <point x="171" y="18"/>
      <point x="78" y="105"/>
      <point x="78" y="217" type="curve"/>
      <point x="61" y="217" type="line"/>
      <point x="61" y="97"/>
      <point x="158" y="2"/>
    </contour>
    <contour>
      <point x="605" y="35" type="curve" smooth="yes"/>
      <point x="706" y="35"/>
      <point x="802" y="82"/>
      <point x="802" y="227" type="curve" smooth="yes"/>
      <point x="802" y="373"/>
      <point x="692" y="424"/>
      <point x="572" y="424" type="curve" smooth="yes"/>
      <point x="335" y="424" type="line"/>
      <point x="355" y="408" type="line"/>
      <point x="572" y="408" type="line" smooth="yes"/>
      <point x="683" y="408"/>
      <point x="785" y="363"/>
      <point x="785" y="227" type="curve" smooth="yes"/>
      <point x="785" y="95"/>
      <point x="701" y="50"/>
      <point x="606" y="50" type="curve" smooth="yes"/>
      <point x="595" y="50"/>
      <point x="582" y="51"/>
      <point x="569" y="52" type="curve"/>
      <point x="569" y="37" type="line"/>
      <point x="581" y="36"/>
      <point x="593" y="35"/>
    </contour>
    <contour>
      <point x="-35" y="724" type="line"/>
      <point x="911" y="724" type="line"/>
      <point x="911" y="740" type="line"/>
      <point x="-35" y="740" type="line"/>
    </contour>
  </outline>
</glyph>
<glyph name="dvvR" format="2">
  <advance width="994"/>
  <unicode hex="090B"/>
  <anchor x="535" y="740" name="abvm.e"/>
  <outline>
    <contour>
      <point x="518" y="0" type="line"/>
      <point x="535" y="0" type="line"/>
      <point x="535" y="724" type="line"/>
      <point x="1029" y="724" type="line"/>
      <point x="1029" y="740" type="line"/>
      <point x="-35" y="740" type="line"/>
      <point x="-35" y="724" type="line"/>
      <point x="518" y="724" type="line"/>
    </contour>
    <contour>
      <point x="149" y="0" type="line"/>
      <point x="167" y="0" type="line"/>
      <point x="527" y="387" type="line"/>
      <point x="522" y="405" type="line"/>
      <point x="149" y="4" type="line"/>
    </contour>
    <contour>
      <point x="533" y="377" type="line"/>
      <point x="533" y="499"/>
      <point x="452" y="596"/>
      <point x="315" y="596" type="curve" smooth="yes"/>
      <point x="182" y="596"/>
      <point x="80" y="503"/>
      <point x="80" y="352" type="curve"/>
      <point x="97" y="352" type="line"/>
      <point x="97" y="494"/>
      <point x="191" y="580"/>
      <point x="317" y="580" type="curve" smooth="yes"/>
      <point x="439" y="580"/>
      <point x="518" y="490"/>
      <point x="518" y="377" type="curve"/>
    </contour>
    <contour>
      <point x="847" y="-46" type="curve" smooth="yes"/>
      <point x="868" y="-46"/>
      <point x="893" y="-41"/>
      <point x="905" y="-36" type="curve"/>
      <point x="905" y="-20" type="line"/>
      <point x="892" y="-25"/>
      <point x="869" y="-30"/>
      <point x="847" y="-30" type="curve" smooth="yes"/>
      <point x="772" y="-30"/>
      <point x="706" y="7"/>
      <point x="706" y="104" type="curve" smooth="yes"/>
      <point x="706" y="179"/>
      <point x="758" y="241"/>
      <point x="852" y="241" type="curve" smooth="yes"/>
      <point x="864" y="241" type="line"/>
      <point x="864" y="257" type="line"/>
      <point x="852" y="257" type="line" smooth="yes"/>
      <point x="747" y="257"/>
      <point x="689" y="188"/>
      <point x="689" y="104" type="curve" smooth="yes"/>
      <point x="689" y="-1"/>
      <point x="764" y="-46"/>
    </contour>
    <contour>
      <point x="526" y="410" type="line"/>
      <point x="743" y="410" type="line" smooth="yes"/>
      <point x="830" y="410"/>
      <point x="863" y="457"/>
      <point x="863" y="520" type="curve" smooth="yes"/>
      <point x="863" y="568" type="line"/>
      <point x="847" y="568" type="line"/>
      <point x="847" y="520" type="line" smooth="yes"/>
      <point x="847" y="466"/>
      <point x="822" y="426"/>
      <point x="744" y="426" type="curve" smooth="yes"/>
      <point x="526" y="426" type="line"/>
    </contour>
    <contour>
      <point x="847" y="241" type="line"/>
      <point x="864" y="241" type="line"/>
      <point x="864" y="598" type="line"/>
      <point x="847" y="598" type="line"/>
    </contour>
  </outline>
</glyph>
<glyph name="dvE" format="2">
  <advance width="651"/>
  <unicode hex="090F"/>
  <anchor x="355" y="740" name="abvm.e"/>
  <outline>
    <contour>
      <point x="350" y="19" type="curve" smooth="yes"/>
      <point x="491" y="19"/>
      <point x="569" y="106"/>
      <point x="569" y="250" type="curve"/>
      <point x="552" y="250" type="line"/>
      <point x="552" y="114"/>
      <point x="479" y="35"/>
      <point x="350" y="35" type="curve" smooth="yes"/>
      <point x="203" y="35"/>
      <point x="137" y="131"/>
      <point x="137" y="278" type="curve" smooth="yes"/>
      <point x="137" y="731" type="line"/>
      <point x="120" y="731" type="line"/>
      <point x="120" y="278" type="line" smooth="yes"/>
      <point x="120" y="123"/>
      <point x="190" y="19"/>
    </contour>
    <contour>
      <point x="373" y="382" type="line"/>
      <point x="501" y="374"/>
      <point x="552" y="430"/>
      <point x="552" y="576" type="curve" smooth="yes"/>
      <point x="552" y="730" type="line"/>
      <point x="535" y="730" type="line"/>
      <point x="535" y="576" type="line" smooth="yes"/>
      <point x="535" y="442"/>
      <point x="490" y="390"/>
      <point x="373" y="398" type="curve"/>
    </contour>
    <contour>
      <point x="-35" y="724" type="line"/>
      <point x="686" y="724" type="line"/>
      <point x="686" y="740" type="line"/>
      <point x="-35" y="740" type="line"/>
    </contour>
  </outline>
</glyph>
<glyph name="dvGHA" format="2">
  <advance width="721"/>
  <unicode hex="0918"/>
  <outline>
    <contour>
      <point x="329" y="116" type="curve" smooth="yes"/>
      <point x="482" y="116"/>
      <point x="592" y="220"/>
      <point x="592" y="364" type="curve"/>
      <point x="577" y="364" type="line"/>
      <point x="577" y="227"/>
      <point x="466" y="132"/>
      <point x="329" y="132" type="curve" smooth="yes"/>
      <point x="208" y="132"/>
      <point x="115" y="185"/>
      <point x="115" y="299" type="curve" smooth="yes"/>
      <point x="115" y="382"/>
      <point x="172" y="451"/>
      <point x="314" y="451" type="curve" smooth="yes"/>
      <point x="368" y="451" type="line"/>
      <point x="368" y="467" type="line"/>
      <point x="314" y="467" type="line" smooth="yes"/>
      <point x="188" y="467"/>
      <point x="136" y="521"/>
      <point x="136" y="622" type="curve" smooth="yes"/>
      <point x="136" y="731" type="line"/>
      <point x="119" y="731" type="line"/>
      <point x="119" y="622" type="line" smooth="yes"/>
      <point x="119" y="513"/>
      <point x="181" y="468"/>
      <point x="254" y="460" type="curve"/>
      <point x="254" y="458" type="line"/>
      <point x="171" y="451"/>
      <point x="98" y="395"/>
      <point x="98" y="299" type="curve" smooth="yes"/>
      <point x="98" y="178"/>
      <point x="192" y="116"/>
    </contour>
    <contour>
      <point x="577" y="0" type="line"/>
      <point x="594" y="0" type="line"/>
      <point x="594" y="732" type="line"/>
      <point x="577" y="732" type="line"/>
    </contour>
    <contour>
      <point x="-35" y="724" type="line"/>
      <point x="756" y="724" type="line"/>
      <point x="756" y="740" type="line"/>
      <point x="-35" y="740" type="line"/>
    </contour>
  </outline>
</glyph>
<glyph name="dvNGA" format="2">
  <advance width="622"/>
  <unicode hex="0919"/>
  <anchor x="461" y="740" name="abvm.e"/>
  <anchor x="351" y="-99" name="blwm.u"/>
  <anchor x="352" y="-9" name="blwm.virama"/>
  <outline>
    <contour>
      <point x="322" y="-9" type="curve" smooth="yes"/>
      <point x="455" y="-9"/>
      <point x="520" y="62"/>
      <point x="520" y="150" type="curve" smooth="yes"/>
      <point x="520" y="276"/>
      <point x="416" y="314"/>
      <point x="316" y="314" type="curve" smooth="yes"/>
      <point x="301" y="314"/>
      <point x="285" y="314"/>
      <point x="271" y="314" type="curve" smooth="yes"/>
      <point x="194" y="314"/>
      <point x="122" y="343"/>
      <point x="122" y="429" type="curve" smooth="yes"/>
      <point x="122" y="528"/>
      <point x="216" y="546"/>
      <point x="292" y="546" type="curve" smooth="yes"/>
      <point x="461" y="546" type="line"/>
      <point x="461" y="562" type="line"/>
      <point x="284" y="562" type="line" smooth="yes"/>
      <point x="201" y="562"/>
      <point x="105" y="535"/>
      <point x="105" y="429" type="curve" smooth="yes"/>
      <point x="105" y="338"/>
      <point x="178" y="298"/>
      <point x="270" y="298" type="curve" smooth="yes"/>
      <point x="282" y="298"/>
      <point x="299" y="298"/>
      <point x="315" y="298" type="curve" smooth="yes"/>
      <point x="404" y="298"/>
      <point x="503" y="268"/>
      <point x="503" y="150" type="curve" smooth="yes"/>
      <point x="503" y="72"/>
      <point x="446" y="7"/>
      <point x="322" y="7" type="curve" smooth="yes"/>
      <point x="172" y="7"/>
      <point x="105" y="88"/>
      <point x="105" y="184" type="curve"/>
      <point x="88" y="184" type="line"/>
      <point x="88" y="75"/>
      <point x="167" y="-9"/>
    </contour>
    <contour>
      <point x="569" y="391" type="curve" smooth="yes"/>
      <point x="583" y="391"/>
      <point x="593" y="401"/>
      <point x="593" y="415" type="curve" smooth="yes"/>
      <point x="593" y="429"/>
      <point x="583" y="439"/>
      <point x="569" y="439" type="curve" smooth="yes"/>
      <point x="554" y="439"/>
      <point x="544" y="429"/>
      <point x="544" y="415" type="curve" smooth="yes"/>
      <point x="544" y="401"/>
      <point x="554" y="391"/>
    </contour>
    <contour>
      <point x="444" y="546" type="line"/>
      <point x="461" y="546" type="line"/>
      <point x="461" y="732" type="line"/>
      <point x="444" y="732" type="line"/>
    </contour>
    <contour>
      <point x="-35" y="724" type="line"/>
      <point x="657" y="724" type="line"/>
      <point x="657" y="740" type="line"/>
      <point x="-35" y="740" type="line"/>
    </contour>
  </outline>
</glyph>
<glyph name="dvCHA" format="2">
  <advance width="811"/>
  <unicode hex="091B"/>
  <anchor x="600" y="740" name="abvm.e"/>
  <anchor x="427" y="-57" name="blwm.u"/>
  <anchor x="428" y="33" name="blwm.virama"/>
  <outline>
    <contour>
      <point x="394" y="33" type="curve" smooth="yes"/>
      <point x="602" y="33"/>
      <point x="761" y="152"/>
      <point x="761" y="356" type="curve" smooth="yes"/>
      <point x="761" y="499"/>
      <point x="676" y="561"/>
      <point x="591" y="561" type="curve" smooth="yes"/>
      <point x="517" y="561"/>
      <point x="431" y="520"/>
      <point x="431" y="397" type="curve" smooth="yes"/>
      <point x="431" y="365"/>
      <point x="437" y="329"/>
      <point x="451" y="290" type="curve"/>
      <point x="468" y="290" type="line"/>
      <point x="455" y="329"/>
      <point x="448" y="365"/>
      <point x="448" y="397" type="curve" smooth="yes"/>
      <point x="448" y="510"/>
      <point x="529" y="545"/>
      <point x="591" y="545" type="curve" smooth="yes"/>
      <point x="664" y="545"/>
      <point x="744" y="488"/>
      <point x="744" y="355" type="curve" smooth="yes"/>
      <point x="744" y="167"/>
      <point x="589" y="49"/>
      <point x="394" y="49" type="curve" smooth="yes"/>
      <point x="227" y="49"/>
      <point x="101" y="116"/>
      <point x="101" y="251" type="curve" smooth="yes"/>
      <point x="101" y="342"/>
      <point x="161" y="418"/>
      <point x="309" y="418" type="curve" smooth="yes"/>
      <point x="333" y="418" type="line"/>
      <point x="333" y="434" type="line"/>
      <point x="309" y="434" type="line" smooth="yes"/>
      <point x="183" y="434"/>
      <point x="131" y="488"/>
      <point x="131" y="589" type="curve" smooth="yes"/>
      <point x="131" y="731" type="line"/>
      <point x="114" y="731" type="line"/>
      <point x="114" y="589" type="line" smooth="yes"/>
      <point x="114" y="480"/>
      <point x="176" y="435"/>
      <point x="249" y="427" type="curve"/>
      <point x="249" y="425" type="line"/>
      <point x="161" y="417"/>
      <point x="84" y="359"/>
      <point x="84" y="251" type="curve" smooth="yes"/>
      <point x="84" y="110"/>
      <point x="210" y="33"/>
    </contour>
    <contour>
      <point x="-35" y="724" type="line"/>
      <point x="846" y="724" type="line"/>
      <point x="846" y="740" type="line"/>
      <point x="-35" y="740" type="line"/>
    </contour>
    <contour>
      <point x="583" y="551" type="line"/>
      <point x="600" y="551" type="line"/>
      <point x="600" y="732" type="line"/>
      <point x="583" y="732" type="line"/>
    </contour>
  </outline>
</glyph>
<glyph name="dvJA" format="2">
  <advance width="823"/>
  <unicode hex="091C"/>
  <outline>
    <contour>
      <point x="255" y="159" type="curve" smooth="yes"/>
      <point x="359" y="159"/>
      <point x="422" y="234"/>
      <point x="422" y="340" type="curve" smooth="yes"/>
      <point x="422" y="509" type="line"/>
      <point x="405" y="509" type="line"/>
      <point x="405" y="339" type="line" smooth="yes"/>
      <point x="405" y="243"/>
      <point x="348" y="175"/>
      <point x="256" y="175" type="curve" smooth="yes"/>
      <point x="168" y="175"/>
      <point x="113" y="243"/>
      <point x="113" y="339" type="curve" smooth="yes"/>
      <point x="113" y="509" type="line"/>
      <point x="96" y="509" type="line"/>
      <point x="96" y="340" type="line" smooth="yes"/>
      <point x="96" y="234"/>
      <point x="156" y="159"/>
    </contour>
    <contour>
      <point x="415" y="493" type="line"/>
      <point x="687" y="493" type="line"/>
      <point x="687" y="509" type="line"/>
      <point x="415" y="509" type="line"/>
    </contour>
    <contour>
      <point x="679" y="0" type="line"/>
      <point x="696" y="0" type="line"/>
      <point x="696" y="732" type="line"/>
      <point x="679" y="732" type="line"/>
    </contour>
    <contour>
      <point x="-35" y="724" type="line"/>
      <point x="858" y="724" type="line"/>
      <point x="858" y="740" type="line"/>
      <point x="-35" y="740" type="line"/>
    </contour>
  </outline>
</glyph>
<glyph name="dvTTA" format="2">
  <advance width="654"/>
  <unicode hex="091F"/>
  <anchor x="441" y="740" name="abvm.e"/>
  <anchor x="357" y="-27" name="blwm.u"/>
  <anchor x="357" y="63" name="blwm.virama"/>
  <outline>
    <contour>
      <point x="340" y="63" type="curve" smooth="yes"/>
      <point x="491" y="63"/>
      <point x="594" y="169"/>
      <point x="594" y="320" type="curve"/>
      <point x="577" y="320" type="line"/>
      <point x="577" y="179"/>
      <point x="479" y="79"/>
      <point x="340" y="79" type="curve" smooth="yes"/>
      <point x="204" y="79"/>
      <point x="102" y="176"/>
      <point x="102" y="312" type="curve" smooth="yes"/>
      <point x="102" y="479"/>
      <point x="220" y="557"/>
      <point x="373" y="557" type="curve" smooth="yes"/>
      <point x="441" y="557" type="line"/>
      <point x="441" y="728" type="line"/>
      <point x="424" y="728" type="line"/>
      <point x="424" y="564" type="line"/>
      <point x="433" y="573" type="line"/>
      <point x="373" y="573" type="line" smooth="yes"/>
      <point x="212" y="573"/>
      <point x="85" y="492"/>
      <point x="85" y="311" type="curve" smooth="yes"/>
      <point x="85" y="166"/>
      <point x="194" y="63"/>
    </contour>
    <contour>
      <point x="-35" y="724" type="line"/>
      <point x="689" y="724" type="line"/>
      <point x="689" y="740" type="line"/>
      <point x="-35" y="740" type="line"/>
    </contour>
  </outline>
</glyph>
<glyph name="dvTTHA" format="2">
  <advance width="680"/>
  <unicode hex="0920"/>
  <anchor x="348" y="740" name="abvm.e"/>
  <anchor x="357" y="-27" name="blwm.u"/>
  <anchor x="357" y="63" name="blwm.virama"/>
  <outline>
    <contour>
      <point x="340" y="63" type="curve" smooth="yes"/>
      <point x="486" y="63"/>
      <point x="595" y="166"/>
      <point x="595" y="311" type="curve" smooth="yes"/>
      <point x="595" y="456"/>
      <point x="486" y="559"/>
      <point x="340" y="559" type="curve" smooth="yes"/>
      <point x="194" y="559"/>
      <point x="85" y="456"/>
      <point x="85" y="311" type="curve" smooth="yes"/>
      <point x="85" y="166"/>
      <point x="194" y="63"/>
    </contour>
    <contour>
      <point x="340" y="79" type="curve" smooth="yes"/>
      <point x="204" y="79"/>
      <point x="102" y="176"/>
      <point x="102" y="311" type="curve" smooth="yes"/>
      <point x="102" y="447"/>
      <point x="204" y="543"/>
      <point x="340" y="543" type="curve" smooth="yes"/>
      <point x="476" y="543"/>
      <point x="578" y="447"/>
      <point x="578" y="311" type="curve" smooth="yes"/>
      <point x="578" y="176"/>
      <point x="476" y="79"/>
    </contour>
    <contour>
      <point x="331" y="550" type="line"/>
      <point x="348" y="550" type="line"/>
      <point x="348" y="724" type="line"/>
      <point x="715" y="724" type="line"/>
      <point x="715" y="740" type="line"/>
      <point x="-35" y="740" type="line"/>
      <point x="-35" y="724" type="line"/>
      <point x="331" y="724" type="line"/>
    </contour>
  </outline>
</glyph>
<glyph name="dvDDA" format="2">
  <advance width="582"/>
  <unicode hex="0921"/>
  <anchor x="453" y="740" name="abvm.e"/>
  <anchor x="343" y="-99" name="blwm.u"/>
  <anchor x="343" y="-9" name="blwm.virama"/>
  <outline>
    <contour>
      <point x="322" y="-9" type="curve" smooth="yes"/>
      <point x="455" y="-9"/>
      <point x="520" y="62"/>
      <point x="520" y="150" type="curve" smooth="yes"/>
      <point x="520" y="276"/>
      <point x="416" y="314"/>
      <point x="316" y="314" type="curve" smooth="yes"/>
      <point x="301" y="314"/>
      <point x="285" y="314"/>
      <point x="271" y="314" type="curve" smooth="yes"/>
      <point x="194" y="314"/>
      <point x="122" y="343"/>
      <point x="122" y="429" type="curve" smooth="yes"/>
      <point x="122" y="528"/>
      <point x="216" y="546"/>
      <point x="292" y="546" type="curve" smooth="yes"/>
      <point x="453" y="546" type="line"/>
      <point x="453" y="562" type="line"/>
      <point x="284" y="562" type="line" smooth="yes"/>
      <point x="201" y="562"/>
      <point x="105" y="535"/>
      <point x="105" y="429" type="curve" smooth="yes"/>
      <point x="105" y="338"/>
      <point x="178" y="298"/>
      <point x="270" y="298" type="curve" smooth="yes"/>
      <point x="282" y="298"/>
      <point x="299" y="298"/>
      <point x="315" y="298" type="curve" smooth="yes"/>
      <point x="404" y="298"/>
      <point x="503" y="268"/>
      <point x="503" y="150" type="curve" smooth="yes"/>
      <point x="503" y="72"/>
      <point x="446" y="7"/>
      <point x="322" y="7" type="curve" smooth="yes"/>
      <point x="172" y="7"/>
      <point x="105" y="88"/>
      <point x="105" y="184" type="curve"/>
      <point x="88" y="184" type="line"/>
      <point x="88" y="75"/>
      <point x="167" y="-9"/>
    </contour>
    <contour>
      <point x="-35" y="724" type="line"/>
      <point x="617" y="724" type="line"/>
      <point x="617" y="740" type="line"/>
      <point x="-35" y="740" type="line"/>
    </contour>
    <contour>
      <point x="436" y="546" type="line"/>
      <point x="453" y="546" type="line"/>
      <point x="453" y="732" type="line"/>
      <point x="436" y="732" type="line"/>
    </contour>
  </outline>
</glyph>
<glyph name="dvDDHA" format="2">
  <advance width="628"/>
  <unicode hex="0922"/>
  <guideline x="594" y="-9" angle="90"/>
  <anchor x="459" y="740" name="abvm.e"/>
  <anchor x="387" y="-67" name="blwm.u"/>
  <anchor x="387" y="23" name="blwm.virama"/>
  <outline>
    <contour>
      <point x="367" y="23" type="curve" smooth="yes"/>
      <point x="497" y="23"/>
      <point x="586" y="102"/>
      <point x="586" y="211" type="curve" smooth="yes"/>
      <point x="586" y="304"/>
      <point x="523" y="371"/>
      <point x="429" y="371" type="curve" smooth="yes"/>
      <point x="351" y="371"/>
      <point x="285" y="319"/>
      <point x="285" y="233" type="curve" smooth="yes"/>
      <point x="285" y="226"/>
      <point x="286" y="216"/>
      <point x="287" y="210" type="curve"/>
      <point x="304" y="210" type="line"/>
      <point x="303" y="216"/>
      <point x="302" y="225"/>
      <point x="302" y="232" type="curve" smooth="yes"/>
      <point x="302" y="308"/>
      <point x="362" y="355"/>
      <point x="429" y="355" type="curve" smooth="yes"/>
      <point x="511" y="355"/>
      <point x="569" y="294"/>
      <point x="569" y="211" type="curve" smooth="yes"/>
      <point x="569" y="112"/>
      <point x="485" y="39"/>
      <point x="367" y="39" type="curve" smooth="yes"/>
      <point x="216" y="39"/>
      <point x="102" y="143"/>
      <point x="102" y="295" type="curve" smooth="yes"/>
      <point x="102" y="474"/>
      <point x="224" y="557"/>
      <point x="383" y="557" type="curve" smooth="yes"/>
      <point x="459" y="557" type="line"/>
      <point x="459" y="728" type="line"/>
      <point x="442" y="728" type="line"/>
      <point x="442" y="564" type="line"/>
      <point x="451" y="573" type="line"/>
      <point x="383" y="573" type="line" smooth="yes"/>
      <point x="216" y="573"/>
      <point x="85" y="487"/>
      <point x="85" y="294" type="curve" smooth="yes"/>
      <point x="85" y="133"/>
      <point x="206" y="23"/>
    </contour>
    <contour>
      <point x="-35" y="724" type="line"/>
      <point x="663" y="724" type="line"/>
      <point x="663" y="740" type="line"/>
      <point x="-35" y="740" type="line"/>
    </contour>
  </outline>
</glyph>
<glyph name="dvNNA" format="2">
  <advance width="820"/>
  <unicode hex="0923"/>
  <outline>
    <contour>
      <point x="262" y="218" type="curve" smooth="yes"/>
      <point x="366" y="218"/>
      <point x="426" y="293"/>
      <point x="426" y="399" type="curve" smooth="yes"/>
      <point x="426" y="733" type="line"/>
      <point x="409" y="733" type="line"/>
      <point x="409" y="398" type="line" smooth="yes"/>
      <point x="409" y="302"/>
      <point x="355" y="234"/>
      <point x="263" y="234" type="curve" smooth="yes"/>
      <point x="173" y="234"/>
      <point x="117" y="302"/>
      <point x="117" y="398" type="curve" smooth="yes"/>
      <point x="117" y="733" type="line"/>
      <point x="100" y="733" type="line"/>
      <point x="100" y="399" type="line" smooth="yes"/>
      <point x="100" y="293"/>
      <point x="161" y="218"/>
    </contour>
    <contour>
      <point x="676" y="0" type="line"/>
      <point x="693" y="0" type="line"/>
      <point x="693" y="733" type="line"/>
      <point x="676" y="733" type="line"/>
    </contour>
    <contour>
      <point x="-35" y="724" type="line"/>
      <point x="855" y="724" type="line"/>
      <point x="855" y="740" type="line"/>
      <point x="-35" y="740" type="line"/>
    </contour>
  </outline>
</glyph>
<glyph name="dvDA" format="2">
  <advance width="607"/>
  <unicode hex="0926"/>
  <anchor x="471" y="740" name="abvm.e"/>
  <anchor x="516" y="0" name="blwm.u"/>
  <anchor x="516" y="0" name="blwm.virama"/>
  <outline>
    <contour>
      <point x="499" y="0" type="line"/>
      <point x="516" y="0" type="line"/>
      <point x="516" y="321" type="line"/>
      <point x="501" y="321" type="line"/>
      <point x="501" y="193"/>
      <point x="393" y="145"/>
      <point x="313" y="145" type="curve" smooth="yes"/>
      <point x="184" y="145"/>
      <point x="102" y="228"/>
      <point x="102" y="355" type="curve" smooth="yes"/>
      <point x="102" y="502"/>
      <point x="217" y="572"/>
      <point x="350" y="572" type="curve" smooth="yes"/>
      <point x="471" y="572" type="line"/>
      <point x="471" y="732" type="line"/>
      <point x="454" y="732" type="line"/>
      <point x="454" y="588" type="line"/>
      <point x="350" y="588" type="line" smooth="yes"/>
      <point x="209" y="588"/>
      <point x="85" y="515"/>
      <point x="85" y="355" type="curve" smooth="yes"/>
      <point x="85" y="221"/>
      <point x="170" y="129"/>
      <point x="311" y="129" type="curve" smooth="yes"/>
      <point x="404" y="129"/>
      <point x="481" y="180"/>
      <point x="501" y="246" type="curve"/>
      <point x="499" y="250" type="line"/>
    </contour>
    <contour>
      <point x="-35" y="724" type="line"/>
      <point x="642" y="724" type="line"/>
      <point x="642" y="740" type="line"/>
      <point x="-35" y="740" type="line"/>
    </contour>
  </outline>
</glyph>
<glyph name="dvBA" format="2">
  <advance width="690"/>
  <unicode hex="092C"/>
  <outline>
    <contour>
      <point x="546" y="0" type="line"/>
      <point x="563" y="0" type="line"/>
      <point x="563" y="724" type="line"/>
      <point x="725" y="724" type="line"/>
      <point x="725" y="740" type="line"/>
      <point x="-35" y="740" type="line"/>
      <point x="-35" y="724" type="line"/>
      <point x="546" y="724" type="line"/>
      <point x="546" y="410" type="line"/>
      <point x="559" y="353" type="line"/>
      <point x="567" y="459"/>
      <point x="490" y="593"/>
      <point x="324" y="593" type="curve" smooth="yes"/>
      <point x="192" y="593"/>
      <point x="85" y="502"/>
      <point x="85" y="353" type="curve" smooth="yes"/>
      <point x="85" y="207"/>
      <point x="196" y="120"/>
      <point x="327" y="120" type="curve" smooth="yes"/>
      <point x="471" y="120"/>
      <point x="548" y="221"/>
      <point x="558" y="316" type="curve"/>
      <point x="546" y="305" type="line"/>
    </contour>
    <contour>
      <point x="327" y="136" type="curve" smooth="yes"/>
      <point x="205" y="136"/>
      <point x="102" y="215"/>
      <point x="102" y="353" type="curve" smooth="yes"/>
      <point x="102" y="494"/>
      <point x="203" y="577"/>
      <point x="324" y="577" type="curve" smooth="yes"/>
      <point x="477" y="577"/>
      <point x="546" y="458"/>
      <point x="546" y="355" type="curve"/>
      <point x="546" y="261"/>
      <point x="482" y="136"/>
    </contour>
    <contour>
      <point x="491" y="187" type="line"/>
      <point x="502" y="198" type="line"/>
      <point x="162" y="526" type="line"/>
      <point x="150" y="516" type="line"/>
    </contour>
  </outline>
</glyph>
<glyph name="dvYA" format="2">
  <advance width="720"/>
  <unicode hex="092F"/>
  <outline>
    <contour>
      <point x="340" y="138" type="curve" smooth="yes"/>
      <point x="482" y="138"/>
      <point x="562" y="226"/>
      <point x="580" y="299" type="curve"/>
      <point x="576" y="368" type="line"/>
      <point x="576" y="238"/>
      <point x="466" y="154"/>
      <point x="341" y="154" type="curve" smooth="yes"/>
      <point x="188" y="154"/>
      <point x="97" y="253"/>
      <point x="97" y="420" type="curve" smooth="yes"/>
      <point x="97" y="425"/>
      <point x="97" y="434"/>
      <point x="98" y="446" type="curve"/>
      <point x="89" y="439" type="line"/>
      <point x="101" y="439" type="line" smooth="yes"/>
      <point x="229" y="439"/>
      <point x="325" y="480"/>
      <point x="325" y="635" type="curve" smooth="yes"/>
      <point x="325" y="733" type="line"/>
      <point x="308" y="733" type="line"/>
      <point x="308" y="635" type="line" smooth="yes"/>
      <point x="308" y="486"/>
      <point x="213" y="455"/>
      <point x="101" y="455" type="curve" smooth="yes"/>
      <point x="83" y="455" type="line"/>
      <point x="82" y="445"/>
      <point x="81" y="431"/>
      <point x="81" y="420" type="curve" smooth="yes"/>
      <point x="81" y="249"/>
      <point x="174" y="138"/>
    </contour>
    <contour>
      <point x="576" y="0" type="line"/>
      <point x="593" y="0" type="line"/>
      <point x="593" y="730" type="line"/>
      <point x="576" y="730" type="line"/>
    </contour>
    <contour>
      <point x="-35" y="724" type="line"/>
      <point x="755" y="724" type="line"/>
      <point x="755" y="740" type="line"/>
      <point x="-35" y="740" type="line"/>
    </contour>
  </outline>
</glyph>
<glyph name="dvRA" format="2">
  <advance width="539"/>
  <unicode hex="0930"/>
  <anchor x="424" y="740" name="abvm.e"/>
  <outline>
    <contour>
      <point x="279" y="-9" type="curve" smooth="yes"/>
      <point x="389" y="-9"/>
      <point x="458" y="68"/>
      <point x="458" y="188" type="curve" smooth="yes"/>
      <point x="458" y="191"/>
      <point x="458" y="195"/>
      <point x="458" y="199" type="curve"/>
      <point x="441" y="199" type="line"/>
      <point x="441" y="188" type="line" smooth="yes"/>
      <point x="441" y="79"/>
      <point x="379" y="7"/>
      <point x="279" y="7" type="curve" smooth="yes"/>
      <point x="169" y="7"/>
      <point x="117" y="89"/>
      <point x="117" y="204" type="curve" smooth="yes"/>
      <point x="117" y="383" type="line"/>
      <point x="108" y="374" type="line"/>
      <point x="210" y="374" type="line" smooth="yes"/>
      <point x="340" y="374"/>
      <point x="424" y="440"/>
      <point x="424" y="591" type="curve" smooth="yes"/>
      <point x="424" y="730" type="line"/>
      <point x="407" y="730" type="line"/>
      <point x="407" y="591" type="line" smooth="yes"/>
      <point x="407" y="452"/>
      <point x="330" y="390"/>
      <point x="210" y="390" type="curve" smooth="yes"/>
      <point x="100" y="390" type="line"/>
      <point x="100" y="205" type="line" smooth="yes"/>
      <point x="100" y="78"/>
      <point x="159" y="-9"/>
    </contour>
    <contour>
      <point x="-35" y="724" type="line"/>
      <point x="574" y="724" type="line"/>
      <point x="574" y="740" type="line"/>
      <point x="-35" y="740" type="line"/>
    </contour>
  </outline>
</glyph>
<glyph name="dvSHA" format="2">
  <advance width="777"/>
  <unicode hex="0936"/>
  <outline>
    <contour>
      <point x="299" y="-9" type="curve" smooth="yes"/>
      <point x="409" y="-9"/>
      <point x="478" y="68"/>
      <point x="478" y="188" type="curve" smooth="yes"/>
      <point x="478" y="191"/>
      <point x="478" y="195"/>
      <point x="478" y="199" type="curve"/>
      <point x="461" y="199" type="line"/>
      <point x="461" y="188" type="line" smooth="yes"/>
      <point x="461" y="79"/>
      <point x="399" y="7"/>
      <point x="299" y="7" type="curve" smooth="yes"/>
      <point x="182" y="7"/>
      <point x="127" y="89"/>
      <point x="127" y="204" type="curve" smooth="yes"/>
      <point x="127" y="358" type="line"/>
      <point x="118" y="349" type="line"/>
      <point x="263" y="349" type="line" smooth="yes"/>
      <point x="394" y="349"/>
      <point x="490" y="420"/>
      <point x="490" y="550" type="curve" smooth="yes"/>
      <point x="490" y="676"/>
      <point x="414" y="749"/>
      <point x="300" y="749" type="curve" smooth="yes"/>
      <point x="186" y="749"/>
      <point x="112" y="672"/>
      <point x="112" y="553" type="curve" smooth="yes"/>
      <point x="112" y="535"/>
      <point x="114" y="518"/>
      <point x="117" y="500" type="curve"/>
      <point x="134" y="500" type="line"/>
      <point x="131" y="518"/>
      <point x="129" y="535"/>
      <point x="129" y="553" type="curve" smooth="yes"/>
      <point x="129" y="664"/>
      <point x="198" y="733"/>
      <point x="300" y="733" type="curve" smooth="yes"/>
      <point x="404" y="733"/>
      <point x="473" y="665"/>
      <point x="473" y="550" type="curve" smooth="yes"/>
      <point x="473" y="431"/>
      <point x="385" y="365"/>
      <point x="263" y="365" type="curve" smooth="yes"/>
      <point x="110" y="365" type="line"/>
      <point x="110" y="205" type="line" smooth="yes"/>
      <point x="110" y="78"/>
      <point x="172" y="-9"/>
    </contour>
    <contour>
      <point x="633" y="0" type="line"/>
      <point x="650" y="0" type="line"/>
      <point x="650" y="724" type="line"/>
      <point x="812" y="724" type="line"/>
      <point x="812" y="740" type="line"/>
      <point x="633" y="740" type="line"/>
    </contour>
  </outline>
</glyph>
<glyph name="dvSSA" format="2">
  <advance width="635"/>
  <unicode hex="0937"/>
  <outline>
    <contour>
      <point x="306" y="231" type="curve" smooth="yes"/>
      <point x="431" y="231"/>
      <point x="505" y="317"/>
      <point x="505" y="435" type="curve"/>
      <point x="491" y="435" type="line"/>
      <point x="491" y="333"/>
      <point x="425" y="247"/>
      <point x="307" y="247" type="curve" smooth="yes"/>
      <point x="176" y="247"/>
      <point x="117" y="330"/>
      <point x="117" y="469" type="curve" smooth="yes"/>
      <point x="117" y="728" type="line"/>
      <point x="100" y="728" type="line"/>
      <point x="100" y="469" type="line" smooth="yes"/>
      <point x="100" y="320"/>
      <point x="168" y="231"/>
    </contour>
    <contour>
      <point x="495" y="359" type="line"/>
      <point x="504" y="372" type="line"/>
      <point x="115" y="726" type="line"/>
      <point x="106" y="713" type="line"/>
    </contour>
    <contour>
      <point x="491" y="0" type="line"/>
      <point x="508" y="0" type="line"/>
      <point x="508" y="728" type="line"/>
      <point x="491" y="728" type="line"/>
    </contour>
    <contour>
      <point x="-35" y="724" type="line"/>
      <point x="670" y="724" type="line"/>
      <point x="670" y="740" type="line"/>
      <point x="-35" y="740" type="line"/>
    </contour>
  </outline>
</glyph>
<glyph name="dvNukta" format="2">
  <unicode hex="093C"/>
  <outline>
    <contour>
      <point x="-427" y="-45" type="curve" smooth="yes"/>
      <point x="-413" y="-45"/>
      <point x="-403" y="-35"/>
      <point x="-403" y="-21" type="curve" smooth="yes"/>
      <point x="-403" y="-7"/>
      <point x="-413" y="3"/>
      <point x="-427" y="3" type="curve" smooth="yes"/>
      <point x="-442" y="3"/>
      <point x="-452" y="-7"/>
      <point x="-452" y="-21" type="curve" smooth="yes"/>
      <point x="-452" y="-35"/>
      <point x="-442" y="-45"/>
    </contour>
  </outline>
</glyph>
<glyph name="dvAvagraha" format="2">
  <advance width="558"/>
  <unicode hex="093D"/>
  <outline>
    <contour>
      <point x="93" y="75" type="line"/>
      <point x="324" y="75" type="line" smooth="yes"/>
      <point x="419" y="75"/>
      <point x="451" y="129"/>
      <point x="451" y="177" type="curve" smooth="yes"/>
      <point x="451" y="326"/>
      <point x="164" y="428"/>
      <point x="164" y="571" type="curve" smooth="yes"/>
      <point x="164" y="640"/>
      <point x="219" y="656"/>
      <point x="283" y="656" type="curve" smooth="yes"/>
      <point x="463" y="656" type="line"/>
      <point x="463" y="672" type="line"/>
      <point x="281" y="672" type="line" smooth="yes"/>
      <point x="212" y="672"/>
      <point x="147" y="651"/>
      <point x="147" y="571" type="curve" smooth="yes"/>
      <point x="147" y="416"/>
      <point x="434" y="315"/>
      <point x="434" y="177" type="curve" smooth="yes"/>
      <point x="434" y="131"/>
      <point x="398" y="91"/>
      <point x="324" y="91" type="curve" smooth="yes"/>
      <point x="93" y="91" type="line"/>
    </contour>
  </outline>
</glyph>
<glyph name="dvmAA" format="2">
  <advance width="271"/>
  <unicode hex="093E"/>
  <outline>
    <contour>
      <point x="127" y="0" type="line"/>
      <point x="144" y="0" type="line"/>
      <point x="144" y="724" type="line"/>
      <point x="306" y="724" type="line"/>
      <point x="306" y="740" type="line"/>
      <point x="-35" y="740" type="line"/>
      <point x="-35" y="724" type="line"/>
      <point x="127" y="724" type="line"/>
    </contour>
  </outline>
</glyph>
<glyph name="dvmI" format="2">
  <advance width="271"/>
  <unicode hex="093F"/>
  <outline>
    <contour>
      <point x="127" y="732" type="line"/>
      <point x="144" y="732" type="line"/>
      <point x="144" y="745" type="line" smooth="yes"/>
      <point x="144" y="927"/>
      <point x="344" y="949"/>
      <point x="482" y="949" type="curve" smooth="yes"/>
      <point x="618" y="949"/>
      <point x="819" y="913"/>
      <point x="819" y="750" type="curve" smooth="yes"/>
      <point x="819" y="733" type="line"/>
      <point x="836" y="733" type="line"/>
      <point x="836" y="750" type="line" smooth="yes"/>
      <point x="836" y="923"/>
      <point x="634" y="965"/>
      <point x="482" y="965" type="curve" smooth="yes"/>
      <point x="329" y="965"/>
      <point x="127" y="937"/>
      <point x="127" y="745" type="curve" smooth="yes"/>
    </contour>
    <component base="dvmAA"/>
  </outline>
</glyph>
<glyph name="dvmII" format="2">
  <advance width="271"/>
  <unicode hex="0940"/>
  <outline>
    <contour>
      <point x="-144" y="734" type="line"/>
      <point x="-127" y="734" type="line"/>
      <point x="-127" y="786" type="line" smooth="yes"/>
      <point x="-127" y="872"/>
      <point x="-95" y="949"/>
      <point x="1" y="949" type="curve" smooth="yes"/>
      <point x="97" y="949"/>
      <point x="127" y="872"/>
      <point x="127" y="786" type="curve" smooth="yes"/>
      <point x="127" y="733" type="line"/>
      <point x="144" y="733" type="line"/>
      <point x="144" y="786" type="line" smooth="yes"/>
      <point x="144" y="884"/>
      <point x="107" y="965"/>
      <point x="1" y="965" type="curve" smooth="yes"/>
      <point x="-105" y="965"/>
      <point x="-144" y="882"/>
      <point x="-144" y="786" type="curve" smooth="yes"/>
    </contour>
    <component base="dvmAA"/>
  </outline>
</glyph>
<glyph name="dvmU" format="2">
  <unicode hex="0941"/>
  <anchor x="-127" y="0" name="_blwm.u"/>
  <outline>
    <contour>
      <point x="-185" y="-264" type="curve" smooth="yes"/>
      <point x="-73" y="-264"/>
      <point x="-6" y="-208"/>
      <point x="-6" y="-114" type="curve" smooth="yes"/>
      <point x="-6" y="-48"/>
      <point x="-51" y="16"/>
      <point x="-130" y="16" type="curve" smooth="yes"/>
      <point x="-144" y="16" type="line"/>
      <point x="-144" y="0" type="line"/>
      <point x="-130" y="0" type="line" smooth="yes"/>
      <point x="-62" y="0"/>
      <point x="-23" y="-57"/>
      <point x="-23" y="-114" type="curve" smooth="yes"/>
      <point x="-23" y="-201"/>
      <point x="-89" y="-248"/>
      <point x="-185" y="-248" type="curve" smooth="yes"/>
      <point x="-292" y="-248"/>
      <point x="-378" y="-195"/>
      <point x="-372" y="-75" type="curve"/>
      <point x="-388" y="-75" type="line"/>
      <point x="-394" y="-203"/>
      <point x="-303" y="-264"/>
    </contour>
  </outline>
</glyph>
<glyph name="dvmUU" format="2">
  <unicode hex="0942"/>
  <anchor x="-127" y="0" name="_blwm.u"/>
  <outline>
    <contour>
      <point x="-163" y="-262" type="curve" smooth="yes"/>
      <point x="-149" y="-262"/>
      <point x="-137" y="-261"/>
      <point x="-124" y="-259" type="curve"/>
      <point x="-124" y="-242" type="line"/>
      <point x="-138" y="-244"/>
      <point x="-151" y="-245"/>
      <point x="-163" y="-245" type="curve" smooth="yes"/>
      <point x="-236" y="-245"/>
      <point x="-287" y="-198"/>
      <point x="-287" y="-128" type="curve" smooth="yes"/>
      <point x="-287" y="-53"/>
      <point x="-231" y="0"/>
      <point x="-133" y="0" type="curve" smooth="yes"/>
      <point x="-20" y="0"/>
      <point x="70" y="-86"/>
      <point x="70" y="-233" type="curve" smooth="yes"/>
      <point x="70" y="-254" type="line"/>
      <point x="87" y="-254" type="line"/>
      <point x="87" y="-250"/>
      <point x="87" y="-245"/>
      <point x="87" y="-241" type="curve" smooth="yes"/>
      <point x="87" y="-71"/>
      <point x="-13" y="16"/>
      <point x="-136" y="16" type="curve" smooth="yes"/>
      <point x="-237" y="16"/>
      <point x="-304" y="-41"/>
      <point x="-304" y="-128" type="curve" smooth="yes"/>
      <point x="-304" y="-211"/>
      <point x="-245" y="-262"/>
    </contour>
  </outline>
</glyph>
<glyph name="dvmvR" format="2">
  <unicode hex="0943"/>
  <anchor x="-127" y="0" name="_blwm.u"/>
  <outline>
    <contour>
      <point x="-138" y="-287" type="curve" smooth="yes"/>
      <point x="-114" y="-287"/>
      <point x="-86" y="-282"/>
      <point x="-73" y="-277" type="curve"/>
      <point x="-73" y="-261" type="line"/>
      <point x="-88" y="-266"/>
      <point x="-113" y="-271"/>
      <point x="-138" y="-271" type="curve" smooth="yes"/>
      <point x="-216" y="-271"/>
      <point x="-285" y="-234"/>
      <point x="-285" y="-137" type="curve" smooth="yes"/>
      <point x="-285" y="-62"/>
      <point x="-233" y="0"/>
      <point x="-139" y="0" type="curve" smooth="yes"/>
      <point x="-135" y="0"/>
      <point x="-131" y="0"/>
      <point x="-127" y="0" type="curve"/>
      <point x="-127" y="16" type="line"/>
      <point x="-131" y="16"/>
      <point x="-135" y="16"/>
      <point x="-139" y="16" type="curve" smooth="yes"/>
      <point x="-244" y="16"/>
      <point x="-302" y="-53"/>
      <point x="-302" y="-137" type="curve" smooth="yes"/>
      <point x="-302" y="-242"/>
      <point x="-224" y="-287"/>
    </contour>
  </outline>
</glyph>
<glyph name="dvmvRR" format="2">
  <unicode hex="0944"/>
  <anchor x="-127" y="0" name="_blwm.u"/>
  <outline>
    <contour>
      <point x="-164" y="-416" type="curve" smooth="yes"/>
      <point x="-126" y="-416"/>
      <point x="-89" y="-408"/>
      <point x="-70" y="-400" type="curve"/>
      <point x="-70" y="-384" type="line"/>
      <point x="-90" y="-392"/>
      <point x="-128" y="-400"/>
      <point x="-164" y="-400" type="curve" smooth="yes"/>
      <point x="-231" y="-400"/>
      <point x="-285" y="-373"/>
      <point x="-285" y="-305" type="curve" smooth="yes"/>
      <point x="-285" y="-232"/>
      <point x="-228" y="-208"/>
      <point x="-171" y="-208" type="curve" smooth="yes"/>
      <point x="-127" y="-208" type="line"/>
      <point x="-127" y="-192" type="line"/>
      <point x="-164" y="-192" type="line" smooth="yes"/>
      <point x="-231" y="-192"/>
      <point x="-285" y="-165"/>
      <point x="-285" y="-97" type="curve" smooth="yes"/>
      <point x="-285" y="-24"/>
      <point x="-228" y="0"/>
      <point x="-171" y="0" type="curve" smooth="yes"/>
      <point x="-127" y="0" type="line"/>
      <point x="-127" y="16" type="line"/>
      <point x="-171" y="16" type="line" smooth="yes"/>
      <point x="-238" y="16"/>
      <point x="-302" y="-15"/>
      <point x="-302" y="-97" type="curve" smooth="yes"/>
      <point x="-302" y="-153"/>
      <point x="-269" y="-187"/>
      <point x="-220" y="-199" type="curve"/>
      <point x="-220" y="-201" type="line"/>
      <point x="-263" y="-210"/>
      <point x="-302" y="-244"/>
      <point x="-302" y="-305" type="curve" smooth="yes"/>
      <point x="-302" y="-383"/>
      <point x="-239" y="-416"/>
    </contour>
  </outline>
</glyph>
<glyph name="dvmEcandra" format="2">
  <unicode hex="0945"/>
  <guideline x="-136" y="766" angle="90"/>
  <anchor x="-127" y="740" name="_abvm.e"/>
  <outline>
    <contour>
      <point x="-136" y="824" type="curve" smooth="yes"/>
      <point x="-17" y="824"/>
      <point x="35" y="905"/>
      <point x="35" y="969" type="curve"/>
      <point x="19" y="969" type="line"/>
      <point x="19" y="911"/>
      <point x="-28" y="840"/>
      <point x="-136" y="840" type="curve" smooth="yes"/>
      <point x="-245" y="840"/>
      <point x="-291" y="911"/>
      <point x="-291" y="969" type="curve"/>
      <point x="-307" y="969" type="line"/>
      <point x="-307" y="905"/>
      <point x="-256" y="824"/>
    </contour>
  </outline>
</glyph>
<glyph name="dvmE" format="2">
  <unicode hex="0947"/>
  <anchor x="-129" y="740" name="_abvm.e"/>
  <outline>
    <contour>
      <point x="-144" y="737" type="curve"/>
      <point x="-126" y="737" type="line"/>
      <point x="-261" y="955"/>
      <point x="-308" y="964"/>
      <point x="-419" y="964" type="curve" smooth="yes"/>
      <point x="-451" y="964" type="line"/>
      <point x="-451" y="948" type="line"/>
      <point x="-419" y="948" type="line" smooth="yes"/>
      <point x="-313" y="948"/>
      <point x="-271" y="938"/>
    </contour>
  </outline>
</glyph>
<glyph name="dvmAI" format="2">
  <unicode hex="0948"/>
  <anchor x="-127" y="740" name="_abvm.e"/>
  <outline>
    <contour>
      <point x="-140" y="737" type="curve"/>
      <point x="-126" y="737" type="line"/>
      <point x="-261" y="1003"/>
      <point x="-308" y="1014"/>
      <point x="-419" y="1014" type="curve" smooth="yes"/>
      <point x="-451" y="1014" type="line"/>
      <point x="-451" y="998" type="line"/>
      <point x="-419" y="998" type="line" smooth="yes"/>
      <point x="-313" y="998"/>
      <point x="-270" y="986"/>
    </contour>
    <contour>
      <point x="-142" y="737" type="curve"/>
      <point x="-126" y="737" type="line"/>
      <point x="-261" y="869"/>
      <point x="-308" y="874"/>
      <point x="-419" y="874" type="curve" smooth="yes"/>
      <point x="-451" y="874" type="line"/>
      <point x="-451" y="858" type="line"/>
      <point x="-419" y="858" type="line" smooth="yes"/>
      <point x="-313" y="858"/>
      <point x="-267" y="852"/>
    </contour>
  </outline>
</glyph>
<glyph name="dvVirama" format="2">
  <unicode hex="094D"/>
  <anchor x="-127" y="0" name="_blwm.virama"/>
  <outline>
    <contour>
      <point x="-26" y="-244" type="line"/>
      <point x="-7" y="-244" type="line"/>
      <point x="-123" y="-66" type="line"/>
      <point x="-141" y="-66" type="line"/>
    </contour>
  </outline>
</glyph>
